<svg xmlns="http://www.w3.org/2000/svg" width="2000" height="1750"><g filter="url(#a)"><g filter="url(#b)"><path d="M-1000-875h4000v3500h-4000z"/><path d="m1792.744-896.732-746 79 355 1809 1394-232" fill="#fee290"/><path d="m2044.692 137.561-1524 358 260 1191 1385-588"/><path d="M2302 462 896 1817l1311 386 296-584"/><path d="m-391.393 1126.439-623 1324 959 514 735-1493M1634 1367 412 2778l1378 183 270-1373" fill="#fee290"/><path d="M979 1495 793 2636l533 686 1141-1559"/></g></g><path fill="#fff" filter="url(#c)" d="M0 0h2000v1750H0z"/><defs><filter id="a"><feComponentTransfer><feFuncR type="linear" slope="1.25"/><feFuncG type="linear" slope="1.25"/><feFuncB type="linear" slope="1.25"/></feComponentTransfer></filter><filter id="c" x="-800" y="-700" width="2800" height="2450" filterUnits="userSpaceOnUse" primitiveUnits="userSpaceOnUse" color-interpolation-filters="linearRGB"><feTurbulence type="fractalNoise" baseFrequency=".115" numOctaves="4" seed="15" stitchTiles="no-stitch" x="0" y="0" width="2000" height="1750" result="turbulence"/><feSpecularLighting surfaceScale="10" specularConstant=".19" specularExponent="20" lighting-color="#fff" x="0" y="0" width="2000" height="1750" in="turbulence" result="specularLighting"><feDistantLight azimuth="3" elevation="100"/></feSpecularLighting></filter><filter id="b" x="-200" y="-200" width="2400" height="2150" filterUnits="userSpaceOnUse" color-interpolation-filters="sRGB"><feFlood flood-opacity="0" result="BackgroundImageFix"/><feBlend in="SourceGraphic" in2="BackgroundImageFix" result="shape"/><feGaussianBlur stdDeviation="200" result="effect1_foregroundBlur_1_2"/></filter></defs></svg>