<svg width="33" height="32" viewBox="0 0 33 32" fill="none" xmlns="http://www.w3.org/2000/svg">
<path d="M16.2327 31.5C7.63072 31.5 0.661255 24.5583 0.661255 16C0.661255 7.44168 7.63072 0.5 16.2327 0.5C24.8346 0.5 31.8041 7.44168 31.8041 16C31.8041 24.5583 24.8346 31.5 16.2327 31.5Z" fill="#136FD3" stroke="#136FD3"/>
<path d="M24.2684 16C24.2684 11.6 20.6524 8 16.2327 8C11.8131 8 8.19702 11.6 8.19702 16C8.19702 20 11.11 23.3 14.9269 23.9V18.3H12.918V16H14.9269V14.2C14.9269 12.2 16.1323 11.1 17.9403 11.1C18.8443 11.1 19.7484 11.3 19.7484 11.3V13.3H18.7439C17.7394 13.3 17.4381 13.9 17.4381 14.5V16H19.6479L19.2461 18.3H17.3376V24C21.3555 23.4 24.2684 20 24.2684 16Z" fill="white"/>
</svg>
