<svg xmlns="http://www.w3.org/2000/svg" width="2000" height="4000"><g filter="url(#a)"><g filter="url(#b)"><path d="M-1000-2000h4000v8000h-4000z"/><path d="m2606.684-1512.88-2077 1063 1819 1330 686-715" fill="#e8c764"/><path d="m1583.94 83.026-2257 568 1414 1895 961-1438"/><path d="M2784 1041 855 1914l1536 1554 662-1598"/><path d="m-170 1079-460 2900 2160 235 970-2664"/><path d="m-530.222 3284.983-807 2624 1128 453 1943-292"/><path d="m-709.547 3344.274-632 2151 783 388 1497-2106" fill="#e8c764"/></g></g><path fill="#fff" filter="url(#c)" d="M0 0h2000v4000H0z"/><defs><filter id="a"><feComponentTransfer><feFuncR type="linear" slope="1.25"/><feFuncG type="linear" slope="1.25"/><feFuncB type="linear" slope="1.25"/></feComponentTransfer></filter><filter id="c" x="-800" y="-1600" width="2800" height="5600" filterUnits="userSpaceOnUse" primitiveUnits="userSpaceOnUse" color-interpolation-filters="linearRGB"><feTurbulence type="fractalNoise" baseFrequency=".115" numOctaves="4" seed="15" stitchTiles="no-stitch" x="0" y="0" width="2000" height="4000" result="turbulence"/><feSpecularLighting surfaceScale="10" specularConstant=".19" specularExponent="20" lighting-color="#fff" x="0" y="0" width="2000" height="4000" in="turbulence" result="specularLighting"><feDistantLight azimuth="3" elevation="100"/></feSpecularLighting></filter><filter id="b" x="-200" y="-200" width="2400" height="4400" filterUnits="userSpaceOnUse" color-interpolation-filters="sRGB"><feFlood flood-opacity="0" result="BackgroundImageFix"/><feBlend in="SourceGraphic" in2="BackgroundImageFix" result="shape"/><feGaussianBlur stdDeviation="200" result="effect1_foregroundBlur_1_2"/></filter></defs></svg>