<svg width="33" height="32" viewBox="0 0 33 32" fill="none" xmlns="http://www.w3.org/2000/svg">
<path d="M0.877686 16C0.877686 24.8366 8.04113 32 16.8777 32C25.7142 32 32.8777 24.8366 32.8777 16C32.8777 7.16344 25.7142 0 16.8777 0C8.04113 0 0.877686 7.16344 0.877686 16Z" fill="#136FD3"/>
<path d="M24.8777 11C24.2777 11.3 23.6777 11.4 22.9777 11.5C23.6777 11.1 24.1777 10.5 24.3777 9.7C23.7777 10.1 23.0777 10.3 22.2777 10.5C21.6777 9.9 20.7777 9.5 19.8777 9.5C17.7777 9.5 16.1777 11.5 16.6777 13.5C13.9777 13.4 11.5777 12.1 9.87769 10.1C8.97769 11.6 9.47769 13.5 10.8777 14.5C10.3777 14.5 9.87769 14.3 9.37769 14.1C9.37769 15.6 10.4777 17 11.9777 17.4C11.4777 17.5 10.9777 17.6 10.4777 17.5C10.8777 18.8 12.0777 19.8 13.5777 19.8C12.3777 20.7 10.5777 21.2 8.87769 21C10.3777 21.9 12.0777 22.5 13.8777 22.5C19.9777 22.5 23.3777 17.4 23.1777 12.7C23.8777 12.3 24.4777 11.7 24.8777 11Z" fill="white"/>
</svg>
