<svg width="28" height="28" viewBox="0 0 28 28" fill="none" xmlns="http://www.w3.org/2000/svg">
<mask id="path-1-inside-1_2753_47445" fill="white">
<path fill-rule="evenodd" clip-rule="evenodd" d="M0.656755 3.14432C0 4.40862 0 6.06964 0 9.39167V18.6083C0 21.9304 0 23.5914 0.656755 24.8557C1.2102 25.9211 2.0789 26.7898 3.14432 27.3432C4.40862 28 6.06964 28 9.39167 28H18.6083C21.9304 28 23.5914 28 24.8557 27.3432C25.9211 26.7898 26.7898 25.9211 27.3432 24.8557C28 23.5914 28 21.9304 28 18.6083V9.39167C28 6.06964 28 4.40862 27.3432 3.14432C26.7898 2.0789 25.9211 1.2102 24.8557 0.656755C23.5914 0 21.9304 0 18.6083 0H9.39167C6.06964 0 4.40862 0 3.14432 0.656755C2.0789 1.2102 1.2102 2.0789 0.656755 3.14432ZM20.0676 13.9999L19.4454 17.8888H16.3342V27.9999H11.6676V17.8888H8.16758V13.9999H11.6676V10.8888C11.6676 7.38876 13.9231 5.44431 17.112 5.44431C18.1231 5.44431 19.212 5.59987 20.2231 5.75542V9.3332H18.4342C16.7231 9.3332 16.3342 10.1888 16.3342 11.2776V13.9999H20.0676Z"/>
</mask>
<path fill-rule="evenodd" clip-rule="evenodd" d="M0.656755 3.14432C0 4.40862 0 6.06964 0 9.39167V18.6083C0 21.9304 0 23.5914 0.656755 24.8557C1.2102 25.9211 2.0789 26.7898 3.14432 27.3432C4.40862 28 6.06964 28 9.39167 28H18.6083C21.9304 28 23.5914 28 24.8557 27.3432C25.9211 26.7898 26.7898 25.9211 27.3432 24.8557C28 23.5914 28 21.9304 28 18.6083V9.39167C28 6.06964 28 4.40862 27.3432 3.14432C26.7898 2.0789 25.9211 1.2102 24.8557 0.656755C23.5914 0 21.9304 0 18.6083 0H9.39167C6.06964 0 4.40862 0 3.14432 0.656755C2.0789 1.2102 1.2102 2.0789 0.656755 3.14432ZM20.0676 13.9999L19.4454 17.8888H16.3342V27.9999H11.6676V17.8888H8.16758V13.9999H11.6676V10.8888C11.6676 7.38876 13.9231 5.44431 17.112 5.44431C18.1231 5.44431 19.212 5.59987 20.2231 5.75542V9.3332H18.4342C16.7231 9.3332 16.3342 10.1888 16.3342 11.2776V13.9999H20.0676Z" fill="#2378E5"/>
<path d="M0.656755 3.14432L1.53418 3.6001L0.656755 3.14432ZM0.656755 24.8557L-0.220675 25.3115H-0.220675L0.656755 24.8557ZM3.14432 27.3432L2.68853 28.2207H2.68853L3.14432 27.3432ZM24.8557 27.3432L25.3115 28.2207H25.3115L24.8557 27.3432ZM27.3432 24.8557L28.2207 25.3115V25.3115L27.3432 24.8557ZM27.3432 3.14432L28.2207 2.68853V2.68853L27.3432 3.14432ZM24.8557 0.656755L25.3115 -0.220675V-0.220675L24.8557 0.656755ZM3.14432 0.656755L3.6001 1.53418L3.14432 0.656755ZM19.4454 17.8888V18.8775H20.2885L20.4217 18.045L19.4454 17.8888ZM20.0676 13.9999L21.0439 14.1561L21.2271 13.0111H20.0676V13.9999ZM16.3342 17.8888V16.9H15.3455V17.8888H16.3342ZM16.3342 27.9999V28.9886H17.323V27.9999H16.3342ZM11.6676 27.9999H10.6788V28.9886H11.6676V27.9999ZM11.6676 17.8888H12.6563V16.9H11.6676V17.8888ZM8.16758 17.8888H7.17883V18.8775H8.16758V17.8888ZM8.16758 13.9999V13.0111H7.17883V13.9999H8.16758ZM11.6676 13.9999V14.9886H12.6563V13.9999H11.6676ZM20.2231 5.75542H21.2119V4.90716L20.3735 4.77817L20.2231 5.75542ZM20.2231 9.3332V10.322H21.2119V9.3332H20.2231ZM16.3342 13.9999H15.3455V14.9886H16.3342V13.9999ZM0.98875 9.39167C0.98875 7.71406 0.989545 6.51631 1.06745 5.57818C1.14438 4.65188 1.29134 4.0676 1.53418 3.6001L-0.220675 2.68853C-0.634584 3.48534 -0.816 4.36372 -0.903264 5.41452C-0.989545 6.45347 -0.98875 7.74725 -0.98875 9.39167H0.98875ZM0.98875 18.6083V9.39167H-0.98875V18.6083H0.98875ZM1.53418 24.3999C1.29134 23.9324 1.14438 23.3481 1.06745 22.4218C0.989545 21.4837 0.98875 20.2859 0.98875 18.6083H-0.98875C-0.98875 20.2528 -0.989545 21.5465 -0.903264 22.5855C-0.816 23.6363 -0.634584 24.5147 -0.220675 25.3115L1.53418 24.3999ZM3.60011 26.4658C2.71527 26.0062 1.99382 25.2847 1.53418 24.3999L-0.220675 25.3115C0.426574 26.5575 1.44252 27.5734 2.68853 28.2207L3.60011 26.4658ZM9.39167 27.0112C7.71406 27.0112 6.51631 27.0105 5.57818 26.9325C4.65188 26.8556 4.0676 26.7087 3.6001 26.4658L2.68853 28.2207C3.48534 28.6346 4.36372 28.816 5.41452 28.9033C6.45347 28.9895 7.74725 28.9888 9.39167 28.9888V27.0112ZM18.6083 27.0112H9.39167V28.9888H18.6083V27.0112ZM24.3999 26.4658C23.9324 26.7087 23.3481 26.8556 22.4218 26.9325C21.4837 27.0105 20.2859 27.0112 18.6083 27.0112V28.9888C20.2528 28.9888 21.5465 28.9895 22.5855 28.9033C23.6363 28.816 24.5147 28.6346 25.3115 28.2207L24.3999 26.4658ZM26.4658 24.3999C26.0062 25.2847 25.2847 26.0062 24.3999 26.4658L25.3115 28.2207C26.5575 27.5734 27.5734 26.5575 28.2207 25.3115L26.4658 24.3999ZM27.0112 18.6083C27.0112 20.2859 27.0105 21.4837 26.9325 22.4218C26.8556 23.3481 26.7087 23.9324 26.4658 24.3999L28.2207 25.3115C28.6346 24.5147 28.816 23.6363 28.9033 22.5855C28.9895 21.5465 28.9888 20.2528 28.9888 18.6083H27.0112ZM27.0112 9.39167V18.6083H28.9888V9.39167H27.0112ZM26.4658 3.6001C26.7087 4.0676 26.8556 4.65188 26.9325 5.57818C27.0105 6.51631 27.0112 7.71406 27.0112 9.39167H28.9888C28.9888 7.74725 28.9895 6.45347 28.9033 5.41452C28.816 4.36372 28.6346 3.48534 28.2207 2.68853L26.4658 3.6001ZM24.3999 1.53418C25.2847 1.99382 26.0062 2.71527 26.4658 3.60011L28.2207 2.68853C27.5734 1.44252 26.5575 0.426574 25.3115 -0.220675L24.3999 1.53418ZM18.6083 0.98875C20.2859 0.98875 21.4837 0.989545 22.4218 1.06745C23.3481 1.14438 23.9324 1.29134 24.3999 1.53418L25.3115 -0.220675C24.5147 -0.634584 23.6363 -0.816 22.5855 -0.903264C21.5465 -0.989545 20.2528 -0.98875 18.6083 -0.98875V0.98875ZM9.39167 0.98875H18.6083V-0.98875H9.39167V0.98875ZM3.6001 1.53418C4.0676 1.29134 4.65188 1.14438 5.57818 1.06745C6.51631 0.989545 7.71406 0.98875 9.39167 0.98875V-0.98875C7.74725 -0.98875 6.45347 -0.989545 5.41452 -0.903264C4.36372 -0.816 3.48534 -0.634584 2.68853 -0.220675L3.6001 1.53418ZM1.53418 3.6001C1.99382 2.71527 2.71527 1.99382 3.6001 1.53418L2.68853 -0.220675C1.44252 0.426574 0.426574 1.44252 -0.220675 2.68853L1.53418 3.6001ZM20.4217 18.045L21.0439 14.1561L19.0912 13.8437L18.469 17.7325L20.4217 18.045ZM16.3342 18.8775H19.4454V16.9H16.3342V18.8775ZM17.323 27.9999V17.8888H15.3455V27.9999H17.323ZM11.6676 28.9886H16.3342V27.0111H11.6676V28.9886ZM10.6788 17.8888V27.9999H12.6563V17.8888H10.6788ZM8.16758 18.8775H11.6676V16.9H8.16758V18.8775ZM7.17883 13.9999V17.8888H9.15633V13.9999H7.17883ZM11.6676 13.0111H8.16758V14.9886H11.6676V13.0111ZM10.6788 10.8888V13.9999H12.6563V10.8888H10.6788ZM17.112 4.45556C15.3183 4.45556 13.6928 5.00506 12.5094 6.14062C11.3194 7.28255 10.6788 8.91922 10.6788 10.8888H12.6563C12.6563 9.35829 13.1436 8.27274 13.8786 7.56745C14.6202 6.85579 15.7168 6.43306 17.112 6.43306V4.45556ZM20.3735 4.77817C19.3675 4.62341 18.2087 4.45556 17.112 4.45556V6.43306C18.0376 6.43306 19.0565 6.57632 20.0728 6.73268L20.3735 4.77817ZM21.2119 9.3332V5.75542H19.2344V9.3332H21.2119ZM18.4342 10.322H20.2231V8.34445H18.4342V10.322ZM17.323 11.2776C17.323 10.8181 17.4118 10.6325 17.4816 10.554C17.5316 10.4978 17.7275 10.322 18.4342 10.322V8.34445C17.4299 8.34445 16.5758 8.59643 16.0036 9.2402C15.4512 9.86168 15.3455 10.6483 15.3455 11.2776H17.323ZM17.323 13.9999V11.2776H15.3455V13.9999H17.323ZM20.0676 13.0111H16.3342V14.9886H20.0676V13.0111Z" fill="#2378E5" mask="url(#path-1-inside-1_2753_47445)"/>
</svg>
