<svg width="29" height="28" viewBox="0 0 29 28" fill="none" xmlns="http://www.w3.org/2000/svg">
<path fill-rule="evenodd" clip-rule="evenodd" d="M0.660661 3.14413C0.00390625 4.40844 0.00390625 6.06945 0.00390625 9.39148V18.6081C0.00390625 21.9302 0.00390625 23.5912 0.660661 24.8555C1.2141 25.9209 2.0828 26.7896 3.14822 27.3431C4.41253 27.9998 6.07354 27.9998 9.39557 27.9998H18.6122C21.9343 27.9998 23.5953 27.9998 24.8596 27.3431C25.925 26.7896 26.7937 25.9209 27.3472 24.8555C28.0039 23.5912 28.0039 21.9302 28.0039 18.6081V9.39148C28.0039 6.06945 28.0039 4.40844 27.3472 3.14413C26.7937 2.07871 25.925 1.21001 24.8596 0.656572C23.5953 -0.000183105 21.9343 -0.000183105 18.6122 -0.000183105H9.39557C6.07354 -0.000183105 4.41253 -0.000183105 3.14822 0.656572C2.0828 1.21001 1.2141 2.07871 0.660661 3.14413ZM6.28837 8.69533C7.62986 8.69533 8.71736 7.60783 8.71736 6.26634C8.71736 4.92484 7.62986 3.83734 6.28837 3.83734C4.94687 3.83734 3.85938 4.92484 3.85938 6.26634C3.85938 7.60783 4.94687 8.69533 6.28837 8.69533ZM10.9419 10.4904H14.9675V12.3346C14.9675 12.3346 16.0599 10.1498 19.0322 10.1498C21.6836 10.1498 23.88 11.4559 23.88 15.4372V23.8325H19.7084V16.4544C19.7084 14.1059 18.4545 13.8476 17.4991 13.8476C15.5162 13.8476 15.1767 15.5579 15.1767 16.7608V23.8325H10.9419V10.4904ZM8.40579 10.4904H4.17096V23.8325H8.40579V10.4904Z" fill="#2378E5"/>
</svg>
