<svg width="28" height="28" viewBox="0 0 28 28" fill="none" xmlns="http://www.w3.org/2000/svg">
<g clip-path="url(#clip0_2753_47453)">
<path fill-rule="evenodd" clip-rule="evenodd" d="M0.67238 3.14413C0.015625 4.40844 0.015625 6.06945 0.015625 9.39148V18.6081C0.015625 21.9302 0.015625 23.5912 0.67238 24.8555C1.22582 25.9209 2.09452 26.7896 3.15994 27.3431C4.42425 27.9998 6.08526 27.9998 9.40729 27.9998H18.624C21.946 27.9998 23.607 27.9998 24.8713 27.3431C25.9367 26.7896 26.8054 25.9209 27.3589 24.8555C28.0156 23.5912 28.0156 21.9302 28.0156 18.6081V9.39148C28.0156 6.06945 28.0156 4.40844 27.3589 3.14413C26.8054 2.07871 25.9367 1.21001 24.8713 0.656572C23.607 -0.000183105 21.946 -0.000183105 18.624 -0.000183105H9.40729C6.08526 -0.000183105 4.42425 -0.000183105 3.15994 0.656572C2.09452 1.21001 1.22582 2.07871 0.67238 3.14413ZM9.80332 3.87948C10.8894 3.83005 11.2364 3.81796 14.0015 3.81796H13.9983C16.7643 3.81796 17.11 3.83005 18.1961 3.87948C19.28 3.92911 20.0203 4.10072 20.6693 4.35251C21.3396 4.61236 21.906 4.96024 22.4723 5.5266C23.0386 6.09254 23.3865 6.6606 23.6474 7.33026C23.8977 7.97766 24.0695 8.71754 24.1204 9.80148C24.1692 10.8875 24.1819 11.2346 24.1819 13.9998C24.1819 16.765 24.1692 17.1112 24.1204 18.1972C24.0695 19.2807 23.8977 20.0208 23.6474 20.6684C23.3865 21.3379 23.0386 21.906 22.4723 22.4719C21.9066 23.0383 21.3394 23.387 20.67 23.6471C20.0222 23.8988 19.2815 24.0704 18.1976 24.1201C17.1115 24.1695 16.7656 24.1816 14.0002 24.1816C11.2353 24.1816 10.8885 24.1695 9.80247 24.1201C8.71878 24.0704 7.97871 23.8988 7.33091 23.6471C6.66169 23.387 6.09365 23.0383 5.52794 22.4719C4.9618 21.906 4.61393 21.3379 4.35367 20.6682C4.1021 20.0208 3.9305 19.281 3.88065 18.197C3.83144 17.111 3.81914 16.765 3.81914 13.9998C3.81914 11.2346 3.83187 10.8873 3.88044 9.80126C3.92923 8.71775 4.10104 7.97766 4.35346 7.33005C4.61436 6.6606 4.96223 6.09254 5.52857 5.5266C6.0945 4.96045 6.66254 4.61257 7.33219 4.35251C7.97956 4.10072 8.71942 3.92911 9.80332 3.87948ZM13.6622 5.65271C13.4563 5.65262 13.2655 5.65253 13.0881 5.65281V5.65027C11.1906 5.65239 10.8266 5.66511 9.88732 5.70754C8.89462 5.75314 8.35564 5.9186 7.99674 6.0586C7.5216 6.24357 7.18222 6.46417 6.82587 6.82054C6.46951 7.1769 6.24849 7.51629 6.06395 7.99145C5.92459 8.35036 5.75872 8.88914 5.71333 9.88187C5.66454 10.9552 5.65478 11.2759 5.65478 13.9949C5.65478 16.7139 5.66454 17.0363 5.71333 18.1096C5.75851 19.1024 5.92459 19.6411 6.06395 19.9996C6.24892 20.475 6.46951 20.8135 6.82587 21.1699C7.18222 21.5263 7.5216 21.7469 7.99674 21.9314C8.35585 22.0708 8.89462 22.2367 9.88732 22.2825C10.9606 22.3313 11.2828 22.3419 14.0015 22.3419C16.72 22.3419 17.0424 22.3313 18.1157 22.2825C19.1084 22.2371 19.6476 22.0716 20.006 21.9316C20.4814 21.7471 20.8197 21.5265 21.1761 21.1701C21.5324 20.814 21.7534 20.4756 21.938 20.0005C22.0773 19.642 22.2432 19.1032 22.2886 18.1105C22.3374 17.0371 22.348 16.7147 22.348 13.9974C22.348 11.2802 22.3374 10.9577 22.2886 9.88442C22.2434 8.89169 22.0773 8.3529 21.938 7.99442C21.753 7.51926 21.5324 7.17987 21.1761 6.82351C20.8199 6.46714 20.4812 6.24654 20.006 6.06199C19.6471 5.92263 19.1084 5.75675 18.1157 5.71136C17.0422 5.66257 16.72 5.65281 14.0015 5.65281C13.884 5.65281 13.771 5.65276 13.6622 5.65271ZM18.2145 8.56481C18.2145 7.89005 18.7618 7.34342 19.4363 7.34342V7.34299C20.1108 7.34299 20.6581 7.89026 20.6581 8.56481C20.6581 9.23936 20.1108 9.78663 19.4363 9.78663C18.7618 9.78663 18.2145 9.23936 18.2145 8.56481ZM8.77287 13.9998C8.77287 11.1122 11.1139 8.7711 14.0013 8.77099C16.8888 8.77099 19.2293 11.1122 19.2293 13.9998C19.2293 16.8874 16.889 19.2275 14.0015 19.2275C11.114 19.2275 8.77287 16.8874 8.77287 13.9998ZM17.3953 13.9998C17.3953 12.1253 15.8757 10.6058 14.0015 10.6058C12.127 10.6058 10.6077 12.1253 10.6077 13.9998C10.6077 15.8741 12.127 17.3937 14.0015 17.3937C15.8757 17.3937 17.3953 15.8741 17.3953 13.9998Z" fill="#2378E5"/>
</g>
<defs>
<clipPath id="clip0_2753_47453">
<rect width="28" height="28" fill="white"/>
</clipPath>
</defs>
</svg>
