<svg width="20" height="20" viewBox="0 0 20 20" fill="none" xmlns="http://www.w3.org/2000/svg">
<g id="Twitter">
<path id="Subtract" fill-rule="evenodd" clip-rule="evenodd" d="M0.469111 2.24582C0 3.14889 0 4.33533 0 6.70821V13.2915C0 15.6644 0 16.8509 0.469111 17.7539C0.864425 18.515 1.48493 19.1355 2.24594 19.5308C3.14902 19.9999 4.33546 19.9999 6.70833 19.9999H13.2917C15.6645 19.9999 16.851 19.9999 17.7541 19.5308C18.5151 19.1355 19.1356 18.515 19.5309 17.7539C20 16.8509 20 15.6644 20 13.2915V6.70821C20 4.33533 20 3.14889 19.5309 2.24582C19.1356 1.4848 18.5151 0.864303 17.7541 0.468989C16.851 -0.00012207 15.6645 -0.00012207 13.2917 -0.00012207H6.70833C4.33546 -0.00012207 3.14902 -0.00012207 2.24594 0.468989C1.48493 0.864303 0.864425 1.4848 0.469111 2.24582ZM15.5587 7.93798C15.5587 7.81306 15.5571 7.68819 15.5522 7.56327C16.0695 7.16013 16.5174 6.65486 16.8733 6.08137C16.399 6.30849 15.8876 6.46169 15.3514 6.52982C15.8994 6.17778 16.3188 5.61577 16.5174 4.94575C16.0049 5.27508 15.4386 5.51354 14.8341 5.63846C14.3512 5.08201 13.6632 4.7356 12.9015 4.7356C11.4383 4.7356 10.2524 6.01887 10.2524 7.60306C10.2524 7.8245 10.2755 8.04589 10.3208 8.25598C8.11955 8.13674 6.16703 6.99543 4.86105 5.25794C4.63172 5.68379 4.50145 6.17781 4.50145 6.70019C4.50145 7.69386 4.96926 8.57394 5.68092 9.09065C5.2465 9.07361 4.83737 8.94308 4.47993 8.73299V8.7671C4.47993 10.1582 5.39345 11.3165 6.6063 11.5777C6.38236 11.6459 6.14873 11.6799 5.9081 11.6799C5.73745 11.6799 5.57058 11.6628 5.40854 11.6287C5.74607 12.7644 6.72474 13.599 7.88376 13.6161C6.97722 14.3883 5.83435 14.8483 4.59351 14.8483C4.3798 14.8483 4.16931 14.8312 3.96205 14.8085C5.13453 15.6205 6.5261 16.0975 8.02264 16.0975C12.8945 16.0975 15.5587 11.7253 15.5587 7.93798Z" fill="#2378E5"/>
</g>
</svg>
