<svg width="20" height="20" viewBox="0 0 20 20" fill="none" xmlns="http://www.w3.org/2000/svg">
<g id="YouTube">
<path id="Subtract" fill-rule="evenodd" clip-rule="evenodd" d="M0.469111 2.24582C0 3.14889 0 4.33533 0 6.70821V13.2915C0 15.6644 0 16.8509 0.469111 17.7539C0.864425 18.515 1.48493 19.1355 2.24594 19.5308C3.14902 19.9999 4.33546 19.9999 6.70833 19.9999H13.2917C15.6645 19.9999 16.851 19.9999 17.7541 19.5308C18.5151 19.1355 19.1356 18.515 19.5309 17.7539C20 16.8509 20 15.6644 20 13.2915V6.70821C20 4.33533 20 3.14889 19.5309 2.24582C19.1356 1.4848 18.5151 0.864303 17.7541 0.468989C16.851 -0.00012207 15.6645 -0.00012207 13.2917 -0.00012207H6.70833C4.33546 -0.00012207 3.14902 -0.00012207 2.24594 0.468989C1.48493 0.864303 0.864425 1.4848 0.469111 2.24582ZM17.191 6.22654C17.0181 5.58404 16.5115 5.07745 15.869 4.90447C14.6952 4.58322 9.99997 4.58322 9.99997 4.58322C9.99997 4.58322 5.30477 4.58322 4.13096 4.89211C3.50082 5.06509 2.98188 5.58404 2.80889 6.22654C2.5 7.40034 2.5 9.83443 2.5 9.83443C2.5 9.83443 2.5 12.2809 2.80889 13.4423C2.98188 14.0848 3.48846 14.5914 4.13096 14.7644C5.31712 15.0856 9.99997 15.0856 9.99997 15.0856C9.99997 15.0856 14.6952 15.0856 15.869 14.7767C16.5115 14.6038 17.0181 14.0972 17.191 13.4547C17.4999 12.2809 17.4999 9.84679 17.4999 9.84679C17.4999 9.84679 17.5123 7.40034 17.191 6.22654ZM8.50491 11.9974L12.4093 9.74864L8.50491 7.49988V11.9974Z" fill="#2378E5"/>
</g>
</svg>
