<svg width="33" height="32" viewBox="0 0 33 32" fill="none" xmlns="http://www.w3.org/2000/svg">
<path d="M16.4124 31.5C7.81041 31.5 0.840942 24.5583 0.840942 16C0.840942 7.44168 7.81041 0.5 16.4124 0.5C25.0143 0.5 31.9838 7.44168 31.9838 16C31.9838 24.5583 25.0143 31.5 16.4124 31.5Z" fill="#136FD3" stroke="#136FD3"/>
<path d="M11.9928 24H8.5776V13.3H11.9928V24ZM10.2852 11.8C9.18028 11.8 8.37671 11 8.37671 9.9C8.37671 8.8 9.28073 8 10.2852 8C11.3901 8 12.1937 8.8 12.1937 9.9C12.1937 11 11.3901 11.8 10.2852 11.8ZM24.4481 24H21.033V18.2C21.033 16.5 20.3298 16 19.3254 16C18.3209 16 17.3164 16.8 17.3164 18.3V24H13.9013V13.3H17.1155V14.8C17.4169 14.1 18.6222 13 20.3298 13C22.2383 13 24.2472 14.1 24.2472 17.4V24H24.4481Z" fill="white"/>
</svg>
