<svg width="33" height="32" viewBox="0 0 33 32" fill="none" xmlns="http://www.w3.org/2000/svg">
<path d="M0.516724 16C0.516724 24.8366 7.64838 32 16.4457 32C25.2431 32 32.3747 24.8366 32.3747 16C32.3747 7.16344 25.2431 0 16.4457 0C7.64838 0 0.516724 7.16344 0.516724 16Z" fill="#136FD3"/>
<path d="M16.4457 9.2002C18.6359 9.2002 18.9346 9.2002 19.8306 9.2002C20.627 9.2002 21.0252 9.4002 21.3239 9.5002C21.7221 9.7002 22.0208 9.8002 22.3195 10.1002C22.6181 10.4002 22.8173 10.7002 22.9168 11.1002C23.0164 11.4002 23.1159 11.8002 23.2155 12.6002C23.2155 13.5002 23.2155 13.7002 23.2155 16.0002C23.2155 18.3002 23.2155 18.5002 23.2155 19.4002C23.2155 20.2002 23.0164 20.6002 22.9168 20.9002C22.7177 21.3002 22.6181 21.6002 22.3195 21.9002C22.0208 22.2002 21.7221 22.4002 21.3239 22.5002C21.0252 22.6002 20.627 22.7002 19.8306 22.8002C18.9346 22.8002 18.7355 22.8002 16.4457 22.8002C14.1559 22.8002 13.9568 22.8002 13.0608 22.8002C12.2643 22.8002 11.8661 22.6002 11.5674 22.5002C11.1692 22.3002 10.8705 22.2002 10.5718 21.9002C10.2732 21.6002 10.0741 21.3002 9.97451 20.9002C9.87495 20.6002 9.77539 20.2002 9.67584 19.4002C9.67584 18.5002 9.67584 18.3002 9.67584 16.0002C9.67584 13.7002 9.67584 13.5002 9.67584 12.6002C9.67584 11.8002 9.87495 11.4002 9.97451 11.1002C10.1736 10.7002 10.2732 10.4002 10.5718 10.1002C10.8705 9.8002 11.1692 9.6002 11.5674 9.5002C11.8661 9.4002 12.2643 9.3002 13.0608 9.2002C13.9568 9.2002 14.2554 9.2002 16.4457 9.2002ZM16.4457 7.7002C14.1559 7.7002 13.9568 7.7002 13.0608 7.7002C12.1647 7.7002 11.5674 7.9002 11.0696 8.1002C10.5718 8.3002 10.0741 8.6002 9.57628 9.1002C9.0785 9.6002 8.87939 10.0002 8.58072 10.6002C8.38161 11.1002 8.28205 11.7002 8.1825 12.6002C8.1825 13.5002 8.1825 13.8002 8.1825 16.0002C8.1825 18.3002 8.1825 18.5002 8.1825 19.4002C8.1825 20.3002 8.38161 20.9002 8.58072 21.4002C8.77983 21.9002 9.0785 22.4002 9.57628 22.9002C10.0741 23.4002 10.4723 23.6002 11.0696 23.9002C11.5674 24.1002 12.1647 24.2002 13.0608 24.3002C13.9568 24.3002 14.2554 24.3002 16.4457 24.3002C18.6359 24.3002 18.9346 24.3002 19.8306 24.3002C20.7266 24.3002 21.3239 24.1002 21.8217 23.9002C22.3195 23.7002 22.8173 23.4002 23.315 22.9002C23.8128 22.4002 24.0119 22.0002 24.3106 21.4002C24.5097 20.9002 24.6093 20.3002 24.7088 19.4002C24.7088 18.5002 24.7088 18.2002 24.7088 16.0002C24.7088 13.8002 24.7088 13.5002 24.7088 12.6002C24.7088 11.7002 24.5097 11.1002 24.3106 10.6002C24.1115 10.1002 23.8128 9.6002 23.315 9.1002C22.8173 8.6002 22.419 8.4002 21.8217 8.1002C21.3239 7.9002 20.7266 7.8002 19.8306 7.7002C18.9346 7.7002 18.7355 7.7002 16.4457 7.7002Z" fill="white"/>
<path d="M16.4457 11.7002C14.0563 11.7002 12.1647 13.6002 12.1647 16.0002C12.1647 18.4002 14.0563 20.3002 16.4457 20.3002C18.835 20.3002 20.7266 18.4002 20.7266 16.0002C20.7266 13.6002 18.835 11.7002 16.4457 11.7002ZM16.4457 18.8002C14.9523 18.8002 13.6581 17.6002 13.6581 16.0002C13.6581 14.5002 14.8528 13.2002 16.4457 13.2002C17.939 13.2002 19.2332 14.4002 19.2332 16.0002C19.2332 17.5002 17.939 18.8002 16.4457 18.8002Z" fill="white"/>
<path d="M20.8261 12.6002C21.376 12.6002 21.8217 12.1525 21.8217 11.6002C21.8217 11.0479 21.376 10.6002 20.8261 10.6002C20.2763 10.6002 19.8306 11.0479 19.8306 11.6002C19.8306 12.1525 20.2763 12.6002 20.8261 12.6002Z" fill="white"/>
</svg>
