<svg width="30" height="30" viewBox="0 0 30 30" fill="none" xmlns="http://www.w3.org/2000/svg">
<path d="M10.7091 29.7299C10.0765 29.7299 9.56354 29.1999 9.56354 28.5672C9.56354 28.3792 9.61484 28.1911 9.70033 28.0201C9.70033 28.0201 10.1107 27.2677 10.4527 26.4128C10.7946 25.5579 10.863 25.233 10.9485 24.9081H10.7433C10.1449 25.0278 9.44385 25.1646 8.67442 25.1646C7.90498 25.1646 6.77647 24.9594 5.73346 24.2926C4.69045 23.6257 4.21169 22.4972 3.83552 20.5993C3.57904 19.3511 3.49355 18.0687 3.49355 17.2822C3.44225 17.2309 3.32256 17.1112 3.03188 16.9573C2.74121 16.8034 2.31374 16.5811 1.93757 16.4101L0.962955 15.9485C0.740674 15.8117 0.0738293 15.4355 0.00543497 14.6148C-0.0629594 13.7941 0.518393 13.3495 1.51011 12.392C2.00597 11.9303 2.55312 11.4174 2.94639 10.9215C3.33966 10.4256 3.49355 10.0324 3.49355 9.99818C3.45935 8.93807 3.69873 7.80956 4.12619 6.68105C4.60495 5.46705 5.32309 4.35565 6.22932 3.41523C7.6998 1.94475 10.3501 0.183594 14.7615 0.183594C17.8735 0.183594 20.5579 1.73956 22.4388 4.74891C23.8238 6.92043 24.2854 9.04066 24.3196 9.12615C24.4222 9.7588 23.9776 10.3401 23.345 10.4427C22.7636 10.5282 22.2165 10.1692 22.0626 9.62201C22.0626 9.58781 21.6351 7.72407 20.4553 5.89452C19.0191 3.63751 17.0869 2.4919 14.7786 2.4919C11.9231 2.4919 9.56354 3.38103 7.93918 5.05669C6.31481 6.73235 5.83605 8.66449 5.87025 9.96398C5.90445 11.2635 4.45107 12.8536 3.15157 14.0847L2.8951 14.3412H2.92929C3.47645 14.5635 4.0578 14.8542 4.57076 15.2132C5.37439 15.7604 5.81895 16.4272 5.81895 17.1796C5.81895 17.9319 5.87025 18.9749 6.14383 20.1718C6.51999 21.9843 6.98166 22.3434 7.03295 22.3605C8.16146 23.0786 9.22157 22.8563 10.3501 22.6169L11.2221 22.4801C11.9744 22.3605 12.6071 22.6169 13.0175 23.1641C13.4278 23.7112 13.4791 25.0962 12.7952 26.9429C12.5216 27.661 12.1967 28.3621 11.8377 29.046C11.6325 29.4393 11.2221 29.6957 10.7775 29.6786L10.7091 29.7299Z" fill="#1D66FF"/>
<path d="M28.3211 15.7436H23.6532C23.3455 15.7436 23.0548 15.6068 22.8496 15.4017L18.8314 11.4177H13.3257C12.693 11.4177 12.1801 10.9047 12.1801 10.255C12.1801 9.62233 12.693 9.10938 13.3257 9.10938H19.3273C19.6351 9.10938 19.9257 9.24616 20.1309 9.45135L24.1491 13.4353H28.3382C28.9709 13.4353 29.4838 13.9483 29.4838 14.598C29.4838 15.2307 28.9709 15.7436 28.3382 15.7436H28.3211ZM19.7206 22.3779H14.6423C14.0096 22.3779 13.4967 21.8649 13.4967 21.2152C13.4967 20.5825 14.0096 20.0696 14.6423 20.0696H19.2247L21.6185 17.6758C21.8237 17.4535 22.1144 17.3338 22.4221 17.3338H26.6968C27.3294 17.3338 27.8424 17.8468 27.8424 18.4965C27.8424 19.1291 27.3294 19.6421 26.6968 19.6421H22.9522L20.5584 22.0359C20.3361 22.2582 20.0283 22.3779 19.7206 22.3779ZM17.19 16.9576H11.5987C10.9661 16.9576 10.4531 16.4447 10.4531 15.7949C10.4531 15.1623 10.9661 14.6493 11.5987 14.6493H17.19C17.8226 14.6493 18.3356 15.1623 18.3356 15.812C18.3356 16.4447 17.8226 16.9576 17.19 16.9576Z" fill="#1D66FF"/>
</svg>
