<svg xmlns="http://www.w3.org/2000/svg" width="2000" height="1333"><g filter="url(#a)"><g filter="url(#b)"><path fill="#2378e5" d="M-1000-666.5h4000v2666h-4000z"/><path d="M228-179-521 895l1062 433L827 52" fill="#2378e5"/><path d="M1041-321 329 1051l543 229 1020-314" fill="#F08CAE"/><path d="M1973 449 950 1289l472 564 927-1140" fill="#F08CAE"/><path d="m-337 466-126 782 160 647 1316-969" fill="#2378e5"/><path d="M1644 968 412 1169l33 1403 1473-1381" fill="#fed766"/><path d="m2148 1141-1073 237 1226 1125 133-517" fill="#F08CAE"/></g></g><path fill="#fff" filter="url(#c)" d="M0 0h2000v1333H0z"/><defs><filter id="a"><feComponentTransfer><feFuncR type="linear" slope="1.72"/><feFuncG type="linear" slope="1.72"/><feFuncB type="linear" slope="1.72"/></feComponentTransfer></filter><filter id="c" x="-800" y="-533.2" width="2800" height="1866.2" filterUnits="userSpaceOnUse" primitiveUnits="userSpaceOnUse" color-interpolation-filters="linearRGB"><feTurbulence type="fractalNoise" baseFrequency=".115" numOctaves="4" seed="15" stitchTiles="no-stitch" x="0" y="0" width="2000" height="1333" result="turbulence"/><feSpecularLighting surfaceScale="10" specularConstant=".19" specularExponent="20" lighting-color="#fff" x="0" y="0" width="2000" height="1333" in="turbulence" result="specularLighting"><feDistantLight azimuth="3" elevation="100"/></feSpecularLighting></filter><filter id="b" x="-200" y="-200" width="2400" height="1733" filterUnits="userSpaceOnUse" color-interpolation-filters="sRGB"><feFlood flood-opacity="0" result="BackgroundImageFix"/><feBlend in="SourceGraphic" in2="BackgroundImageFix" result="shape"/><feGaussianBlur stdDeviation="200" result="effect1_foregroundBlur_1_2"/></filter></defs></svg>