<svg width="27" height="31" viewBox="0 0 27 31" fill="none" xmlns="http://www.w3.org/2000/svg">
<path d="M4.75 2.55859C4.13458 2.5812 3.62198 2.79776 3.21219 3.20828C2.8024 3.6188 2.58583 4.13141 2.5625 4.74609V26.6211C2.5851 27.2365 2.80167 27.7491 3.21219 28.1589C3.62271 28.5687 4.13531 28.7853 4.75 28.8086H22.25C22.8654 28.786 23.378 28.5694 23.7878 28.1589C24.1976 27.7484 24.4142 27.2358 24.4375 26.6211V4.74609C24.4149 4.13068 24.1983 3.61807 23.7878 3.20828C23.3773 2.79849 22.8647 2.58193 22.25 2.55859H4.75ZM4.75 0.371094H22.25C23.4808 0.393698 24.5119 0.82099 25.3431 1.65297C26.1744 2.48495 26.6017 3.51599 26.625 4.74609V26.6211C26.6024 27.8519 26.1751 28.883 25.3431 29.7142C24.5111 30.5455 23.4801 30.9728 22.25 30.9961H4.75C3.51917 30.9735 2.48812 30.5462 1.65687 29.7142C0.825625 28.8822 0.398333 27.8512 0.375 26.6211V4.74609C0.397604 3.51526 0.824896 2.48422 1.65687 1.65297C2.48885 0.821719 3.5199 0.394427 4.75 0.371094ZM9.125 4.74609H17.875C18.1944 4.74609 18.4565 4.84854 18.6614 5.05344C18.8663 5.25833 18.9688 5.52047 18.9688 5.83984C18.9688 6.15922 18.8663 6.42135 18.6614 6.62625C18.4565 6.83115 18.1944 6.93359 17.875 6.93359H9.125C8.80562 6.93359 8.54349 6.83115 8.33859 6.62625C8.1337 6.42135 8.03125 6.15922 8.03125 5.83984C8.03125 5.52047 8.1337 5.25833 8.33859 5.05344C8.54349 4.84854 8.80562 4.74609 9.125 4.74609ZM13.5 26.6211C12.8846 26.5985 12.372 26.3819 11.9622 25.9714C11.5524 25.5609 11.3471 25.0483 11.3464 24.4336C11.3457 23.8189 11.5509 23.3063 11.9622 22.8958C12.3734 22.4853 12.886 22.28 13.5 22.28C14.114 22.28 14.6266 22.4853 15.0378 22.8958C15.4491 23.3063 15.6543 23.8189 15.6536 24.4336C15.6529 25.0483 15.4476 25.5609 15.0378 25.9714C14.628 26.3819 14.1154 26.5985 13.5 26.6211Z" fill="#1D66FF"/>
</svg>
