<svg width="70" height="70" viewBox="0 0 70 70" fill="none" xmlns="http://www.w3.org/2000/svg">
<rect width="70" height="70" fill="white"/>
<g clip-path="url(#clip0_1278_32019)">
<mask id="mask0_1278_32019" style="mask-type:luminance" maskUnits="userSpaceOnUse" x="-55" y="-347" width="781" height="438">
<path d="M-54.5649 -346.053H725.869V90.9018H-54.5649V-346.053Z" fill="white"/>
</mask>
<g mask="url(#mask0_1278_32019)">
<path fill-rule="evenodd" clip-rule="evenodd" d="M27.0167 41.4194V43.242C27.0167 43.4445 26.8517 43.6049 26.6482 43.647C22.7865 43.9297 19.4124 41.5837 19.4124 37.3732V22.8923C19.4124 22.6898 19.5774 22.4873 19.8193 22.4873H21.8537C22.0572 22.4873 22.2184 22.6898 22.2184 22.8923V26.4915C22.2184 26.5335 22.2606 26.5717 22.3413 26.5717H24.6176C24.821 26.5717 24.9822 26.7322 24.9822 26.9347V28.8795C24.9822 29.082 24.821 29.2425 24.6176 29.2425H22.3413C22.2594 29.2425 22.2184 29.2833 22.2184 29.3648V37.3732C22.2184 40.2082 24.5753 41.0565 26.6098 41.0144C26.8133 41.0144 27.0167 41.2169 27.0167 41.4194ZM44.4519 35.1915C44.4519 35.5545 44.21 35.7952 43.8415 35.7952H30.6327C30.5905 35.7952 30.5099 35.8793 30.5521 35.9175C30.9168 39.2378 33.5578 41.2169 36.241 41.2169C38.4789 41.2169 40.0643 40.2082 40.9971 38.508C41.1199 38.3055 41.3234 38.1832 41.5268 38.1832H43.5191C43.8031 38.1832 43.9643 38.4659 43.8837 38.7105C42.6247 41.9047 39.8608 43.647 36.241 43.647C31.4849 43.647 27.7461 39.9255 27.7461 35.1074C27.7461 30.3773 31.4849 26.4915 36.0798 26.4915C40.2255 26.4915 44.21 29.7698 44.4519 35.1915ZM41.404 33.2887C40.6708 30.66 38.4789 28.9598 36.0798 28.9598C33.8418 28.9598 31.4465 30.5378 30.7133 33.2887C30.7133 33.3308 30.7556 33.411 30.7939 33.411H41.2811C41.3617 33.411 41.404 33.3308 41.404 33.2887ZM62.0137 38.7105C60.793 41.7442 57.9869 43.647 54.4938 43.647C49.9411 43.647 46.2023 39.8414 46.2023 35.1074C46.2023 30.3773 49.9411 26.4915 54.4938 26.4915C57.9869 26.4915 60.7507 28.4325 62.0137 31.428C62.1327 31.7107 61.933 31.9515 61.6451 31.9515H59.6145C59.4111 31.9515 59.2076 31.8712 59.127 31.6687C58.152 30.0525 56.5244 28.998 54.4938 28.998C51.4459 28.998 48.9239 31.7528 48.9239 35.1074C48.9239 38.4659 51.4459 41.1787 54.4938 41.1787C56.5666 41.1787 58.1904 40.1242 59.127 38.508C59.2498 38.3055 59.4111 38.1832 59.6145 38.1832H61.6451C61.933 38.1832 62.1327 38.4659 62.0137 38.7105ZM18.0727 41.4194V43.242C18.0727 43.4445 17.9115 43.6049 17.708 43.647C13.8847 43.9297 10.5105 41.5837 10.5105 37.3732V20.424C10.5105 20.2215 10.6756 20.019 10.8791 20.019H12.9097C13.1554 20.019 13.3166 20.2215 13.3166 20.424V23.538C13.3166 23.6183 13.3588 23.6603 13.3972 23.6603H15.6735C15.877 23.6603 16.0804 23.8208 16.0804 24.0233V26.1285C16.0804 26.331 15.877 26.4915 15.6735 26.4915H13.3972C13.3588 26.4915 13.3166 26.5335 13.3166 26.6138V37.3732C13.3166 40.2082 15.7157 41.0565 17.708 41.0144C17.9115 41.0144 18.0727 41.2169 18.0727 41.4194ZM6.04236 24.0424C6.04236 23.8284 6.21126 23.6603 6.42622 23.6603H8.50293C8.71405 23.6603 8.88679 23.8284 8.88679 24.0424V26.1094C8.88679 26.3196 8.71405 26.4915 8.50293 26.4915H6.42622C6.21126 26.4915 6.04236 26.3196 6.04236 26.1094V24.0424ZM18.0305 46.8412V48.5835C18.0305 48.786 17.9115 48.9464 17.6658 48.9464C16.4873 49.0267 12.1804 49.0687 9.65836 47.2882C8.76396 46.6425 8.073 46.035 7.54327 45.3052C6.44541 43.8074 6.12297 42.432 6.04236 41.7442C6.00013 41.5417 6.16135 41.3392 6.40703 41.3392H8.39929C8.56051 41.3392 8.72173 41.4615 8.76396 41.6219C8.96741 42.3135 9.61614 44.1322 11.3666 45.1829C13.4394 46.44 16.4451 46.5202 17.6658 46.4782C17.8692 46.44 18.0305 46.6425 18.0305 46.8412ZM63.6796 29.4068C62.958 29.4068 62.3783 28.826 62.3783 28.1115C62.3783 27.3932 62.958 26.8163 63.6796 26.8163C64.3975 26.8163 64.9809 27.3932 64.9809 28.1115C64.9809 28.826 64.3975 29.4068 63.6796 29.4068ZM64.7353 28.0886C64.7353 27.4735 64.2554 26.9768 63.6604 26.9768C63.0616 26.9768 62.5818 27.4735 62.5818 28.0886C62.5818 28.7038 63.0616 29.2043 63.6604 29.2043C64.2554 29.2043 64.7353 28.7038 64.7353 28.0886ZM63.9215 28.1918L64.2478 28.719H64.0059L63.718 28.2338H63.4762V28.719H63.2305V27.462H63.6796C64.0046 27.462 64.1671 27.5843 64.1671 27.8288C64.1671 28.0313 64.0865 28.1115 63.9215 28.1497V28.1918ZM63.9215 27.8708C63.9215 27.7486 63.8831 27.6683 63.6796 27.6683H63.4762V28.0733H63.6796C63.8831 28.0733 63.9215 27.9893 63.9215 27.8708Z" fill="#2B3A42"/>
</g>
</g>
<defs>
<clipPath id="clip0_1278_32019">
<rect width="59" height="29" fill="white" transform="translate(6 20)"/>
</clipPath>
</defs>
</svg>
