<svg width="70" height="70" viewBox="0 0 70 70" fill="none" xmlns="http://www.w3.org/2000/svg">
<rect width="70" height="70" fill="white"/>
<g clip-path="url(#clip0_1278_32064)">
<path d="M18.4658 13.7201C12.947 22.8454 16.0235 34.6287 25.339 40.0359C34.652 45.438 46.6736 42.425 52.195 33.2972C57.7113 24.1693 54.6298 12.3861 45.3168 6.98139C36.0038 1.57418 23.9796 4.59227 18.4658 13.7201ZM30.5509 40.9261C20.7383 38.3366 14.9228 28.4454 17.5604 18.828C20.1955 9.21072 30.2897 3.50931 40.1048 6.09371C49.92 8.67812 55.7406 18.5668 53.1004 28.1892C50.4627 37.8091 40.3661 43.5054 30.5509 40.9261Z" fill="#1E358C"/>
<path d="M33.8883 28.3566L33.8452 28.3742C33.8605 28.4351 33.8782 28.496 33.8883 28.5594V28.3566Z" fill="#1E358C"/>
<path d="M33.8886 15.7135C33.5107 11.8483 31.0531 9.18274 27.5227 9.18274C24.1876 9.18274 21.6387 11.4983 21.6387 15.7338C21.6387 18.3765 23.1072 21.2146 24.6466 23.7736C23.7919 23.3424 22.6709 22.6577 21.7148 21.5747C20.4111 24.0551 19.7314 26.2819 19.7314 28.9094C19.7314 29.1884 19.7467 29.4649 19.7644 29.7362C20.1043 33.9793 23.0209 37.0608 27.0865 37.0608C30.1401 37.0608 33.2064 35.2246 33.8886 31.4989V36.196H36.2118V10.2936H33.8886L33.8886 15.7135ZM25.2807 27.725C25.2807 26.8094 25.3644 26.1323 25.6231 25.3613C26.701 27.0935 27.6647 28.6279 27.9995 29.7946C28.0807 30.0761 28.1263 30.3398 28.1263 30.5757C28.1263 31.0753 27.822 31.5572 27.2767 31.5572C26.706 31.5572 26.0847 30.9891 25.689 30.0127C25.4405 29.3989 25.2807 28.6254 25.2807 27.725ZM33.8886 28.5594C33.8785 28.496 33.8607 28.4351 33.8455 28.3743C32.7879 23.6062 27.3857 18.0671 27.3857 14.8537C27.3857 14.3642 27.6241 14.2121 27.8448 14.2121C28.8999 14.2121 29.61 17.92 29.9879 20.091C30.4114 19.2236 30.9745 18.5693 31.5401 18.0823C31.393 14.9476 29.6658 11.7646 27.3984 11.7646C25.8539 11.7646 24.8876 12.8425 24.8876 14.6559C24.8876 19.1501 30.3937 25.0037 31.3321 29.1428C31.4208 29.5283 31.4716 29.8986 31.4716 30.2536C31.4716 32.8837 29.6531 34.5829 27.2412 34.5829C24.9433 34.5829 22.9093 32.8608 22.3361 30.0051C22.2347 29.4877 22.1763 28.9272 22.1763 28.3362C22.1763 26.8145 22.752 25.0518 23.4571 23.8877C22.851 25.625 22.8078 27.1239 22.8078 27.8036C22.8078 28.6203 22.9042 29.3685 23.0741 30.0406C23.7209 32.559 25.448 34.0148 27.3248 34.0148C28.9683 34.0148 30.6904 32.7974 30.6904 30.4717C30.6904 30.1167 30.6346 29.7337 30.5408 29.333C29.5694 25.2598 24.1393 19.2591 24.1393 15.0135C24.1393 12.6929 25.4658 11.1787 27.439 11.1787C29.9929 11.1787 31.8773 13.8443 32.3491 17.4888C33.0871 17.0298 33.7085 16.8345 33.8886 16.7863L33.8886 28.5594Z" fill="#1E358C"/>
<path d="M45.791 10.2911V36.196H48.1142V10.2911H45.791Z" fill="#1E358C"/>
<path d="M41 21.6508C40.3659 21.6508 38.8061 14.8055 38.3877 10.2936H36.7036C37.1804 18.0138 38.7681 23.3069 40.0514 25.2167C40.3989 25.7341 40.7261 26.008 41 26.008C41.5605 26.008 42.3289 24.892 43.0695 22.8301C44.0358 20.1417 44.9565 15.8454 45.2963 10.2936H43.6123C43.1938 14.8055 41.6315 21.6508 41 21.6508Z" fill="#1E358C"/>
<path d="M44.8296 18.3867C44.6369 19.6396 44.3959 20.7885 44.122 21.8081C43.2572 25.0367 42.0626 26.9997 41 26.9997C40.4775 26.9997 39.9195 26.5229 39.3869 25.6555C38.4992 24.1997 37.6724 21.6483 37.1703 18.3867C37.1145 18.1863 36.9521 18.1483 36.9521 18.5287V36.196H39.2271V28.9653C39.7953 30.137 40.3837 30.8725 41 30.8725C41.6163 30.8725 42.2047 30.137 42.7753 28.9653V36.196H45.0477V18.5287C45.0477 18.1483 44.8804 18.1863 44.8296 18.3867Z" fill="#1E358C"/>
<path d="M63.5901 53.3586C63.5901 52.7398 63.3872 51.9282 62.0075 51.3905C61.3683 51.1369 60.8408 50.8325 60.8408 50.1123C60.8408 49.3717 61.2568 48.8847 61.9973 48.8847C62.464 48.8847 62.8596 49.0572 63.1031 49.2094L63.3263 48.621C63.022 48.4079 62.535 48.2456 61.8959 48.2456C60.6785 48.2456 59.9278 49.1485 59.9278 50.2036C59.9278 50.8833 60.2423 51.6036 61.4089 52.0702C62.2814 52.4152 62.6263 52.7905 62.6263 53.4094C62.6263 54.2006 62.1191 54.718 61.3176 54.718C60.7597 54.718 60.364 54.5557 60.1002 54.3934L59.8568 55.0427C60.222 55.276 60.6886 55.4282 61.4799 55.4282C62.7075 55.4282 63.5901 54.576 63.5901 53.3586ZM58.9742 48.976V48.3471H55.2611V48.976H56.651V55.3267H57.5843V48.976H58.9742ZM53.9753 55.3267V48.3471H53.1941V53.2166C53.1941 53.6528 53.2246 53.9876 53.2246 53.9876H53.2043C53.2043 53.9876 53.0623 53.6731 52.8087 53.247L49.958 48.3471H48.9739V55.3267H49.7551V50.2543C49.7551 49.8181 49.7246 49.392 49.7246 49.392H49.7449C49.7449 49.392 49.9376 49.7978 50.1912 50.234L53.1637 55.3267H53.9753ZM47.5231 55.3267V54.6977H45.2203V52.0296H47.2898V51.4108H45.2203V48.976H47.5231V48.3471H44.2869V55.3267H47.5231ZM42.7677 55.3267L41.9359 48.3471H40.9518L39.5112 53.3992C39.3794 53.8557 39.3286 54.1804 39.3286 54.1804H39.3084C39.3084 54.1804 39.2577 53.8557 39.1258 53.3891L37.7258 48.3471H36.7417L35.9098 55.3267H36.7113C36.7214 55.2253 37.2591 50.092 37.2591 50.092C37.2997 49.676 37.3098 49.2804 37.3098 49.2804H37.3301C37.3301 49.2804 37.4112 49.676 37.5228 50.092C37.5228 50.092 38.9533 55.2253 38.9837 55.3267H39.6025C39.6431 55.205 41.0837 50.1021 41.0837 50.1021C41.2054 49.6659 41.2764 49.2804 41.2764 49.2804H41.2967C41.2967 49.2804 41.3068 49.6659 41.3474 50.1021C41.3474 50.1021 41.8749 55.2354 41.8851 55.3267H42.7677ZM35.1692 48.976V48.3471H31.4562V48.976H32.8461V55.3267H33.7794V48.976H35.1692ZM30.6548 53.3586C30.6548 52.7398 30.4519 51.9282 29.0722 51.3905C28.433 51.1369 27.9055 50.8325 27.9055 50.1123C27.9055 49.3717 28.3215 48.8847 29.062 48.8847C29.5287 48.8847 29.9243 49.0572 30.1678 49.2094L30.391 48.621C30.0867 48.4079 29.5997 48.2456 28.9606 48.2456C27.7432 48.2456 26.9925 49.1485 26.9925 50.2036C26.9925 50.8833 27.307 51.6036 28.4736 52.0702C29.3461 52.4152 29.691 52.7905 29.691 53.4094C29.691 54.2006 29.1838 54.718 28.3823 54.718C27.8244 54.718 27.4287 54.5557 27.1649 54.3934L26.9215 55.0427C27.2867 55.276 27.7533 55.4282 28.5446 55.4282C29.7722 55.4282 30.6548 54.576 30.6548 53.3586ZM25.8182 55.3267V54.6977H23.5128V52.0296H25.5849V51.4108H23.5128V48.976H25.8182V48.3471H22.582V55.3267H25.8182ZM21.3849 48.3471H20.5023L19.1936 53.2572C19.082 53.6934 18.9806 54.1702 18.9806 54.1702H18.9603C18.9603 54.1702 18.869 53.6934 18.7574 53.2572L17.469 48.3471H16.4748L18.5443 55.3267H19.3559L21.3849 48.3471ZM15.2473 55.3267V48.3471H14.4661V53.2166C14.4661 53.6528 14.4965 53.9876 14.4965 53.9876H14.4763C14.4763 53.9876 14.3342 53.6731 14.0806 53.247L11.2299 48.3471H10.2459V55.3267H11.027V50.2543C11.027 49.8181 10.9966 49.392 10.9966 49.392H11.0169C11.0169 49.392 11.2096 49.7978 11.4633 50.234L14.4357 55.3267H15.2473ZM8.44006 48.3471H7.50928V55.3267H8.44006V48.3471Z" fill="#1E358C"/>
<path d="M64.7567 65.5223V58.3448H63.9527V63.3539C63.9527 63.8028 63.9832 64.1451 63.9832 64.1451H63.9629C63.9629 64.1451 63.8158 63.823 63.5571 63.3843L60.6227 58.3448H59.6133V65.5223H60.4147V60.3053C60.4147 59.8589 60.3842 59.4202 60.3842 59.4202H60.4045C60.4045 59.4202 60.6023 59.8361 60.8636 60.285L63.9197 65.5223H64.7567ZM57.2749 61.9031C57.2749 63.3538 57.0162 64.9187 55.6593 64.9187C54.3024 64.9187 54.031 63.3538 54.031 61.9031C54.031 60.4524 54.343 58.8774 55.6593 58.8774C56.9629 58.8774 57.2749 60.4524 57.2749 61.9031ZM58.2462 61.9336C58.2462 59.8995 57.5158 58.2408 55.6593 58.2408C53.7926 58.2408 53.0622 59.8995 53.0622 61.9336C53.0622 63.9904 53.7926 65.6288 55.6593 65.6288C57.5158 65.6288 58.2462 63.9904 58.2462 61.9336ZM51.6521 58.3448H50.6934V65.5223H51.6521V58.3448ZM49.547 58.9916V58.3448H45.7275V58.9916H47.1554V65.5223H48.1166V58.9916H49.547ZM43.871 62.801H41.7329L42.5876 60.0771C42.7652 59.514 42.8083 59.2122 42.8083 59.2122H42.8259C42.8259 59.2122 42.8589 59.514 43.0365 60.0771L43.871 62.801ZM45.697 65.5223L43.2749 58.3448H42.4202L39.9905 65.5223H40.8655L41.5655 63.3741H44.0282L44.7054 65.5223H45.697ZM38.2583 60.4119C38.2583 61.4441 37.6953 62.0274 36.5261 62.0274C36.2775 62.0274 36.0163 61.997 35.9123 61.9666V58.9612C36.1 58.8572 36.3714 58.8039 36.7264 58.8039C37.779 58.8039 38.2583 59.3162 38.2583 60.4119ZM39.3742 65.5224L37.0282 62.3622V62.342C38.342 62.3217 39.2094 61.5912 39.2094 60.3688C39.2094 59.0347 38.3724 58.2409 36.7467 58.2409C35.9732 58.2409 35.3366 58.4184 34.9612 58.6264V65.5224H35.9123V62.1746H35.9326L38.2913 65.5224L39.3742 65.5224ZM32.6051 61.9032C32.6051 63.3539 32.3439 64.9187 30.987 64.9187C29.6326 64.9187 29.3613 63.3539 29.3613 61.9032C29.3613 60.4524 29.6732 58.8775 30.987 58.8775C32.2931 58.8775 32.6051 60.4524 32.6051 61.9032ZM33.5739 61.9336C33.5739 59.8996 32.846 58.2409 30.987 58.2409C29.1203 58.2409 28.3899 59.8996 28.3899 61.9336C28.3899 63.9905 29.1203 65.6289 30.987 65.6289C32.846 65.6289 33.5739 63.9905 33.5739 61.9336ZM26.47 60.4018C26.47 61.3503 26.0109 62.0072 24.791 62.0072C24.6769 62.0072 24.5627 61.9971 24.4359 61.9869H24.4055L24.0935 61.9539V58.9511C24.2381 58.8876 24.5196 58.8141 24.9051 58.8141C26.0008 58.8141 26.47 59.3568 26.47 60.4018ZM27.3982 60.4119C27.3982 59.1489 26.6374 58.2409 24.9482 58.2409C24.1848 58.2409 23.5508 58.4083 23.1526 58.6365V65.5224H24.0935V62.5398L24.4156 62.5702C24.5932 62.5931 24.7606 62.5931 24.9153 62.5931C26.6703 62.5931 27.3982 61.5786 27.3982 60.4119ZM20.8167 60.412C20.8167 61.4442 20.2537 62.0275 19.0845 62.0275C18.836 62.0275 18.5747 61.9971 18.4682 61.9667V58.9613C18.6584 58.8573 18.9298 58.804 19.2823 58.804C20.3374 58.804 20.8167 59.3163 20.8167 60.412ZM21.9327 65.5225L19.5867 62.3623V62.3421C20.9004 62.3218 21.7653 61.5914 21.7653 60.3689C21.7653 59.0349 20.9309 58.241 19.3052 58.241C18.5316 58.241 17.895 58.4186 17.5197 58.6265V65.5225H18.4682V62.1747H18.491L20.8472 65.5225L21.9327 65.5225ZM15.1635 61.9033C15.1635 63.354 14.9023 64.9189 13.5454 64.9189C12.1885 64.9189 11.9197 63.354 11.9197 61.9033C11.9197 60.4526 12.2317 58.8776 13.5454 58.8776C14.849 58.8776 15.1635 60.4526 15.1635 61.9033ZM16.1324 61.9338C16.1324 59.8997 15.4045 58.241 13.5454 58.241C11.6788 58.241 10.9483 59.8997 10.9483 61.9338C10.9483 63.9906 11.6788 65.629 13.5454 65.629C15.4045 65.629 16.1324 63.9906 16.1324 61.9338ZM10.3447 65.2308L10.0936 64.6272C9.82225 64.7921 9.53058 64.9087 9.09181 64.9087C7.77805 64.9087 7.24545 63.4885 7.24545 61.9338C7.24545 60.412 7.7248 58.9182 9.10196 58.9182C9.55088 58.9182 9.88566 59.0653 10.1038 59.1997L10.332 58.6367C10.0201 58.4084 9.57116 58.241 8.93458 58.241C7.20234 58.241 6.24365 59.9428 6.24365 61.9338C6.24365 63.9703 7.21502 65.629 8.93458 65.629C9.52044 65.629 10.0302 65.4718 10.3447 65.2308Z" fill="#1E358C"/>
</g>
<defs>
<clipPath id="clip0_1278_32064">
<rect width="59" height="61.9256" fill="white" transform="translate(6 4)"/>
</clipPath>
</defs>
</svg>
