<svg width="70" height="70" viewBox="0 0 70 70" fill="none" xmlns="http://www.w3.org/2000/svg">
<g clip-path="url(#clip0_1278_32445)">
<rect width="70" height="70" fill="white"/>
<path d="M15.0593 40.4216C15.0593 42.3762 15.4881 43.8766 16.049 44.7844C16.7843 45.9735 17.8808 46.4783 18.9987 46.4783C20.4404 46.4783 21.7594 46.1204 24.3013 42.6047C26.3382 39.7869 28.7372 35.8317 30.3517 33.352L33.0859 29.1511C34.9852 26.2336 37.1835 22.9904 39.7041 20.7921C41.7625 18.9977 43.9816 18.0009 46.2156 18.0009C49.9663 18.0009 53.5388 20.1743 56.273 24.2507C59.2653 28.715 60.7177 34.3383 60.7177 40.1411C60.7177 43.591 60.0378 46.1258 58.8806 48.1284C57.7629 50.0649 55.5841 52 51.9189 52V46.4774C55.0572 46.4774 55.8403 43.5936 55.8403 40.2934C55.8403 35.5905 54.7438 30.3715 52.3282 26.6423C50.6142 23.9971 48.3927 22.3808 45.9486 22.3808C43.3052 22.3808 41.178 24.3749 38.7873 27.9292C37.5163 29.8179 36.2116 32.1194 34.7465 34.7165L33.1337 37.5736C29.8944 43.3187 29.0736 44.6266 27.4538 46.7853C24.6148 50.5658 22.1902 51.9991 18.9987 51.9991C15.2124 51.9991 12.8183 50.3595 11.3354 47.8889C10.1251 45.8758 9.53052 43.234 9.53052 40.2241L15.0593 40.4216Z" fill="#0081FB"/>
<path d="M13.8901 24.6397C16.4249 20.7325 20.083 18 24.2786 18C26.7083 18 29.1242 18.7191 31.6461 20.7788C34.4052 23.0301 37.3458 26.7394 41.0146 32.8501L42.33 35.0425C45.5057 40.3328 47.3123 43.0546 48.3698 44.338C49.7296 45.9862 50.682 46.4776 51.9191 46.4776C55.0575 46.4776 55.8405 43.5938 55.8405 40.2936L60.7179 40.1405C60.7179 43.5904 60.038 46.1251 58.8808 48.1277C57.7631 50.0643 55.5843 51.9994 51.9191 51.9994C49.6406 51.9994 47.6221 51.5045 45.3899 49.3986C43.6746 47.7823 41.6677 44.9111 40.1244 42.3301L35.5336 34.6617C33.2304 30.8132 31.1168 27.9437 29.8946 26.6442C28.579 25.2467 26.8879 23.5592 24.1894 23.5592C22.0054 23.5592 20.1505 25.0919 18.5984 27.4362L13.8901 24.6397Z" fill="url(#paint0_linear_1278_32445)"/>
<path d="M24.1892 23.5592C22.0052 23.5592 20.1503 25.0919 18.5982 27.4362C16.4032 30.7489 15.0604 35.6831 15.0604 40.4216C15.0604 42.3762 15.4892 43.8766 16.0501 44.7844L11.3354 47.8889C10.1251 45.8758 9.53052 43.234 9.53052 40.2241C9.53052 34.7504 11.0329 29.0454 13.8899 24.6397C16.4247 20.7325 20.0828 18 24.2783 18L24.1892 23.5592Z" fill="url(#paint1_linear_1278_32445)"/>
</g>
<defs>
<linearGradient id="paint0_linear_1278_32445" x1="20.6269" y1="34.1186" x2="55.8718" y2="35.8986" gradientUnits="userSpaceOnUse">
<stop stop-color="#0064E1"/>
<stop offset="0.4" stop-color="#0064E1"/>
<stop offset="0.83" stop-color="#0073EE"/>
<stop offset="1" stop-color="#0082FB"/>
</linearGradient>
<linearGradient id="paint1_linear_1278_32445" x1="16.9043" y1="42.7428" x2="16.9043" y2="29.7484" gradientUnits="userSpaceOnUse">
<stop stop-color="#0082FB"/>
<stop offset="1" stop-color="#0064E0"/>
</linearGradient>
<clipPath id="clip0_1278_32445">
<rect width="70" height="70" fill="white"/>
</clipPath>
</defs>
</svg>
