<svg width="70" height="70" viewBox="0 0 70 70" fill="none" xmlns="http://www.w3.org/2000/svg">
<g clip-path="url(#clip0_1278_32315)">
<rect width="70" height="70" fill="white"/>
<path opacity="0.951" fill-rule="evenodd" clip-rule="evenodd" d="M5 42.9912C5 37.6786 5 32.3663 5 27.0537C5.34256 26.8293 5.65506 26.5558 5.9375 26.2334C9.45312 26.0771 12.9687 26.0771 16.4844 26.2334C19.7148 27.5771 20.9258 29.96 20.1172 33.3818C19.8437 33.9286 19.5703 34.4757 19.2969 35.0225C21.0711 37.8987 20.7586 40.516 18.3594 42.874C17.7997 43.3102 17.1747 43.6226 16.4844 43.8115C12.9687 43.9678 9.45312 43.9678 5.9375 43.8115C5.65506 43.489 5.34256 43.2157 5 42.9912ZM8.98437 30.1006C11.1733 30.0617 13.3608 30.1006 15.5469 30.2178C16.7816 31.0976 16.7816 31.9571 15.5469 32.7959C13.3608 32.9131 11.1733 32.952 8.98437 32.9131C8.98437 31.9756 8.98437 31.0381 8.98437 30.1006ZM8.98437 37.1318C11.1733 37.0929 13.3608 37.1318 15.5469 37.249C16.7816 38.0878 16.7816 38.9473 15.5469 39.8271C13.3608 39.9443 11.1733 39.9832 8.98437 39.9443C8.98437 39.0068 8.98437 38.0693 8.98437 37.1318Z" fill="#62A7D5"/>
<path opacity="0.901" fill-rule="evenodd" clip-rule="evenodd" d="M23.2813 26.1162C24.8092 25.7375 25.7857 26.2844 26.2109 27.7568C26.3672 32.6007 26.3672 37.4442 26.2109 42.2881C25.59 43.9399 24.4572 44.3696 22.8125 43.5771C22.5875 43.2446 22.3922 42.893 22.2266 42.5224C22.0703 37.5225 22.0703 32.5224 22.2266 27.5225C22.415 26.9023 22.7666 26.4336 23.2813 26.1162Z" fill="#62A7D5"/>
<path opacity="0.938" fill-rule="evenodd" clip-rule="evenodd" d="M34.9998 26.1163C37.5255 25.7752 39.8692 26.2439 42.0311 27.5226C43.0056 28.7134 42.9276 29.8462 41.7967 30.921C41.1716 31.0773 40.5468 31.0773 39.9217 30.921C35.6221 29.1254 32.9657 30.4926 31.953 35.0226C32.9657 39.5525 35.6221 40.9197 39.9217 39.1241C40.5559 38.5684 41.1027 37.9436 41.5623 37.2491C40.2149 37.2144 38.8869 37.0583 37.578 36.7804C36.328 35.6085 36.328 34.4366 37.578 33.2647C40.078 32.796 42.5779 32.796 45.078 33.2647C45.441 33.5493 45.7143 33.9008 45.8983 34.3194C46.1144 38.8513 44.1222 41.9373 39.9217 43.5772C34.2426 44.8445 30.3754 42.7743 28.3202 37.3663C27.382 31.7092 29.6085 27.9591 34.9998 26.1163Z" fill="#62A7D5"/>
<path opacity="0.939" fill-rule="evenodd" clip-rule="evenodd" d="M65.0002 32.9131C65.0002 34.3194 65.0002 35.7256 65.0002 37.1319C63.1869 42.3385 59.5149 44.5651 53.9846 43.8116C48.1559 41.6466 46.0857 37.5451 47.7737 31.5069C49.9473 27.2364 53.4238 25.4786 58.2034 26.2335C61.6836 27.2529 63.9491 29.4795 65.0002 32.9131ZM54.9221 30.1006C57.7871 29.7945 59.7793 30.9664 60.8987 33.6163C61.3918 36.5755 60.2588 38.6457 57.5002 39.8272C54.4105 40.3337 52.34 39.1229 51.2893 36.1944C50.8838 33.1747 52.0946 31.1434 54.9221 30.1006Z" fill="#62A7D5"/>
<path opacity="0.872" fill-rule="evenodd" clip-rule="evenodd" d="M55.156 32.9131C56.1678 33.2557 57.1053 33.7634 57.9685 34.4365C58.2931 35.0424 58.1368 35.5111 57.4998 35.8428C56.7967 36.2724 56.0935 36.7022 55.3904 37.1318C55.2531 37.0828 55.1359 37.0046 55.0388 36.8975C54.8549 35.55 54.894 34.2218 55.156 32.9131Z" fill="#62A7D5"/>
</g>
<defs>
<clipPath id="clip0_1278_32315">
<rect width="70" height="70" fill="white"/>
</clipPath>
</defs>
</svg>
