<svg width="70" height="70" viewBox="0 0 70 70" fill="none" xmlns="http://www.w3.org/2000/svg">
<g clip-path="url(#clip0_1278_32073)">
<g clip-path="url(#clip1_1278_32073)">
<path d="M70 0H0V70H70V0Z" fill="#F26721"/>
<path d="M63.0435 7.05189C63.2763 6.88258 63.4562 7.1683 63.2446 7.32703C60.8636 9.67629 58.4402 11.9832 55.964 14.2372C54.6412 15.433 53.3184 16.6076 51.9216 17.7082C51.4877 18.0363 51.3819 18.5971 51.1491 19.0627C49.4348 23.3485 47.8898 27.7084 46.0379 31.9413C45.35 33.571 44.4294 35.1266 43.2442 36.4493C41.932 37.9309 40.3552 39.1584 38.715 40.2695C36.6408 41.6664 34.4609 42.8939 32.2704 44.1003C30.4291 45.1691 29.0428 46.8411 27.8153 48.5343C25.3073 52.037 23.3813 55.8995 20.9156 59.4234C19.995 60.7356 18.9791 61.9949 17.7833 63.0637C17.6457 63.1695 17.5187 63.3176 17.3283 63.2753C17.1589 63.1695 17.2965 62.9684 17.3388 62.8309C21.2754 53.9947 25.2014 45.1585 29.1275 36.3224C28.6407 36.1848 28.1962 35.952 27.7835 35.6663C26.5983 34.8726 25.5295 33.9202 24.4607 32.9678C23.54 32.1212 22.63 31.264 21.7516 30.3857C21.4342 30.0683 21.0744 29.7719 20.8098 29.391C21.3813 29.4862 21.921 29.7085 22.4712 29.8778C27.519 31.5286 32.5561 33.19 37.6144 34.8408C37.2546 34.2165 36.8842 33.5921 36.5139 32.9678C36.3974 32.7561 36.1964 32.6186 35.9742 32.5551C30.1116 30.6291 24.2385 28.7031 18.3759 26.7878C17.9949 26.6714 17.7727 26.3327 17.5082 26.0682C17.0743 25.5814 16.5663 25.1475 16.1854 24.6184C22.5559 26.6608 28.8946 28.7878 35.2546 30.8408C34.8842 30.1952 34.5032 29.5603 34.1223 28.9148C33.9635 28.5973 33.5826 28.555 33.2863 28.4492C26.884 26.3539 20.4924 24.248 14.0901 22.1633C13.762 22.0681 13.5081 21.8459 13.2964 21.5919C12.8202 21.0522 12.3123 20.5548 11.8678 19.994C12.0266 20.0363 12.1853 20.068 12.3546 20.121C19.2013 22.3538 26.0269 24.6184 32.8736 26.8407C32.5032 26.2057 32.1328 25.5708 31.7518 24.9359C31.6566 24.7454 31.4767 24.6184 31.2756 24.5655C24.1538 22.2268 17.032 19.8881 9.89953 17.5601C9.65614 17.486 9.4445 17.359 9.27518 17.1579C8.6085 16.4172 7.94182 15.6658 7.27514 14.9251C7.13757 14.7875 7.05291 14.6076 7 14.4171C7.59261 14.5441 8.16405 14.7663 8.74607 14.9568C18.6934 18.2373 28.6301 21.5284 38.588 24.7877C38.0694 22.8512 38.207 20.6712 39.297 18.9463C40.2388 17.4225 41.8261 16.4278 43.477 15.8457C45.5934 15.0944 47.8686 14.8722 50.1014 14.8616C50.5353 14.8827 50.9057 14.6288 51.2655 14.4277C55.255 12.0573 59.1281 9.50697 63.0435 7.05189Z" fill="white"/>
</g>
</g>
<defs>
<clipPath id="clip0_1278_32073">
<rect width="70" height="70" fill="white"/>
</clipPath>
<clipPath id="clip1_1278_32073">
<rect width="70" height="70" fill="white"/>
</clipPath>
</defs>
</svg>
