<svg width="16" height="15" viewBox="0 0 16 15" fill="none" xmlns="http://www.w3.org/2000/svg">
<path d="M10.2043 7.48147L15.5489 2.31604C15.7838 2.08908 15.9157 1.78124 15.9157 1.46026C15.9157 1.13928 15.7838 0.831445 15.5489 0.604477C15.3141 0.377509 14.9956 0.25 14.6634 0.25C14.3313 0.25 14.0128 0.377509 13.778 0.604477L8.43342 5.7699L3.08885 0.604477C2.97257 0.492094 2.83452 0.402947 2.68259 0.342126C2.53066 0.281305 2.36783 0.25 2.20338 0.25C2.03894 0.25 1.8761 0.281305 1.72417 0.342126C1.57225 0.402947 1.4342 0.492094 1.31792 0.604477C1.20164 0.71686 1.1094 0.850278 1.04647 0.997114C0.983538 1.14395 0.951148 1.30133 0.951148 1.46026C0.951148 1.61919 0.983538 1.77657 1.04647 1.92341C1.1094 2.07024 1.20164 2.20366 1.31792 2.31604L6.66623 7.48147L1.32166 12.6469C1.19728 12.7572 1.09726 12.8906 1.0276 13.0392C0.957946 13.1878 0.920096 13.3485 0.916328 13.5115C0.912559 13.6746 0.94295 13.8368 1.00567 13.9882C1.06839 14.1397 1.16215 14.2773 1.28131 14.3928C1.40047 14.5083 1.54257 14.5994 1.69907 14.6605C1.85557 14.7216 2.02324 14.7515 2.19199 14.7484C2.36075 14.7452 2.52711 14.7092 2.68107 14.6423C2.83503 14.5755 2.97342 14.4792 3.08791 14.3594L8.43248 9.19394L13.778 14.3594C13.8943 14.4717 14.0324 14.5609 14.1844 14.6217C14.3364 14.6825 14.4993 14.7137 14.6638 14.7137C14.8283 14.7137 14.9911 14.6823 15.1431 14.6214C15.295 14.5606 15.4331 14.4713 15.5494 14.3589C15.6657 14.2465 15.7579 14.113 15.8208 13.9661C15.8837 13.8192 15.9161 13.6618 15.916 13.5028C15.916 13.3438 15.8835 13.1864 15.8205 13.0396C15.7576 12.8927 15.6653 12.7593 15.5489 12.6469L10.2043 7.48147Z" fill="#F0F0F0"/>
</svg>
