<svg width="32" height="32" viewBox="0 0 32 32" fill="none" xmlns="http://www.w3.org/2000/svg">
<path d="M5.67534 22.127C4.18645 19.6151 3.66565 16.646 4.21072 13.7772C4.75579 10.9085 6.32924 8.33732 8.63569 6.54646C10.9421 4.75559 13.823 3.86819 16.7373 4.05083C19.6517 4.23347 22.3992 5.47361 24.464 7.53842C26.5288 9.60322 27.7689 12.3507 27.9516 15.2651C28.1342 18.1794 27.2468 21.0603 25.4559 23.3667C23.6651 25.6731 21.0939 27.2466 18.2252 27.7917C15.3564 28.3367 12.3873 27.8159 9.87534 26.3271L5.72534 27.5021C5.55531 27.5518 5.37503 27.5549 5.20341 27.511C5.03178 27.4671 4.87513 27.3778 4.74986 27.2525C4.6246 27.1273 4.53534 26.9706 4.49144 26.799C4.44753 26.6274 4.45061 26.4471 4.50034 26.277L5.67534 22.127Z" fill="#136FD3" stroke="#136FD3" stroke-width="1.5" stroke-linecap="round" stroke-linejoin="round"/>
<path d="M17.4375 16C17.4375 16.7939 16.7939 17.4375 16 17.4375C15.2061 17.4375 14.5625 16.7939 14.5625 16C14.5625 15.2061 15.2061 14.5625 16 14.5625C16.7939 14.5625 17.4375 15.2061 17.4375 16Z" fill="white" stroke="white" stroke-width="0.125"/>
<path d="M11.4375 16C11.4375 16.7939 10.7939 17.4375 10 17.4375C9.20609 17.4375 8.5625 16.7939 8.5625 16C8.5625 15.2061 9.20609 14.5625 10 14.5625C10.7939 14.5625 11.4375 15.2061 11.4375 16Z" fill="white" stroke="white" stroke-width="0.125"/>
<path d="M23.4375 16C23.4375 16.7939 22.7939 17.4375 22 17.4375C21.2061 17.4375 20.5625 16.7939 20.5625 16C20.5625 15.2061 21.2061 14.5625 22 14.5625C22.7939 14.5625 23.4375 15.2061 23.4375 16Z" fill="white" stroke="white" stroke-width="0.125"/>
</svg>
