<svg width="26" height="26" viewBox="0 0 26 26" fill="none" xmlns="http://www.w3.org/2000/svg">
<path d="M2.67708 19.1185C1.18664 16.6039 0.665302 13.6318 1.21094 10.76C1.75658 7.8883 3.33167 5.31446 5.64051 3.52174C7.94936 1.72901 10.8332 0.840677 13.7506 1.02351C16.668 1.20634 19.4183 2.44777 21.4853 4.51473C23.5522 6.58169 24.7937 9.33203 24.9765 12.2494C25.1593 15.1668 24.271 18.0506 22.4783 20.3595C20.6855 22.6683 18.1117 24.2434 15.24 24.7891C12.3682 25.3347 9.39606 24.8134 6.88145 23.3229L2.72713 24.4991C2.55693 24.5489 2.37647 24.552 2.20466 24.5081C2.03286 24.4641 1.87604 24.3748 1.75064 24.2494C1.62525 24.124 1.53589 23.9671 1.49195 23.7953C1.448 23.6235 1.45108 23.4431 1.50086 23.2729L2.67708 19.1185Z" 
fill="white" 
stroke="#136FD3" 
strokeWidth="1.5" 
strokeLinecap="round" 
strokeLinejoin="round"
/>
<path d="M14.4562 12.9913C14.4562 13.7861 13.812 14.4304 13.0172 14.4304C12.2224 14.4304 11.5781 13.7861 11.5781 12.9913C11.5781 12.1965 12.2224 11.5522 13.0172 11.5522C13.812 11.5522 14.4562 12.1965 14.4562 12.9913Z" fill="#136FD3" stroke="#136FD3" strokeWidth="0.125"/>
<path d="M8.45039 12.9913C8.45039 13.7861 7.8061 14.4304 7.01133 14.4304C6.21656 14.4304 5.57227 13.7861 5.57227 12.9913C5.57227 12.1965 6.21656 11.5522 7.01133 11.5522C7.8061 11.5522 8.45039 12.1965 8.45039 12.9913Z" fill="#136FD3" stroke="#136FD3" strokeWidth="0.125"/>
<path d="M20.4602 12.9886C20.4602 13.7834 19.8159 14.4277 19.0211 14.4277C18.2263 14.4277 17.582 13.7834 17.582 12.9886C17.582 12.1939 18.2263 11.5496 19.0211 11.5496C19.8159 11.5496 20.4602 12.1939 20.4602 12.9886Z" fill="#136FD3" stroke="#136FD3" strokeWidth="0.125"/>
</svg>
