<svg width="32" height="32" viewBox="0 0 32 32" fill="none" xmlns="http://www.w3.org/2000/svg">
<path fill-rule="evenodd" clip-rule="evenodd" d="M7.87793 9.49981C7.87793 5.8626 10.8265 2.91406 14.4637 2.91406C18.1009 2.91406 21.0494 5.8626 21.0494 9.49981C21.0494 11.8191 19.8505 13.8584 18.0387 15.0317C19.37 15.3921 20.6208 15.9487 21.7577 16.6686C22.4294 16.4035 23.1614 16.2578 23.9274 16.2578C27.1932 16.2578 29.8406 18.9053 29.8406 22.171C29.8406 25.4368 27.1932 28.0843 23.9274 28.0843C20.6616 28.0843 18.0142 25.4368 18.0142 22.171C18.0142 20.4815 18.7227 18.9575 19.8588 17.88C18.246 17.0358 16.4112 16.5586 14.4636 16.5586C8.96874 16.5586 4.35998 20.3631 3.13237 25.4829L1.1875 25.0166C2.34955 20.1702 6.09551 16.3285 10.8884 15.0315C9.07668 13.8581 7.87793 11.819 7.87793 9.49981ZM14.4637 4.91406C11.931 4.91406 9.87793 6.96717 9.87793 9.49981C9.87793 12.0324 11.931 14.0856 14.4637 14.0856C16.9963 14.0856 19.0494 12.0324 19.0494 9.49981C19.0494 6.96717 16.9963 4.91406 14.4637 4.91406ZM23.4212 25.8669C23.1875 25.8669 22.9851 25.6457 22.8132 25.204L20.7864 19.9734H22.3458L23.7175 23.559L25.9941 19.9727H27.5535L24.1932 25.2116C23.9129 25.6484 23.6556 25.8669 23.4212 25.8669Z" fill="black"/>
</svg>
