<svg width="22" height="22" viewBox="0 0 22 22" fill="none" xmlns="http://www.w3.org/2000/svg">
<g id="Birthday">
<path id="Union" fill-rule="evenodd" clip-rule="evenodd" d="M11.9154 5.4974C11.9154 5.79648 11.7953 5.99997 11.6065 6.15774C11.3819 6.3455 11.1173 6.41406 10.9987 6.41406C10.8801 6.41406 10.6155 6.3455 10.3909 6.15774C10.2021 5.99997 10.082 5.79648 10.082 5.4974C10.082 5.11821 10.2723 4.59859 10.6098 4.14771C10.7495 3.96113 10.8873 3.82378 10.9987 3.73613C11.1101 3.82378 11.2479 3.96113 11.3876 4.14771C11.7251 4.59859 11.9154 5.11821 11.9154 5.4974ZM11.1406 3.64399C11.1406 3.64407 11.139 3.64481 11.1357 3.64596C11.139 3.64448 11.1406 3.64391 11.1406 3.64399ZM10.8617 3.64596C10.8584 3.64481 10.8568 3.64407 10.8568 3.64399C10.8568 3.64391 10.8584 3.64448 10.8617 3.64596ZM13.2904 5.4974C13.2904 7.01618 11.9154 7.78906 10.9987 7.78906C10.082 7.78906 8.70703 7.01618 8.70703 5.4974C8.70703 3.97861 10.082 2.28906 10.9987 2.28906C11.9154 2.28906 13.2904 3.97861 13.2904 5.4974ZM5.72656 10.9974C5.72656 9.60518 6.85518 8.47656 8.2474 8.47656H13.7474C15.1396 8.47656 16.2682 9.60518 16.2682 10.9974V12.9174C17.4543 13.2226 18.3307 14.2993 18.3307 15.5807V20.1641H3.66406V15.5807C3.66406 14.2993 4.54047 13.2226 5.72656 12.9174V10.9974ZM14.8932 10.9974V12.8307H7.10156V10.9974C7.10156 10.3646 7.61457 9.85156 8.2474 9.85156H13.7474C14.3802 9.85156 14.8932 10.3646 14.8932 10.9974ZM15.5807 14.2057H6.41406C5.65467 14.2057 5.03906 14.8213 5.03906 15.5807V18.7891H16.9557V15.5807C16.9557 14.8213 16.3401 14.2057 15.5807 14.2057Z" fill="black"/>
</g>
</svg>
