<svg width="24" height="24" viewBox="0 0 24 24" fill="none" xmlns="http://www.w3.org/2000/svg">
<rect width="24" height="24" rx="12" fill="#2378E5"/>
<path fill-rule="evenodd" clip-rule="evenodd" d="M13.5375 6.45849L12.4138 7.85054L15.8281 10.4379L16.8297 9.17284C17.0173 8.98905 17.1236 8.73794 17.125 8.47537C17.1265 8.2128 17.0229 7.96054 16.8374 7.7747L14.928 6.18535C14.4661 5.88938 13.8531 6.00981 13.5375 6.45849ZM7.14437 14.4302L11.9844 8.34388L15.4013 10.9046L10.44 17.1386C10.3554 17.2412 10.2403 17.3141 10.1114 17.3469L7.55067 17.9538C7.20751 17.965 6.91413 17.7089 6.87891 17.3674L6.99841 14.787C7.00699 14.6554 7.05823 14.5301 7.14437 14.4302Z" fill="white"/>
</svg>
