<svg width="22" height="22" viewBox="0 0 22 22" fill="none" xmlns="http://www.w3.org/2000/svg">
<g id="Working since">
<path id="Union" fill-rule="evenodd" clip-rule="evenodd" d="M8.30394 4.5H13.6961C14.1401 4.5 14.5 4.85994 14.5 5.30394V6H7.5V5.30394C7.5 4.85994 7.85994 4.5 8.30394 4.5ZM6 6V5.30394C6 4.03151 7.03151 3 8.30394 3H13.6961C14.9685 3 16 4.03151 16 5.30394V6H17.6961C18.9685 6 20 7.03151 20 8.30394V11.0914V11.8414V12.5914V17.6961C20 18.9685 18.9685 20 17.6961 20H4.30394C3.03151 20 2 18.9685 2 17.6961V12.5914V11.8414V11.0914V8.30394C2 7.03151 3.03151 6 4.30394 6H6ZM16 7.5H14.5H7.5H6H4.30394C3.85994 7.5 3.5 7.85994 3.5 8.30394V11.0914H10.2404V9.71724C10.2404 9.30303 10.5762 8.96724 10.9904 8.96724C11.4046 8.96724 11.7404 9.30303 11.7404 9.71724V11.0914H18.5V8.30394C18.5 7.85994 18.1401 7.5 17.6961 7.5H16ZM3.5 12.5914H10.2404V13.9655C10.2404 14.3797 10.5762 14.7155 10.9904 14.7155C11.4046 14.7155 11.7404 14.3797 11.7404 13.9655V12.5914H18.5V17.6961C18.5 18.1401 18.1401 18.5 17.6961 18.5H4.30394C3.85994 18.5 3.5 18.1401 3.5 17.6961V12.5914Z" fill="#121212"/>
</g>
</svg>
