<svg width="22" height="22" viewBox="0 0 22 22" fill="none" xmlns="http://www.w3.org/2000/svg">
<g id="Icons" clip-path="url(#clip0_1134_3443)">
<path id="Vector" d="M10.9998 11C9.9915 11 9.1665 10.175 9.1665 9.16668C9.1665 8.15834 9.9915 7.33334 10.9998 7.33334C12.0082 7.33334 12.8332 8.15834 12.8332 9.16668C12.8332 10.175 12.0082 11 10.9998 11ZM16.4998 9.35001C16.4998 6.02251 14.0707 3.66668 10.9998 3.66668C7.929 3.66668 5.49984 6.02251 5.49984 9.35001C5.49984 11.495 7.28734 14.3367 10.9998 17.7283C14.7123 14.3367 16.4998 11.495 16.4998 9.35001ZM10.9998 1.83334C14.8498 1.83334 18.3332 4.78501 18.3332 9.35001C18.3332 12.3252 15.994 15.8348 11.3243 19.8874C11.1387 20.0485 10.861 20.0485 10.6753 19.8874C6.00563 15.8348 3.6665 12.3252 3.6665 9.35001C3.6665 4.78501 7.14984 1.83334 10.9998 1.83334Z" fill="#353535"/>
</g>
<defs>
<clipPath id="clip0_1134_3443">
<rect width="22" height="22" fill="white"/>
</clipPath>
</defs>
</svg>
