<svg width="32" height="32" viewBox="0 0 32 32" fill="none" xmlns="http://www.w3.org/2000/svg">
<path fill-rule="evenodd" clip-rule="evenodd" d="M2.88977 15.9989C2.88977 8.7587 8.75932 2.88928 15.9998 2.88928C23.2403 2.88928 29.1099 8.7587 29.1099 15.9989C29.1099 23.2392 23.2403 29.1086 15.9998 29.1086C8.75932 29.1086 2.88977 23.2392 2.88977 15.9989ZM15.9998 1.10938C7.77635 1.10938 1.10986 7.77564 1.10986 15.9989C1.10986 24.2223 7.77635 30.8885 15.9998 30.8885C24.2233 30.8885 30.8898 24.2223 30.8898 15.9989C30.8898 7.77564 24.2233 1.10938 15.9998 1.10938ZM17.6606 10.4106C17.6606 9.02317 18.7854 7.89844 20.1729 7.89844C21.5603 7.89844 22.6851 9.02317 22.6851 10.4106C22.6851 11.7981 21.5603 12.9228 20.1729 12.9228C19.5703 12.9228 19.0172 12.7107 18.5843 12.3569L13.8524 15.0889C13.9317 15.3805 13.974 15.6873 13.974 16.004C13.974 16.3185 13.9322 16.6233 13.854 16.9132L18.5842 19.6441C19.0171 19.2903 19.5702 19.0781 20.1729 19.0781C21.5603 19.0781 22.6851 20.2029 22.6851 21.5903C22.6851 22.9778 21.5603 24.1025 20.1729 24.1025C18.7854 24.1025 17.6606 22.9778 17.6606 21.5903C17.6606 21.4523 17.6718 21.3169 17.6932 21.1849L12.9646 18.4549C12.334 19.0908 11.4596 19.4846 10.4933 19.4846C8.57104 19.4846 7.0127 17.9263 7.0127 16.004C7.0127 14.0817 8.57104 12.5234 10.4933 12.5234C11.4574 12.5234 12.33 12.9154 12.9603 13.5487L17.6932 10.8162C17.6718 10.6842 17.6606 10.5487 17.6606 10.4106Z" fill="black"/>
</svg>
