<svg width="16" height="21" viewBox="0 0 16 21" fill="none" xmlns="http://www.w3.org/2000/svg">
    <path d="M13.0318 11.136C13.01 8.60926 15.0156 7.38002 15.1073 7.32279C13.9714 5.59573 12.2109 5.35976 11.5923 5.34094C10.1136 5.17866 8.67937 6.26366 7.92615 6.26366C7.1579 6.26366 5.998 5.35662 4.7479 5.38328C3.13923 5.40915 1.6343 6.38047 0.808917 7.88881C-0.894469 10.9643 0.375929 15.4838 2.0079 17.9697C2.82426 19.1872 3.77819 20.5466 5.02679 20.4988C6.24833 20.4462 6.70462 19.6866 8.17873 19.6866C9.63931 19.6866 10.0678 20.4988 11.3412 20.4682C12.6522 20.4462 13.4776 19.2452 14.2654 18.0168C15.2088 16.6213 15.5876 15.247 15.6027 15.1765C15.5718 15.1655 13.0566 14.1644 13.0318 11.136Z" fill="white"/>
    <path d="M10.6263 3.70561C11.2833 2.84874 11.7328 1.68299 11.6081 0.5C10.6571 0.543902 9.46792 1.18596 8.78311 2.02402C8.17723 2.7625 7.63599 3.97293 7.77581 5.11124C8.844 5.19434 9.94075 4.54914 10.6263 3.70561Z" fill="white"/>
</svg>
