<svg width="19" height="19" viewBox="0 0 19 19" fill="none" xmlns="http://www.w3.org/2000/svg">
    <path d="M0.932298 0.664947C0.723421 0.882975 0.602539 1.22242 0.602539 1.66202V17.3423C0.602539 17.7819 0.723421 18.1213 0.932298 18.3393L0.983851 18.3872L9.79581 9.60407V9.39668L0.983851 0.613544L0.932298 0.664947Z" fill="#136FD3"/>
    <path d="M14.0064 12.8711L11.0205 9.91144V9.70189L14.01 6.74224L14.077 6.78075L17.6173 8.77504C18.6277 9.34101 18.6277 10.2723 17.6173 10.8419L14.077 12.8326L14.0064 12.8711Z" fill="#136FD3"/>
    <path d="M13.4725 13.2367L10.3702 10.4191L1.21484 18.7351C1.55546 19.0603 2.11092 19.0995 2.74258 18.7743L13.4725 13.2367Z" fill="#136FD3"/>
    <path d="M13.4725 6.17376L2.74258 0.238645C2.11092 -0.106326 1.55546 -0.0643234 1.21484 0.284223L10.3702 9.1936L13.4725 6.17376Z" fill="#136FD3"/>
</svg>
