<svg width="27" height="28" viewBox="0 0 27 28" fill="none" xmlns="http://www.w3.org/2000/svg">
<g clip-path="url(#clip0_2_13340)">
<path d="M23.2565 19.6965C22.7716 19.6965 22.306 19.7935 21.8793 19.9487L19.7457 17.8151C20.5409 16.6319 20.9871 15.2159 20.9871 13.6836C20.9871 12.1513 20.5216 10.7353 19.7457 9.55213L21.8793 7.41851C22.306 7.59308 22.7716 7.67066 23.2565 7.67066C25.3319 7.67066 27 5.98316 27 3.92713C27 1.87109 25.3319 0.183594 23.2565 0.183594C21.181 0.183594 19.5129 1.87109 19.5129 3.92713C19.5129 4.41204 19.6099 4.87756 19.7651 5.30428L17.6315 7.4379C16.4483 6.64265 15.0323 6.19652 13.5 6.19652C11.9677 6.19652 10.5517 6.66204 9.36853 7.4379L7.25431 5.30428C7.42888 4.87756 7.50647 4.41204 7.50647 3.92713C7.50647 1.8517 5.81897 0.183594 3.76293 0.183594C1.6875 0.183594 0 1.87109 0 3.94652C0 6.02196 1.6875 7.69006 3.74353 7.69006C4.22845 7.69006 4.69397 7.59308 5.12069 7.4379L7.25431 9.57153C6.45905 10.7547 6.01293 12.1707 6.01293 13.703C6.01293 15.2353 6.47845 16.6513 7.25431 17.8345L5.12069 19.9487C4.69397 19.7741 4.22845 19.6965 3.74353 19.6965C1.6681 19.6965 0 21.384 0 23.4401C0 25.4961 1.6875 27.1836 3.76293 27.1836C5.83836 27.1836 7.50647 25.4961 7.50647 23.4401C7.50647 22.9551 7.40948 22.4896 7.25431 22.0629L9.38793 19.9293C10.5711 20.7245 11.9871 21.1707 13.5194 21.1707C15.0517 21.1707 16.4677 20.7051 17.6509 19.9293L19.7845 22.0629C19.6099 22.4896 19.5323 22.9551 19.5323 23.4401C19.5323 25.5155 21.2198 27.1836 23.2759 27.1836C25.3319 27.1836 27.0194 25.4961 27.0194 23.4401C27.0194 21.384 25.3319 19.6965 23.2759 19.6965H23.2565ZM23.2565 3.19006C23.6638 3.19006 24.0129 3.5198 24.0129 3.94652C24.0129 4.37325 23.6832 4.70299 23.2565 4.70299C22.8297 4.70299 22.5 4.37325 22.5 3.94652C22.5 3.5198 22.8297 3.19006 23.2565 3.19006ZM3.00647 3.94652C3.00647 3.5392 3.33621 3.19006 3.76293 3.19006C4.18966 3.19006 4.5194 3.5198 4.5194 3.94652C4.5194 4.37325 4.18966 4.70299 3.76293 4.70299C3.33621 4.70299 3.00647 4.37325 3.00647 3.94652ZM3.76293 24.1965C3.3556 24.1965 3.00647 23.8668 3.00647 23.4401C3.00647 23.0133 3.33621 22.6836 3.76293 22.6836C4.18966 22.6836 4.5194 23.0133 4.5194 23.4401C4.5194 23.8668 4.18966 24.1965 3.76293 24.1965ZM13.5194 18.203C11.0366 18.203 9.0194 16.1857 9.0194 13.703C9.0194 11.2202 11.0366 9.20299 13.5194 9.20299C16.0022 9.20299 18.0194 11.2202 18.0194 13.703C18.0194 16.1857 16.0022 18.203 13.5194 18.203ZM23.2759 24.1965C22.8685 24.1965 22.5194 23.8668 22.5194 23.4401C22.5194 23.0133 22.8491 22.6836 23.2759 22.6836C23.7026 22.6836 24.0323 23.0133 24.0323 23.4401C24.0323 23.8668 23.7026 24.1965 23.2759 24.1965Z" fill="#1D66FF"/>
</g>
<defs>
<clipPath id="clip0_2_13340">
<rect width="27" height="27" fill="white" transform="translate(0 0.183594)"/>
</clipPath>
</defs>
</svg>
