<svg xmlns="http://www.w3.org/2000/svg" width="2000" height="1750"><g filter="url(#a)"><g filter="url(#b)"><path fill="#2378E5" d="M-1000-875h4000v3500h-4000z"/><path d="m1241.641-322.707-273 1414 940 393 725-828" fill="#fff"/><path d="m813.77-558.927-800 658 382 862 1289-814M1710 432 805 1849l457 400 1275-306" fill="#2378E5"/><path d="M1194 448-499 2058l1588 68 125-811" fill="#2378E5"/><path d="M1792 1290 127 2896l337 172 1385-1204" fill="#fff"/><path d="M1668 1395 966 2538l658 507 1069-1341" fill="#fff"/></g></g><path fill="#fff" filter="url(#c)" d="M0 0h2000v1750H0z"/><defs><filter id="a"><feComponentTransfer><feFuncR type="linear" slope="1.25"/><feFuncG type="linear" slope="1.25"/><feFuncB type="linear" slope="1.25"/></feComponentTransfer></filter><filter id="c" x="-800" y="-700" width="2800" height="2450" filterUnits="userSpaceOnUse" primitiveUnits="userSpaceOnUse" color-interpolation-filters="linearRGB"><feTurbulence type="fractalNoise" baseFrequency=".115" numOctaves="4" seed="15" stitchTiles="no-stitch" x="0" y="0" width="2000" height="1750" result="turbulence"/><feSpecularLighting surfaceScale="10" specularConstant=".19" specularExponent="20" lighting-color="#fff" x="0" y="0" width="2000" height="1750" in="turbulence" result="specularLighting"><feDistantLight azimuth="3" elevation="100"/></feSpecularLighting></filter><filter id="b" x="-200" y="-200" width="2400" height="2150" filterUnits="userSpaceOnUse" color-interpolation-filters="sRGB"><feFlood flood-opacity="0" result="BackgroundImageFix"/><feBlend in="SourceGraphic" in2="BackgroundImageFix" result="shape"/><feGaussianBlur stdDeviation="200" result="effect1_foregroundBlur_1_2"/></filter></defs></svg>