<svg xmlns="http://www.w3.org/2000/svg" width="2000" height="1750"><g filter="url(#a)"><g filter="url(#b)"><path d="M-1000-875h4000v3500h-4000z"/><path d="m1068.419-614.78-1318 1237 1413 419 305-253"/><path d="m76.812 52.756-855 1256 1446 594 286-509" fill="#2378E5"/><path d="m925.017 993.195-363 551 121 1057 1506-257"/><path d="m1000.718 783.537-936 623 663 1040 1000-1281"/><path d="m2713.598 1573.39-189 1535 1273 216 472-1603" fill="#2378E5"/><path d="m2227.111 868.244-118 877 365 719 1280-757" fill="#2378E5"/></g></g><path fill="#fff" filter="url(#c)" d="M0 0h2000v1750H0z"/><defs><filter id="a"><feComponentTransfer><feFuncR type="linear" slope="1.25"/><feFuncG type="linear" slope="1.25"/><feFuncB type="linear" slope="1.25"/></feComponentTransfer></filter><filter id="c" x="-800" y="-700" width="2800" height="2450" filterUnits="userSpaceOnUse" primitiveUnits="userSpaceOnUse" color-interpolation-filters="linearRGB"><feTurbulence type="fractalNoise" baseFrequency=".115" numOctaves="4" seed="15" stitchTiles="no-stitch" x="0" y="0" width="2000" height="1750" result="turbulence"/><feSpecularLighting surfaceScale="10" specularConstant=".19" specularExponent="20" lighting-color="#fff" x="0" y="0" width="2000" height="1750" in="turbulence" result="specularLighting"><feDistantLight azimuth="3" elevation="100"/></feSpecularLighting></filter><filter id="b" x="-200" y="-200" width="2400" height="2150" filterUnits="userSpaceOnUse" color-interpolation-filters="sRGB"><feFlood flood-opacity="0" result="BackgroundImageFix"/><feBlend in="SourceGraphic" in2="BackgroundImageFix" result="shape"/><feGaussianBlur stdDeviation="200" result="effect1_foregroundBlur_1_2"/></filter></defs></svg>