<svg width="32" height="33" viewBox="0 0 32 33" fill="none" xmlns="http://www.w3.org/2000/svg">
<g clip-path="url(#clip0_2_13348)">
<path d="M16.7275 18.729H10.1821C9.38208 18.729 8.72754 19.3836 8.72754 20.1836C8.72754 20.9836 9.38208 21.6381 10.1821 21.6381H16.7275C17.5275 21.6381 18.1821 20.9836 18.1821 20.1836C18.1821 19.3836 17.5275 18.729 16.7275 18.729ZM21.8184 12.1836H10.1821C9.38208 12.1836 8.72754 12.8381 8.72754 13.6381C8.72754 14.4381 9.38208 15.0927 10.1821 15.0927H21.8184C22.6184 15.0927 23.273 14.4381 23.273 13.6381C23.273 12.8381 22.6184 12.1836 21.8184 12.1836Z" fill="#1D66FF"/>
<path d="M16 0.183594C7.2 0.183594 0 7.38359 0 16.1836V25.6381C0 29.2745 2.90909 32.1836 6.54545 32.1836H16C24.8 32.1836 32 24.9836 32 16.1836C32 7.38359 24.8 0.183594 16 0.183594ZM16 29.2745H6.54545C4.50909 29.2745 2.90909 27.6745 2.90909 25.6381V16.1836C2.90909 8.98359 8.8 3.09268 16 3.09268C23.2 3.09268 29.0909 8.98359 29.0909 16.1836C29.0909 23.3836 23.2 29.2745 16 29.2745Z" fill="#1D66FF"/>
</g>
<defs>
<clipPath id="clip0_2_13348">
<rect width="32" height="32" fill="white" transform="translate(0 0.183594)"/>
</clipPath>
</defs>
</svg>
