<svg width="33" height="32" viewBox="0 0 33 32" fill="none" xmlns="http://www.w3.org/2000/svg">
<path d="M0.877686 16C0.877686 24.8366 8.04113 32 16.8777 32C25.7142 32 32.8777 24.8366 32.8777 16C32.8777 7.16344 25.7142 0 16.8777 0C8.04113 0 0.877686 7.16344 0.877686 16Z" fill="#136FD3"/>
<path d="M22.8852 10.0634C22.7606 9.99714 22.6393 9.92449 22.5218 9.84572C22.18 9.61317 21.8666 9.33914 21.5884 9.02956C20.8923 8.20983 20.6323 7.37822 20.5366 6.79598H20.5404C20.4604 6.31269 20.4935 6 20.4985 6H17.328V18.6177C17.328 18.7872 17.328 18.9546 17.3211 19.12C17.3211 19.1406 17.3192 19.1596 17.318 19.1818C17.318 19.1909 17.318 19.2004 17.3161 19.2099C17.3161 19.2123 17.3161 19.2146 17.3161 19.217C17.2827 19.6697 17.1417 20.1071 16.9055 20.4905C16.6693 20.874 16.3452 21.1919 15.9616 21.4161C15.5619 21.6502 15.1098 21.773 14.6499 21.7724C13.1727 21.7724 11.9755 20.5327 11.9755 19.0017C11.9755 17.4707 13.1727 16.231 14.6499 16.231C14.9295 16.2307 15.2074 16.276 15.4732 16.3652L15.4771 13.0427C14.67 12.9354 13.8501 13.0014 13.069 13.2366C12.2879 13.4718 11.5627 13.871 10.9391 14.4091C10.3926 14.8977 9.93319 15.4808 9.58151 16.132C9.44767 16.3695 8.94272 17.3238 8.88157 18.8726C8.84312 19.7518 9.09963 20.6625 9.22193 21.0389V21.0469C9.29884 21.2685 9.59689 22.0249 10.0826 22.6626C10.4743 23.1741 10.937 23.6234 11.4559 23.9961V23.9881L11.4636 23.9961C12.9985 25.0695 14.7002 24.9991 14.7002 24.9991C14.9948 24.9868 15.9816 24.9991 17.1023 24.4524C18.3453 23.8464 19.0529 22.9436 19.0529 22.9436C19.5049 22.4041 19.8644 21.7893 20.1158 21.1256C20.4027 20.3494 20.4985 19.4185 20.4985 19.0464V12.3524C20.537 12.3762 21.0492 12.7249 21.0492 12.7249C21.0492 12.7249 21.7872 13.2117 22.9386 13.5288C23.7647 13.7544 24.8777 13.8019 24.8777 13.8019V10.5625C24.4877 10.6061 23.6959 10.4794 22.8852 10.0634Z" fill="white"/>
</svg>
