<svg width="32" height="32" viewBox="0 0 32 32" fill="none" xmlns="http://www.w3.org/2000/svg">
<path d="M0.161255 16C0.161255 24.8366 7.26121 32 16.0195 32C24.7777 32 31.8777 24.8366 31.8777 16C31.8777 7.16344 24.7777 0 16.0195 0C7.26121 0 0.161255 7.16344 0.161255 16Z" fill="#136FD3"/>
<path d="M23.5521 12.0999C23.3539 11.3999 22.8583 10.8999 22.1645 10.6999C20.9751 10.3999 15.9203 10.3999 15.9203 10.3999C15.9203 10.3999 10.9646 10.3999 9.67616 10.6999C8.98236 10.8999 8.48678 11.3999 8.28856 12.0999C8.09033 13.3999 8.09033 15.9999 8.09033 15.9999C8.09033 15.9999 8.09034 18.5999 8.38768 19.8999C8.5859 20.5999 9.08147 21.0999 9.77526 21.2999C10.9646 21.5999 16.0194 21.5999 16.0194 21.5999C16.0194 21.5999 20.9751 21.5999 22.2636 21.2999C22.9574 21.0999 23.453 20.5999 23.6512 19.8999C23.9485 18.5999 23.9485 15.9999 23.9485 15.9999C23.9485 15.9999 23.9485 13.3999 23.5521 12.0999ZM14.4336 18.3999V13.5999L18.5964 15.9999L14.4336 18.3999Z" fill="white"/>
</svg>
