<svg width="70" height="70" viewBox="0 0 70 70" fill="none" xmlns="http://www.w3.org/2000/svg">
<g clip-path="url(#clip0_1278_32390)">
<rect width="70" height="70" fill="white"/>
<path d="M36.0815 29.7943V41.057H51.7329C51.0456 44.679 48.9832 47.7459 45.89 49.8081L55.3283 57.1315C60.8275 52.0556 64.0001 44.5999 64.0001 35.7432C64.0001 33.681 63.815 31.698 63.4713 29.7946L36.0815 29.7943Z" fill="#4285F4"/>
<path d="M19.7831 40.6173L17.6544 42.2468L10.1194 48.116C14.9047 57.6072 24.7125 64.164 36.0808 64.164C43.9327 64.164 50.5158 61.573 55.3276 57.1315L45.8892 49.8081C43.2983 51.553 39.9935 52.6106 36.0808 52.6106C28.5195 52.6106 22.0953 47.5081 19.795 40.6341L19.7831 40.6173Z" fill="#34A853"/>
<path d="M10.1195 22.048C8.13672 25.9607 7 30.3759 7 35.0818C7 39.7877 8.13672 44.203 10.1195 48.1156C10.1195 48.1419 19.796 40.6072 19.796 40.6072C19.2144 38.8623 18.8706 37.0117 18.8706 35.0815C18.8706 33.1513 19.2144 31.3007 19.796 29.5558L10.1195 22.048Z" fill="#FBBC05"/>
<path d="M36.0814 17.5799C40.3644 17.5799 44.1715 19.0604 47.2119 21.9158L55.5398 13.5878C50.4901 8.88194 43.9336 6 36.0814 6C24.7131 6 14.9047 12.5302 10.1194 22.048L19.7956 29.5564C22.0956 22.6824 28.5201 17.5799 36.0814 17.5799Z" fill="#EA4335"/>
</g>
<defs>
<clipPath id="clip0_1278_32390">
<rect width="70" height="70" fill="white"/>
</clipPath>
</defs>
</svg>
