<svg width="70" height="70" viewBox="0 0 70 70" fill="none" xmlns="http://www.w3.org/2000/svg">
<rect width="70" height="70" fill="white"/>
<path d="M39.9304 24.9149L43.6841 26.3935L39.9304 27.7912V29.7882L46.3591 27.1926V25.5956L39.9304 23V24.9149Z" fill="#BD00FF"/>
<path d="M5.46706 32.3434C3.66937 32.3434 2.35237 33.1419 2.23253 34.8185H4.22952V34.7794C4.2686 34.2205 4.78836 33.8219 5.34786 33.8675C6.10667 33.8675 6.4662 34.3065 6.4662 35.066V35.4255H5.55433C3.59772 35.4255 2 36.0247 2 37.9006V37.9807C2 39.4983 3.11834 40.177 4.47507 40.177C5.31399 40.2161 6.07215 39.8175 6.55153 39.1785V40.0578H8.58825V35.0262C8.54917 33.1094 7.23022 32.3506 5.47357 32.3506L5.46706 32.3434ZM5.02806 38.6939C4.30898 38.6939 3.98983 38.3344 3.98983 37.8146V37.7345C3.98983 37.0558 4.50894 36.777 5.55303 36.777H6.39195V37.4961C6.43103 38.2946 5.75364 38.6946 5.03392 38.6946L5.02806 38.6939ZM13.3743 38.6125C12.3758 38.6125 11.8566 37.9338 11.8566 36.4162V36.1765C11.8566 34.698 12.4559 33.9802 13.3743 33.9802C14.0933 33.9802 14.4926 34.4596 14.6118 35.1786H16.6088C16.4492 33.222 15.0117 32.3434 13.3339 32.3434C11.3369 32.3434 9.73981 33.7014 9.73981 36.2514V36.3315C9.73981 38.8873 11.2574 40.1653 13.3339 40.1653C15.3706 40.1653 16.5287 38.9277 16.6882 37.2499H14.772C14.6124 38.0888 14.0933 38.6079 13.3743 38.6079V38.6125ZM21.1616 38.6125C20.1631 38.6125 19.644 37.9338 19.644 36.4162V36.1765C19.644 34.698 20.2432 33.9802 21.1616 33.9802C21.8807 33.9802 22.28 34.4596 22.3992 35.1786H24.3961C24.2366 33.222 22.7991 32.3434 21.1212 32.3434C19.1242 32.3434 17.5272 33.7014 17.5272 36.2514V36.3315C17.5272 38.8873 19.0448 40.1653 21.1212 40.1653C23.158 40.1653 24.316 38.9277 24.443 37.2499H22.5659C22.4461 38.0888 21.8872 38.6079 21.1681 38.6079L21.1616 38.6125ZM29.0284 38.6529C28.1166 38.6529 27.5499 38.1338 27.4652 36.7757H32.3372V35.8899C32.3372 33.4148 30.774 32.3356 28.9027 32.3356C26.866 32.3356 25.3087 33.7333 25.3087 36.2436V36.4032C25.3087 38.9193 26.7872 40.1972 28.9431 40.1972C30.8997 40.1972 32.0982 39.1192 32.2975 37.6811H30.3409C30.2608 38.2803 29.6622 38.7193 29.0232 38.6385L29.0284 38.6529ZM28.9086 33.7809C29.7475 33.7809 30.2666 34.2603 30.3064 35.378H27.5108C27.6704 34.1795 28.2696 33.8148 28.9086 33.7809Z" fill="black"/>
<path d="M38.0138 32.3434C37.0563 32.3043 36.177 32.7824 35.7373 33.6213V32.503H33.6609V40.0109H35.7373V35.219C35.7764 34.5404 36.3757 33.9815 37.055 34.0206C37.8138 34.0206 38.1733 34.4199 38.1733 35.2985V40.0109H40.2902V34.9781C40.2902 33.1413 39.3783 32.3421 38.0138 32.3421V32.3434ZM44.204 37.6147V34.0662H45.6415V32.503H44.204V30.2266L42.1276 31.1059V32.503H41.2157V34.0662H42.095V37.8602C42.095 39.3778 42.8538 40.1366 44.4919 40.1366C44.8912 40.1366 45.2905 40.0975 45.6904 39.977V38.3324C45.4588 38.411 45.2159 38.4515 44.9713 38.4523C44.4919 38.4523 44.2125 38.1722 44.2125 37.6134L44.204 37.6147ZM51.4319 37.175V37.375C51.3928 38.0537 50.7936 38.6125 50.1143 38.5734C49.3554 38.5734 49.0363 38.1742 49.0363 37.2955V32.503H46.9195V37.5749C46.9195 39.3322 47.918 40.1705 49.2753 40.1705C49.7257 40.1919 50.1726 40.0826 50.5622 39.8559C50.9519 39.6292 51.2677 39.2946 51.4716 38.8926V40.0109H53.5885V32.503H51.4716L51.4319 37.175ZM57.1832 33.8532V32.4554H55.1067V39.9634H57.1832V36.0899C57.1832 34.8523 58.0221 34.4127 59.4596 34.4127V32.3362C58.4214 32.3362 57.503 32.9348 57.1832 33.8532ZM67.1265 35.8574C67.1265 33.3823 65.5633 32.3434 63.692 32.3434C61.6553 32.3434 60.0979 33.7412 60.0979 36.2514V36.411C60.0979 38.9271 61.5764 40.205 63.7324 40.205C65.689 40.205 66.847 39.1271 67.0867 37.6889H65.1301C64.9705 38.3272 64.3713 38.7271 63.7324 38.6874C62.8205 38.6874 62.2538 38.1683 62.1692 36.8103H67.0483V35.8528L67.1265 35.8574ZM62.2545 35.378C62.4141 34.1404 63.0133 33.7809 63.692 33.7809C64.5309 33.7809 65.05 34.2603 65.0897 35.378H62.2545Z" fill="black"/>
</svg>
