<svg width="70" height="70" viewBox="0 0 70 70" fill="none" xmlns="http://www.w3.org/2000/svg">
<g clip-path="url(#clip0_1278_32171)">
<rect width="70" height="70" fill="white"/>
<g clip-path="url(#clip1_1278_32171)">
<path d="M51.0609 39.7875V28.5927H54.6117L54.6331 29.9295C55.3425 28.9041 56.3875 28.4249 57.5985 28.4249C59.1236 28.4249 60.2086 29.1353 60.7941 30.2427C61.5044 29.0308 62.8449 28.4249 64.2199 28.4249C66.6632 28.4249 68 30.2632 68 32.5816V39.7875H64.3868V33.1251C64.3868 32.0391 63.6979 31.3912 62.8617 31.3912C62.0255 31.3912 61.3375 32.0437 61.3375 33.1251V39.7875H57.7243V33.1251C57.7243 32.0391 57.0345 31.3912 56.1992 31.3912C55.364 31.3912 54.6742 32.0437 54.6742 33.1251V39.7875H51.0609ZM49.8491 35.5264C49.8491 38.4088 47.5512 40.0383 44.6287 40.0383C41.7063 40.0383 39.4084 38.4088 39.4084 35.5264V28.5927H43.044V35.422C43.044 36.4036 43.6909 37.0301 44.6287 37.0301C45.5665 37.0301 46.2135 36.4036 46.2135 35.422V28.5927H49.8491V35.5264ZM38.4249 31.4751V28.5927H35.4419V25.7308H31.8249V35.7772C31.8249 38.5552 33.4749 39.9544 36.128 39.9544C36.9008 39.9544 37.7127 39.8714 38.4249 39.5815V36.7197C37.9815 36.8665 37.5179 36.9432 37.0508 36.9471C36.0897 36.9471 35.4419 36.5081 35.4419 35.4845V31.476L38.4249 31.4751ZM27.2515 34.1897C27.2515 35.7986 26.0816 36.9863 24.6414 36.9863C23.1797 36.9863 22.0097 35.7958 22.0097 34.1897C22.0097 32.6049 23.1797 31.4117 24.6414 31.4117C26.0816 31.4117 27.2515 32.6031 27.2515 34.1897ZM22.0088 44.1316V38.6176C22.9488 39.4962 24.1891 39.9821 25.4757 39.9758C28.5044 39.9758 30.8825 37.4067 30.8825 34.1897C30.8825 30.9941 28.5016 28.4249 25.4757 28.4249C24.8135 28.4218 24.1571 28.5494 23.5443 28.8004C22.9315 29.0514 22.3742 29.4208 21.9044 29.8875L21.8839 28.5927H18.3751V44.1316H22.0088ZM13.4456 32.4791C13.4456 34.7769 11.7536 36.4875 9.64407 36.4875C7.53449 36.4875 5.84347 34.7751 5.84347 32.4791C5.84347 30.1831 7.53449 28.4706 9.64407 28.4706C11.7536 28.4706 13.4456 30.1803 13.4456 32.4772V32.4791ZM9.64407 25C5.36246 25 2 28.3205 2 32.4772C2 36.6339 5.36246 39.9544 9.64407 39.9544C13.9257 39.9544 17.2881 36.6339 17.2881 32.4772C17.2881 28.3205 13.9257 25 9.64407 25Z" fill="#FF612B"/>
</g>
</g>
<defs>
<clipPath id="clip0_1278_32171">
<rect width="70" height="70" fill="white"/>
</clipPath>
<clipPath id="clip1_1278_32171">
<rect width="66" height="19.1316" fill="white" transform="translate(2 25)"/>
</clipPath>
</defs>
</svg>
