<svg width="70" height="70" viewBox="0 0 70 70" fill="none" xmlns="http://www.w3.org/2000/svg">
<g clip-path="url(#clip0_1278_32070)">
<path d="M0 70H70V0H0V70Z" fill="#B31E30"/>
<path d="M25.2287 22.033V25.4727H26.0154C27.0083 25.4727 27.4586 24.9899 27.4586 23.6389V23.4273H28.6142V28.766H27.4586V28.5382C27.4586 27.1981 27.0083 26.6881 26.0154 26.6881H25.2287V30.5347H28.5274C30.0303 30.5347 30.5729 29.5419 30.7519 27.6429H31.9509V31.7609H21.1162V30.5347H22.0331C22.6028 30.5347 22.9066 30.3774 22.9066 29.3845V22.9662C22.9066 22.25 22.5811 22.033 21.8161 22.033H21.4797C20.693 22.033 20.3186 22.2174 20.0419 23.0367L17.0525 31.7609H14.7792L13.0484 26.075H13.0159L11.0953 31.7609H8.79488L5.69149 22.6189C5.5558 22.1686 5.32255 22.033 4.6932 22.033H4.46533V20.8122H9.25063V22.033H8.55617C8.19266 22.033 8.04617 22.25 8.04617 22.467C8.04617 22.6298 8.10589 22.8359 8.19266 23.0638L10.2652 29.1729H10.2977L12.2726 23.4273L11.9959 22.646C11.8277 22.1578 11.4968 22.033 11.0139 22.033H10.6232V20.8122H15.5659V22.033H14.6924C14.356 22.033 14.2258 22.1795 14.2258 22.3965C14.2258 22.5647 14.3072 22.798 14.3615 22.9553L16.1736 29.0644H16.2061L18.3112 23.0964C18.3763 22.901 18.4359 22.7383 18.4359 22.5321C18.4359 22.2717 18.3112 22.033 17.7306 22.033H16.9331V20.8122H31.9509V24.5558H30.7193C30.4697 22.9716 30.3287 22.033 28.1313 22.033H25.2287ZM43.2252 31.7609V27.6429H41.961C41.7928 29.5256 41.451 30.5347 39.7366 30.5347H37.2462V22.7925C37.2462 22.1849 37.4958 22.033 38.2228 22.033H39.1506V20.8122H33.1011V22.033H34.056C34.718 22.033 34.9404 22.25 34.9404 22.7491V29.8023C34.9404 30.3774 34.6257 30.5347 34.1591 30.5347H33.1011V31.7609H43.2252ZM54.4614 31.7609V27.6429H53.1918C53.0236 29.5256 52.671 30.5347 50.9782 30.5347H48.4825V22.7925C48.4825 22.1849 48.7321 22.033 49.4591 22.033H50.3814V20.8122H44.3265V22.033H45.2869C45.9542 22.033 46.1766 22.25 46.1766 22.7491V29.8023C46.1766 30.3774 45.8565 30.5347 45.3954 30.5347H44.3265V31.7609H54.4614ZM62.795 21.6369C62.6919 21.5338 61.6828 20.4867 59.7133 20.4867C57.6462 20.4867 55.5574 21.5338 55.5574 23.78C55.5574 25.8145 57.1796 26.7423 59.046 27.1438C59.6645 27.274 60.0334 27.3445 60.5977 27.4639C61.9974 27.7623 62.9306 28.1855 62.9306 29.1567C62.9306 29.8945 62.1494 30.6867 60.6031 30.6867C58.4437 30.6867 57.1633 29.4822 56.8975 27.6429H55.6279V31.7609H56.751L57.1145 30.7789C57.3803 31.0122 58.4329 32.0864 60.4349 32.0864C62.9849 32.0864 64.911 30.9525 64.911 28.7118C64.911 26.5416 63.1151 25.6084 60.9232 25.1689C60.5325 25.0713 60.1745 25.0116 59.773 24.9193C58.4112 24.6264 57.5377 24.29 57.5377 23.3134C57.5377 22.467 58.4329 21.8865 59.7784 21.8865C61.8021 21.8865 62.5834 23.1723 63.0012 24.5558H64.2328V20.8122H63.343L62.795 21.6369ZM12.5439 48.8296V47.598H11.7192C10.9542 47.598 10.6721 47.3701 10.6721 46.7516V43.7676H11.3503C12.3757 43.7676 12.8206 44.2125 12.8206 45.3735V45.737H13.9708V40.6967H12.8206V40.9138C12.8206 41.7656 12.5113 42.5468 11.4479 42.5468H10.6721V39.0962H12.826C15.2512 39.0962 15.5062 40.317 15.669 41.6137H16.8517V37.8755H6.48901V39.0962H7.58496C8.07868 39.0962 8.35538 39.3187 8.35538 39.7147V46.7896C8.35538 47.2508 8.10581 47.598 7.51984 47.598H6.48901V48.8296H12.5439ZM58.3949 37.5445C54.8032 37.5445 52.4268 40.0565 52.4268 43.3498C52.4268 46.6377 54.8032 49.1714 58.3949 49.1714C61.9757 49.1714 64.3575 46.6377 64.3575 43.3498C64.3575 40.0565 61.9757 37.5445 58.3949 37.5445ZM58.3949 38.8358C60.9883 38.8358 61.7641 40.9897 61.7641 43.3498C61.7641 45.7099 60.9883 47.8693 58.3949 47.8693C55.7852 47.8693 55.0148 45.7099 55.0148 43.3498C55.0148 40.9897 55.7852 38.8358 58.3949 38.8358ZM48.2926 38.7707C48.0539 38.5591 47.0284 37.5445 45.0047 37.5445C41.7657 37.5445 39.7311 40.0131 39.7311 43.3498C39.7311 46.7136 41.7982 49.1714 45.0047 49.1714C47.0664 49.1714 48.1841 48.2274 48.4391 47.9941L49.0522 48.8296H50.1752V45.0317C50.1752 44.3861 50.414 44.2125 51.0542 44.2125H51.358V42.9863H46.3014V44.2125H47.0501C47.5927 44.2125 47.9237 44.4566 47.9237 44.9883V45.6285C47.9237 46.8818 47.1532 47.7553 45.4767 47.7553C43.3771 47.7553 42.3245 45.8673 42.3245 43.3498C42.3245 40.8704 43.3771 38.9714 45.4116 38.9714C47.533 38.9714 48.2546 40.9463 48.4988 41.6137H49.8551V37.8755H48.6995L48.2926 38.7707ZM39.1832 46.2579V46.5563C39.1832 48.4444 38.2825 49.1714 36.9153 49.1714C35.3148 49.1714 34.7776 48.401 34.7776 46.909V46.3393C34.7776 44.4566 33.9747 43.6971 32.1408 43.6971H31.2728V47.0066C31.2728 47.4461 31.4735 47.598 31.9509 47.598H33.1554V48.8296H22.2176V47.598H23.4329C23.7693 47.598 23.8941 47.5166 23.8941 47.3213C23.8941 47.2182 23.8616 47.05 23.7964 46.871C23.7367 46.7245 23.2213 45.3139 23.2213 45.3139H19.3149C19.3149 45.3139 18.8321 46.616 18.7507 46.833C18.6964 46.9958 18.653 47.1314 18.653 47.2887C18.653 47.522 18.8484 47.598 19.1739 47.598H20.335V48.8296H15.1807V47.598C16.0542 47.598 16.6076 47.4732 16.9169 46.7082L20.4109 37.8755H22.5106L26.0914 46.7082C26.3898 47.4841 26.9541 47.598 27.8276 47.598H28.2725C28.7445 47.598 28.9561 47.4461 28.9561 47.0066V39.693C28.9561 39.2536 28.7879 39.0962 28.2725 39.0962H27.1223V37.8755H34.3165C36.7037 37.8755 37.8268 39.004 37.8268 40.713C37.8268 42.8344 35.7163 43.2522 34.7288 43.3064V43.3335C35.8845 43.4204 36.8611 43.8978 36.8611 45.5851V46.2253C36.8611 47.3484 37.0998 47.598 37.4959 47.598C37.8865 47.598 38.0927 47.2887 38.0927 46.5563V46.2579H39.1832ZM22.771 44.0985L21.2952 40.1108H21.2465L19.7707 44.0985H22.771ZM35.5264 40.7836C35.5264 39.8232 34.8373 39.0962 33.3073 39.0962H31.2728V42.4763H33.3073C34.718 42.4763 35.5264 41.8415 35.5264 40.7836Z" fill="white"/>
</g>
<defs>
<clipPath id="clip0_1278_32070">
<rect width="70" height="70" fill="white"/>
</clipPath>
</defs>
</svg>
