<svg width="70" height="70" viewBox="0 0 70 70" fill="none" xmlns="http://www.w3.org/2000/svg">
<g clip-path="url(#clip0_1278_32400)">
<rect width="70" height="70" fill="white"/>
<path d="M27.9426 32.8413C30.1786 32.3609 29.8733 29.6858 29.8078 29.1012C29.6976 28.1996 28.6379 26.6252 27.1999 26.751C25.3895 26.9123 25.1252 29.5274 25.1252 29.5274C24.88 30.7383 25.7103 33.3228 27.9426 32.8413ZM32.0949 28.3569C33.3292 28.3569 34.3268 26.9345 34.3268 25.1774C34.3268 23.4201 33.3292 22 32.0949 22C30.86 22 29.8597 23.4201 29.8597 25.1774C29.8597 26.9345 30.8597 28.3569 32.0949 28.3569ZM37.4163 28.566C39.0686 28.7824 40.1272 27.0199 40.3389 25.6843C40.5553 24.3505 39.4878 22.7992 38.3208 22.5329C37.1485 22.2634 35.6852 24.1399 35.5533 25.3641C35.3926 26.8615 35.7657 28.3546 37.4163 28.566ZM43.9595 30.8098C43.9595 30.1711 43.4307 28.2455 41.4613 28.2455C39.4878 28.2455 39.227 30.0626 39.227 31.3465C39.227 32.5718 39.3291 34.281 41.7798 34.2279C44.2278 34.1736 43.9595 31.4529 43.9595 30.8098ZM41.4613 36.4174C41.4613 36.4174 38.907 34.4417 37.4163 32.3055C35.392 29.1558 32.5202 30.4385 31.56 32.038C30.6027 33.6416 29.1145 34.6543 28.9016 34.9232C28.6866 35.1866 25.8168 36.7374 26.4535 39.5692C27.0917 42.3986 29.3297 42.345 29.3297 42.345C29.3297 42.345 30.9792 42.5063 32.892 42.0784C34.8089 41.6517 36.4581 42.1831 36.4581 42.1831C36.4581 42.1831 40.9295 43.6825 42.1514 40.7974C43.3747 37.9145 41.4613 36.4174 41.4613 36.4174Z" fill="#2319DC"/>
<path d="M32.4913 33.663V35.5637H30.9426C30.9426 35.5637 29.3947 35.6921 28.8529 37.4466C28.6639 38.6179 29.0196 39.3078 29.0817 39.4552C29.1443 39.6023 29.6446 40.4592 30.9008 40.7108H33.807V33.6837L32.4913 33.663ZM32.468 39.5573H31.2972C31.2972 39.5573 30.4815 39.5149 30.2331 38.5758C30.105 38.1598 30.2522 37.6791 30.3168 37.4901C30.3759 37.3009 30.6497 36.8635 31.2144 36.695H32.4677L32.468 39.5573Z" fill="white"/>
<path d="M34.5193 35.7343V39.4343C34.5193 39.4343 34.5799 40.3549 35.8782 40.6905H39.2227V35.7338H37.7792V39.4547H36.4019C36.4019 39.4547 35.9616 39.3907 35.8788 39.037V35.7124L34.5193 35.7343Z" fill="white"/>
<path d="M55.1575 33.305V31.7452H44.8829L44.8696 33.328H49.2868L48.8725 34.2747H45.116V42.1018H54.0395C54.9723 42.1018 54.8895 41.1595 54.8895 41.1595V34.2749H51.1275L51.4582 33.3058H55.1572V33.305H55.1575ZM53.1621 40.4307C53.1621 40.4307 53.054 40.6907 52.901 40.6907H46.9798V38.8649H53.163L53.1621 40.4307ZM53.152 37.3572H46.979V35.6451H53.152V37.3572Z" fill="#E10601"/>
<path d="M66.898 31.7871H62.8665V30.9974H60.9759V31.7482H56.3516V42.086H58.0154V33.0817H66.898V31.7871ZM65.8106 33.9267V33.3284H64.1853V33.9267H60.8417V33.3497H59.3022V33.9267H58.2621L58.2826 35.0978H59.3022V37.2972H64.926C65.7064 37.2972 65.8097 36.4738 65.8097 36.4738V35.0972H66.9998V33.9259H65.81L65.8106 33.9267ZM64.1853 35.8973C64.1853 35.8973 64.0402 36.1639 63.8547 36.1639H60.8238V35.0747H64.1845V35.8979H64.1853V35.8973ZM58.4892 38.8999L61.078 40.4013C60.8729 40.6266 59.9889 40.9129 59.9889 40.9129H58.263V42.0669H60.6063C61.3057 41.9238 62.5999 41.266 62.5999 41.266C63.1354 41.7579 64.1651 41.9628 64.1651 41.9628H66.8362V40.8116H64.8227C64.28 40.7305 63.7927 40.4209 63.7927 40.4209L66.8368 38.6731V37.7268H58.49V38.8993L58.4892 38.8999ZM63.8758 38.8806L62.3951 39.6616L61.0379 38.8806H63.8758Z" fill="#E10601"/>
<path d="M22.0215 33.433H24.2641V31.4573H22.0215V33.433ZM22.0215 42.0438H24.2641V34.2937H22.0215V42.0438Z" fill="#E10601"/>
<path d="M18.375 34.3002L13.5903 34.2878V35.9171H17.7859C17.7859 35.9171 18.7844 36.1635 18.7844 36.7971V37.3709H14.9878C14.9878 37.3709 13.4948 37.5088 13.0153 39.2921C12.9327 40.1277 13.0427 40.538 13.0989 40.6903C13.1529 40.8412 13.5903 41.8265 14.8923 42.0726H20.9376V36.5207C20.9376 36.5207 20.6497 34.6156 18.375 34.3002ZM18.7844 40.5388H15.729C15.3185 40.3732 15.1817 40.1 15.1529 40.0307C15.1246 39.9635 15.0294 39.718 15.1402 39.4699C15.3874 38.9915 15.7971 38.881 15.7971 38.881H18.7844V40.5388Z" fill="#E10601"/>
<path d="M12.5222 39.3258C12.5882 37.4386 10.8952 36.786 10.8952 36.786C12.3283 36.0364 12.1462 34.1472 12.1462 34.1472C11.991 31.256 8.45843 31.391 8.45843 31.391H3V42.1662H9.16327C12.7827 42.1518 12.5222 39.3258 12.5222 39.3258ZM9.0395 40.1633V40.1682H5.34736V37.8434H9.02132L9.14567 37.8685C9.14567 37.8685 9.84475 37.9963 10.0981 38.625C10.0981 38.625 10.2446 39.2158 9.92813 39.6547C9.92813 39.6547 9.6953 40.0603 9.0395 40.1633ZM9.82224 35.1674C9.82224 35.1674 9.57412 35.6232 8.91573 35.7219H5.34736V33.492H8.90043C8.90043 33.492 9.6725 33.4565 9.92813 34.0696C9.92813 34.0696 10.0816 34.7213 9.82224 35.1674Z" fill="#E10601"/>
</g>
<defs>
<clipPath id="clip0_1278_32400">
<rect width="70" height="70" fill="white"/>
</clipPath>
</defs>
</svg>
