<svg width="70" height="70" viewBox="0 0 70 70" fill="none" xmlns="http://www.w3.org/2000/svg">
<g clip-path="url(#clip0_1278_32347)">
<rect width="70" height="70" fill="white"/>
<g clip-path="url(#clip1_1278_32347)">
<path d="M28.4829 29.2764V27.0824C27.7206 26.9909 26.9584 26.9299 26.1657 26.9299C16.7139 26.9299 9 34.6093 9 44.0865C9 49.8764 11.8965 55.0264 16.3175 58.1346C13.4515 55.0569 11.7136 50.9734 11.7136 46.4635C11.7441 37.1081 19.2141 29.4898 28.4829 29.2764Z" fill="#00F2EA"/>
<path d="M28.8797 54.2337C33.0873 54.2337 36.5326 50.8816 36.6851 46.7068V9.37692H43.5149C43.3624 8.61508 43.3013 7.82278 43.3013 7H33.9716V44.3298C33.8191 48.5047 30.3737 51.8568 26.1661 51.8568C24.8551 51.8568 23.605 51.5215 22.5378 50.9426C23.9709 52.9538 26.288 54.2337 28.8797 54.2337Z" fill="#00F2EA"/>
<path d="M56.2876 22.0543V19.9822C53.6961 19.9822 51.2569 19.2203 49.2141 17.8795C51.0434 19.9517 53.5132 21.4449 56.2876 22.0543Z" fill="#00FAF0"/>
<path d="M49.2467 17.8804C47.2649 15.5949 46.0454 12.6389 46.0454 9.3783H43.5452C44.216 12.9132 46.3198 15.9606 49.2467 17.8804Z" fill="#FF0050"/>
<path d="M26.166 36.2235C21.8364 36.2235 18.3301 39.7279 18.3301 44.055C18.3301 47.072 20.0375 49.6622 22.5377 50.9725C21.623 49.6926 21.0437 48.1081 21.0437 46.4015C21.0437 42.0743 24.55 38.5699 28.8795 38.5699C29.6722 38.5699 30.4651 38.6918 31.1968 38.9355V29.4278C30.4346 29.3364 29.6722 29.2755 28.8795 29.2755C28.7577 29.2755 28.6052 29.2755 28.4832 29.2755V36.589C27.7514 36.3453 26.9892 36.2235 26.166 36.2235Z" fill="#FF004F"/>
<path d="M56.2892 22.0542V29.3069C51.4415 29.3069 46.9899 27.7528 43.3311 25.132V44.056C43.3311 53.5027 35.6476 61.2124 26.1654 61.2124C22.5066 61.2124 19.1222 60.0545 16.3477 58.1042C19.4881 61.4563 23.9396 63.5893 28.9094 63.5893C38.3613 63.5893 46.0752 55.9101 46.0752 46.4329V27.5089C49.7339 30.1297 54.2159 31.6838 59.0333 31.6838V22.3589C58.0881 22.3285 57.1734 22.237 56.2892 22.0542Z" fill="#FF004F"/>
<path d="M43.3292 44.0569V25.133C46.9879 27.7537 51.4699 29.3078 56.2874 29.3078V22.0552C53.4823 21.4457 51.0431 19.9526 49.2137 17.8804C46.2866 15.991 44.1828 12.9437 43.5426 9.3783H36.7128V46.7081C36.5603 50.883 33.1151 54.2351 28.9075 54.2351C26.2854 54.2351 23.9681 52.9551 22.5656 50.9744C20.0654 49.664 18.358 47.0434 18.358 44.0569C18.358 39.7297 21.8643 36.2253 26.1939 36.2253C26.9866 36.2253 27.7794 36.3472 28.511 36.5909V29.2774C19.2422 29.4906 11.7722 37.1091 11.7722 46.4034C11.7722 50.9135 13.5101 55.0273 16.3762 58.0747C19.1507 60.025 22.5656 61.183 26.1939 61.183C35.6152 61.2135 43.3292 53.5036 43.3292 44.0569Z" fill="black"/>
</g>
</g>
<defs>
<clipPath id="clip0_1278_32347">
<rect width="70" height="70" fill="white"/>
</clipPath>
<clipPath id="clip1_1278_32347">
<rect width="52" height="56.6222" fill="white" transform="translate(9 7)"/>
</clipPath>
</defs>
</svg>
