<svg width="70" height="70" viewBox="0 0 70 70" fill="none" xmlns="http://www.w3.org/2000/svg">
<g clip-path="url(#clip0_1278_32276)">
<rect width="70" height="70" fill="white"/>
<g clip-path="url(#clip1_1278_32276)">
<path d="M17.2288 27.0001H6.52322C5.12904 27.0001 4 28.1391 4 29.545V40.3412C4 41.7463 5.12904 42.8857 6.52322 42.8857H17.2288C18.6227 42.8857 19.7512 41.7463 19.7512 40.3412V29.545C19.7512 28.1391 18.6227 27.0001 17.2288 27.0001Z" fill="#1677FF"/>
<path d="M8.25635 39.2162C5.80588 39.2162 5.08141 37.2695 6.29243 36.2045C6.69655 35.8445 7.43501 35.6688 7.82872 35.6294C9.28435 35.4843 10.6318 36.0444 12.222 36.8272C11.1042 38.2977 9.68059 39.2162 8.25635 39.2162ZM16.9687 36.9748C16.3385 36.7618 15.4927 36.4363 14.5507 36.0926C15.1164 35.1007 15.5683 33.9712 15.8653 32.7437H12.7604V31.6158H16.5639V30.9863H12.7604V29.1062H11.2082C10.936 29.1062 10.9359 29.3773 10.9359 29.3773V30.9863H7.08922V31.6158H10.9359V32.7437H7.75997V33.3731H13.9197C13.6943 34.1563 13.3916 34.8917 13.0324 35.5597C11.0337 34.8946 8.90091 34.3556 7.56104 34.6874C6.70414 34.9003 6.15227 35.2803 5.82805 35.6785C4.33998 37.5045 5.40727 40.278 8.54991 40.278C10.408 40.278 12.198 39.2331 13.5853 37.5113C15.6546 38.5145 19.7515 40.2369 19.7515 40.2369V37.7821C19.7515 37.7821 19.2369 37.7407 16.9687 36.9748Z" fill="white"/>
<path d="M38.2024 29.3256C38.2024 30.1474 38.8029 30.7006 39.6406 30.7006C40.4783 30.7006 41.0788 30.1474 41.0788 29.3256C41.0788 28.5196 40.4783 27.9504 39.6406 27.9504C38.8029 27.9504 38.2024 28.5196 38.2024 29.3256Z" fill="#1677FF"/>
<path d="M34.1877 39.8358H36.6849V28.2981H34.1877V39.8358Z" fill="black"/>
<path d="M26.174 35.8371L27.6596 30.7005H27.7229L29.1296 35.8371H26.174ZM29.8093 28.6933H26.4585L22.7126 39.8359H25.0203L25.6525 37.6548H29.6196L30.22 39.8359H33.1757L29.8093 28.6933Z" fill="black"/>
<path d="M38.3921 39.8359H40.8893V31.3644H38.3921V39.8359Z" fill="black"/>
<path d="M66.9845 31.3802L67.0001 31.3644H64.6452L63.1596 36.5168H63.0806L61.3737 31.3644H58.5759L61.9427 39.8676L60.536 42.4596V42.5228H62.7329L66.9845 31.3802Z" fill="black"/>
<path d="M45.5202 38.3818C45.2359 38.3818 44.967 38.3503 44.6669 38.2553V33.6719C45.1884 33.3084 45.6152 33.1345 46.1525 33.1345C47.0851 33.1345 47.8279 33.8774 47.8279 35.4579C47.8279 37.4809 46.7374 38.3818 45.5202 38.3818ZM47.1009 31.1905C46.1842 31.1905 45.4729 31.5382 44.6669 32.202V31.3643H42.1694V42.5227H44.6669V39.7568C45.141 39.8833 45.5835 39.9465 46.1209 39.9465C48.3494 39.9465 50.3567 38.3028 50.3567 35.3789C50.3567 32.7552 48.9024 31.1905 47.1009 31.1905Z" fill="black"/>
<path d="M55.589 37.7813C54.9252 38.1448 54.5457 38.287 54.1034 38.287C53.5028 38.287 53.1235 37.892 53.1235 37.2598C53.1235 37.0226 53.1708 36.7856 53.3604 36.596C53.6608 36.2956 54.2457 36.0743 55.589 35.7583V37.7813ZM58.0862 37.718V34.1778C58.0862 32.2495 56.9484 31.1907 54.9411 31.1907C53.6608 31.1907 52.7758 31.4118 51.1636 31.9017L51.606 33.8459C53.0759 33.1819 53.724 32.8975 54.4037 32.8975C55.2256 32.8975 55.589 33.4822 55.589 34.3832V34.4464C52.7282 34.9838 51.8431 35.2841 51.2899 35.8373C50.8791 36.2483 50.7053 36.833 50.7053 37.5126C50.7053 39.1405 51.9698 40.0099 53.1552 40.0099C54.0402 40.0099 54.7513 39.6779 55.7156 38.9508L55.8894 39.8359H58.3866L58.0862 37.718Z" fill="black"/>
</g>
</g>
<defs>
<clipPath id="clip0_1278_32276">
<rect width="70" height="70" fill="white"/>
</clipPath>
<clipPath id="clip1_1278_32276">
<rect width="63" height="15.8857" fill="white" transform="translate(4 27)"/>
</clipPath>
</defs>
</svg>
