<svg width="70" height="70" viewBox="0 0 70 70" fill="none" xmlns="http://www.w3.org/2000/svg">
<g clip-path="url(#clip0_1278_32001)">
<rect width="70" height="70" fill="#4B4BF9"/>
<rect x="3" y="12" width="64" height="45" fill="white"/>
<path d="M-13 34.54V61.08H34.3618H81.7236V34.54V8.00002H34.3618H-13V34.54ZM7.93226 28.8376C7.99536 28.9402 7.99536 29.019 7.93226 29.1137C7.86128 29.232 7.67988 29.2635 6.98582 29.303C6.29964 29.3424 6.01571 29.3976 5.58192 29.5711C4.52505 30.0049 3.69691 31.0302 3.49185 32.166C3.38932 32.726 3.38143 34.8791 3.47607 36.1963C3.53128 36.9534 3.59438 37.2453 3.7679 37.6475C3.99662 38.168 3.97296 38.3731 3.68902 38.4283C3.31045 38.5072 2.95553 37.6948 2.853 36.5196C2.73469 35.1946 2.75835 32.4105 2.89243 31.8268C3.26312 30.281 4.48562 29.0979 6.12613 28.7193C6.21288 28.6957 6.63879 28.6878 7.06469 28.6878C7.71143 28.7036 7.86128 28.7272 7.93226 28.8376ZM11.1738 28.7824C12.0256 28.9638 12.6645 29.3188 13.3428 30.0049C14.2813 30.9356 14.6836 31.882 14.6836 33.1598C14.6836 33.9011 14.5258 34.5163 14.1552 35.2419C13.9107 35.7152 13.5873 36.0859 12.0099 37.679C10.0697 39.6429 9.6201 40.0057 8.76829 40.3291C8.3345 40.4947 8.11367 40.5263 7.34862 40.5263C6.26021 40.5342 5.57403 40.3528 4.90363 39.8874C4.54083 39.635 4.46984 39.5404 4.46984 39.3511C4.46984 39.0277 4.738 38.9962 5.12447 39.2643C6.24443 40.0294 7.69565 40.124 8.96547 39.5088C9.45447 39.2722 9.73051 39.0277 11.4657 37.2847C13.5479 35.1946 13.6583 35.0369 13.9343 33.9879C14.0842 33.4043 14.0842 32.9468 13.9343 32.3079C13.7687 31.6139 13.4138 30.9514 12.9484 30.486C12.1518 29.6894 11.371 29.3818 10.0066 29.3188C9.20997 29.2793 9.068 29.2557 8.99702 29.1295C8.9497 29.0269 8.9497 28.9244 9.0049 28.8219C9.08378 28.6799 9.17053 28.6641 9.85671 28.6641C10.2747 28.6641 10.8741 28.7193 11.1738 28.7824ZM11.0871 30.1706C11.4657 30.3046 11.6076 30.5018 11.4814 30.6911C11.4183 30.7857 11.3158 30.8252 11.166 30.8094C11.0398 30.7936 9.92769 30.7621 8.68942 30.7384C6.1419 30.699 6.03148 30.7226 5.45573 31.2747C4.95884 31.7637 4.82476 32.1187 4.82476 33.0099C4.82476 33.6724 4.8011 33.7828 4.65913 33.9169C4.54083 34.0273 4.46984 34.0431 4.36731 33.9721C4.24901 33.9011 4.23323 33.7434 4.23323 32.9153C4.23323 32.0082 4.24901 31.9057 4.44618 31.5429C4.82476 30.8173 5.57403 30.2415 6.33119 30.0838C6.90695 29.9655 10.7243 30.0365 11.0871 30.1706ZM12.9405 31.677C13.4138 32.5051 13.4295 33.6409 12.9879 34.5479C12.767 34.9974 11.4183 36.3934 11.2133 36.3934C11.0477 36.3934 10.8978 36.2357 10.8978 36.0701C10.8978 35.9991 11.166 35.6757 11.4972 35.3602C12.3963 34.4848 12.633 34.0037 12.6408 33.0967C12.6408 32.7023 12.5935 32.4894 12.4042 32.0792C12.1361 31.5114 12.1676 31.2669 12.5146 31.2669C12.6645 31.2669 12.7591 31.3615 12.9405 31.677ZM10.7637 31.5114C11.1502 31.6139 11.5919 32.0082 11.7733 32.4105C11.9704 32.8364 11.9626 33.4989 11.7654 33.909C11.6707 34.1062 10.9688 34.8634 9.89614 35.9281C8.49225 37.3162 8.12155 37.6396 7.85339 37.7185C6.93849 37.9866 6.09458 37.6317 5.72389 36.8351C5.54248 36.4487 5.5346 36.3698 5.5346 34.4532C5.5346 32.5367 5.54248 32.4657 5.716 32.1265C5.83431 31.9136 6.01571 31.7164 6.21288 31.606C6.50471 31.4325 6.59935 31.4246 8.49225 31.4246C9.62798 31.4246 10.5902 31.464 10.7637 31.5114ZM20.5831 31.7164C20.938 32.1108 20.6147 32.6077 19.9995 32.6077C19.5657 32.6077 19.337 32.8127 19.337 33.1992V33.4752H19.8181C20.0783 33.4752 20.3623 33.5147 20.449 33.562C20.6935 33.6882 20.7803 33.9958 20.6383 34.2561C20.4964 34.54 20.3859 34.5794 19.8023 34.5794H19.337V36.4329V38.2942L19.1398 38.4835C18.8953 38.7359 18.5483 38.7359 18.2564 38.4914L18.0356 38.3021L18.0119 36.4565L17.9883 34.611L17.7359 34.5321C17.2469 34.3901 17.239 33.6645 17.7359 33.5226C17.9646 33.4516 17.9804 33.42 18.0356 32.9705C18.1539 31.882 18.7691 31.3852 19.8891 31.4719C20.315 31.5035 20.4333 31.5429 20.5831 31.7164ZM43.148 31.5114C43.6212 31.677 43.6291 31.7243 43.6291 35.1315V38.2232L43.4004 38.452C43.2505 38.6018 43.0849 38.6807 42.935 38.6807C42.659 38.6807 42.2883 38.3652 42.2883 38.1286C42.2883 37.9709 42.2568 37.9866 41.9571 38.2469C40.6163 39.3905 38.5341 38.4204 38.2738 36.5354C38.1949 35.9439 38.2896 35.1631 38.4946 34.6977C38.8101 33.98 39.6067 33.4279 40.4348 33.3412C40.9475 33.2859 41.3892 33.4121 41.8861 33.7513L42.2883 34.0194V32.931C42.2883 31.9057 42.2962 31.8347 42.4697 31.6849C42.5644 31.5981 42.6984 31.5035 42.7615 31.4798C42.8246 31.4561 42.8798 31.4325 42.8877 31.4325C42.8956 31.4246 43.006 31.464 43.148 31.5114ZM66.0126 32.2922L66.1624 32.5288L66.265 32.3316C66.3833 32.1029 66.5726 32.0161 66.6278 32.166C66.6514 32.2212 66.6593 32.442 66.6436 32.6471C66.612 33.0888 66.4227 33.2465 66.4227 32.8285C66.4148 32.5761 66.4148 32.5761 66.2965 32.726C66.1861 32.8758 66.1703 32.8758 66.0757 32.7417C65.9337 32.5603 65.9022 32.5682 65.9101 32.8206C65.9101 32.9626 65.8706 33.0414 65.7918 33.0414C65.634 33.0414 65.5788 32.2212 65.7287 32.1265C65.8706 32.0319 65.8549 32.024 66.0126 32.2922ZM65.5551 32.2054C65.5551 32.2449 65.4842 32.3001 65.4053 32.3316C65.287 32.3632 65.2397 32.4657 65.2239 32.7023C65.1923 33.1676 65.003 33.1992 65.003 32.7417C65.003 32.4578 64.9715 32.3789 64.8453 32.3474C64.5219 32.2606 64.6876 32.1344 65.1214 32.1344C65.358 32.1344 65.5551 32.166 65.5551 32.2054ZM24.6371 33.5462C25.1813 33.7592 25.7097 34.2482 26.0173 34.8239C26.2145 35.2025 26.2381 35.3287 26.2381 35.9991C26.2381 36.6458 26.2066 36.8036 26.0331 37.1822C25.0472 39.2486 22.0659 39.2565 21.0248 37.2058C20.8197 36.7957 20.7961 36.6695 20.7961 36.0385C20.804 35.4233 20.8276 35.2735 21.0169 34.9107C21.427 34.1299 22.0817 33.6014 22.9098 33.3885C23.312 33.2859 24.1481 33.3648 24.6371 33.5462ZM36.5071 33.5383C37.3195 33.9563 37.4772 34.4453 37.4772 36.5591C37.4772 38.2232 37.4378 38.4441 37.1065 38.5939C36.8226 38.728 36.6412 38.6965 36.3967 38.4914L36.1758 38.3021L36.1364 36.6774L36.097 35.0526L35.8919 34.8476C35.5291 34.4927 34.8271 34.4611 34.4643 34.7924C34.141 35.0763 34.0858 35.3681 34.0858 36.8667C34.0858 38.2785 34.0858 38.2942 33.8886 38.4835C33.652 38.728 33.3128 38.7359 33.0289 38.5151L32.8238 38.3573V36.0543C32.8238 33.8065 32.8238 33.7592 32.9973 33.5778C33.234 33.3254 33.6362 33.3333 33.8886 33.5935C33.999 33.6961 34.0858 33.8459 34.0858 33.9169C34.0858 34.0352 34.1252 34.0194 34.3066 33.8459C34.4249 33.7355 34.6773 33.5699 34.8745 33.4752C35.3161 33.2702 36.026 33.2938 36.5071 33.5383ZM47.9433 33.5541C48.6768 33.8696 49.2841 34.6977 49.363 35.4864C49.4655 36.4881 49.3393 36.5512 47.2887 36.5512H45.7428L45.7902 36.7563C45.869 37.0638 46.082 37.3162 46.3817 37.4661C46.9575 37.7421 47.5411 37.6869 48.1247 37.2926C48.2746 37.19 48.4797 37.1033 48.5743 37.1033C48.8267 37.1033 49.0712 37.3714 49.0712 37.6554C49.0712 37.9709 48.803 38.2311 48.2194 38.5072C47.8329 38.6886 47.6673 38.7201 47.06 38.7201C46.4606 38.7201 46.2792 38.6807 45.9085 38.5151C43.779 37.5213 43.9288 34.2087 46.1451 33.4437C46.6341 33.2781 47.4149 33.3175 47.9433 33.5541ZM58.4331 33.5541C59.1745 33.8696 59.7503 34.6741 59.8528 35.518C59.9632 36.4802 59.8291 36.5512 57.747 36.5512H56.1695L56.3194 36.843C56.7453 37.679 57.5734 37.8683 58.512 37.3399C59.001 37.0638 59.1903 37.0481 59.4032 37.261C60.1683 38.0261 58.2202 39.0672 56.7926 38.657C55.9645 38.4125 55.3098 37.8131 55.0101 37.0086C54.8445 36.5591 54.8445 35.518 55.018 35.0605C55.5465 33.633 57.0687 32.9626 58.4331 33.5541ZM63.6465 33.5778C63.8515 33.7671 63.8752 34.1456 63.7017 34.398C63.6307 34.4927 63.3941 34.6189 63.1575 34.6898C62.8341 34.7845 62.6606 34.8949 62.4476 35.1394C62.0927 35.5574 62.006 35.9754 62.006 37.261V38.2706L61.7615 38.4756C61.446 38.7438 61.1778 38.7359 60.8939 38.452L60.6652 38.2232V36.078C60.6652 33.9011 60.6888 33.7197 60.9728 33.4989C61.3356 33.2228 62.006 33.5383 62.006 33.9879C62.006 34.1851 62.006 34.1851 62.2584 33.9011C62.5581 33.562 63.0471 33.3175 63.2916 33.3806C63.3862 33.3964 63.5439 33.491 63.6465 33.5778ZM28.131 33.5935C28.3282 33.7828 28.3282 33.7986 28.3282 35.2104C28.3282 36.772 28.3834 37.0244 28.762 37.3241C29.1642 37.6475 29.9372 37.5134 30.229 37.0717C30.3079 36.9455 30.3473 36.5118 30.3788 35.3524C30.4183 33.8459 30.4262 33.7986 30.6076 33.6014C30.8678 33.3254 31.2622 33.3254 31.5225 33.5935L31.7196 33.7828V36.0228C31.7196 38.5387 31.7118 38.5624 31.1676 38.6491C30.8442 38.7044 30.4577 38.4599 30.4577 38.1996C30.4577 38.0024 30.4262 38.0103 30.1817 38.239C29.7084 38.6807 29.0617 38.8384 28.3992 38.6807C27.8786 38.5545 27.2792 38.0103 27.153 37.5371C27.1057 37.3557 27.0663 36.496 27.0663 35.4943C27.0663 33.8223 27.0742 33.7513 27.2398 33.5778C27.4764 33.3254 27.8786 33.3333 28.131 33.5935ZM50.6644 33.5068C50.8063 33.6093 51.1376 34.3744 51.7528 35.9754C51.9342 36.4644 52.1156 36.8667 52.1471 36.8667C52.2023 36.8667 52.3049 36.6143 52.9832 34.8949C53.2277 34.2639 53.4958 33.6724 53.5905 33.5699C53.8981 33.2386 54.529 33.4043 54.6316 33.8538C54.6789 34.0825 54.6316 34.2087 53.764 36.1963C53.5195 36.7563 53.2119 37.4661 53.0778 37.7737C52.7702 38.4993 52.5573 38.7201 52.1471 38.7201C51.7055 38.7201 51.5319 38.5072 51.0193 37.3399C50.7827 36.7957 50.3883 35.8966 50.1359 35.3287C49.576 34.051 49.5365 33.8696 49.8047 33.6014C50.0334 33.3727 50.4356 33.3333 50.6644 33.5068ZM4.66702 35.0526C4.75378 35.1079 4.79321 35.3445 4.83265 35.9912C4.87208 36.7878 4.89575 36.8824 5.14813 37.3005C5.6529 38.1444 6.4495 38.5624 7.41172 38.5072C8.12155 38.4677 8.58689 38.2311 9.33616 37.5134C9.79361 37.0796 9.99079 36.9377 10.1249 36.9613C10.2589 36.9771 10.3142 37.0481 10.3299 37.2058C10.3536 37.3951 10.2589 37.5213 9.69897 38.0576C8.97336 38.7596 8.48436 39.0277 7.75875 39.146C6.8123 39.2959 5.88951 39.0198 5.21123 38.3889C4.4383 37.6712 4.1938 37.0717 4.1938 35.9202C4.1938 35.0369 4.3121 34.8239 4.66702 35.0526Z" fill="#4B4BF9"/>
<path d="M6.4259 32.2449L6.20506 32.4342L6.1814 34.2404C6.16562 35.2262 6.1814 36.149 6.20506 36.291C6.30759 36.8589 6.90701 37.2532 7.49065 37.1428C7.73515 37.0955 8.04275 36.8273 9.42298 35.4629C10.33 34.5637 11.1187 33.7356 11.1818 33.6173C11.4263 33.1441 11.2291 32.521 10.7243 32.2134C10.4798 32.0714 10.3221 32.0556 8.5554 32.0556C6.65462 32.0556 6.64674 32.0556 6.4259 32.2449Z" fill="#4B4BF9"/>
<path d="M40.3558 34.611C39.2832 35.0763 39.2753 36.9377 40.34 37.4266C40.7581 37.6081 41.0578 37.6159 41.46 37.4266C41.8544 37.2452 42.0121 37.0717 42.1698 36.6379C42.6352 35.3129 41.5389 34.0983 40.3558 34.611Z" fill="#4B4BF9"/>
<path d="M23.0045 34.5952C21.8372 35.0053 21.7978 36.9297 22.9414 37.4345C23.6197 37.7342 24.5188 37.4503 24.8028 36.8509C25.4337 35.518 24.3295 34.1377 23.0045 34.5952Z" fill="#4B4BF9"/>
<path d="M46.4291 34.5636C46.0505 34.745 45.9559 34.8476 45.8061 35.2735L45.6877 35.6047H46.9102H48.1327L48.0854 35.4233C47.8409 34.611 47.1311 34.2403 46.4291 34.5636Z" fill="#4B4BF9"/>
<path d="M56.8477 34.6031C56.5796 34.7529 56.1773 35.3129 56.1694 35.5416C56.1694 35.5811 56.7136 35.6047 57.384 35.6047H58.6065L58.5277 35.3445C58.4251 34.9895 58.2122 34.7214 57.8967 34.5636C57.5339 34.3744 57.2184 34.3901 56.8477 34.6031Z" fill="#4B4BF9"/>
</g>
<defs>
<clipPath id="clip0_1278_32001">
<rect width="70" height="70" fill="white"/>
</clipPath>
</defs>
</svg>
