<svg width="86" height="27" viewBox="0 0 86 27" fill="none" xmlns="http://www.w3.org/2000/svg">
    <path d="M21.7701 17.6048C25.4751 17.6048 27.6927 14.9048 27.6927 11.7458C27.6927 8.58677 25.4751 5.91377 21.7701 5.91377C18.0921 5.91377 15.8745 8.58677 15.8745 11.7458C15.8474 14.9048 18.0921 17.6048 21.7701 17.6048ZM21.7701 15.0128C19.9311 15.0128 18.9304 13.5008 18.9304 11.7728C18.9304 10.0448 19.9581 8.55977 21.7701 8.55977C23.6091 8.55977 24.6367 10.0718 24.6367 11.7728C24.6097 13.5008 23.6091 15.0128 21.7701 15.0128ZM34.4808 17.6048C37.5908 17.6048 39.3216 16.0928 39.3216 14.0678C39.3216 9.58576 32.6959 10.9628 32.6959 9.31577C32.6959 8.69477 33.399 8.23577 34.4537 8.23577C35.8059 8.23577 37.077 8.82977 37.7531 9.53177L38.943 7.45277C37.672 6.45377 36.0764 5.91377 34.4537 5.94077C31.5059 5.94077 29.8833 7.56077 29.8833 9.45077C29.8833 13.8248 36.5091 12.3398 36.5091 14.1488C36.5091 14.8508 35.9141 15.3098 34.643 15.3098C33.2638 15.3098 31.6141 14.5538 30.7757 13.7708L29.5047 15.9038C30.6946 16.9568 32.5606 17.6318 34.4808 17.6048ZM46.1097 17.6048C49.2198 17.6048 50.9506 16.0928 50.9506 14.0678C50.9506 9.58576 44.3248 10.9628 44.3248 9.31577C44.3248 8.69477 45.0279 8.23577 46.0826 8.23577C47.4348 8.23577 48.7059 8.82977 49.382 9.53177L50.572 7.45277C49.3009 6.45377 47.7053 5.91377 46.0826 5.94077C43.1348 5.94077 41.5122 7.56077 41.5122 9.45077C41.5122 13.8248 48.138 12.3398 48.138 14.1488C48.138 14.8508 47.543 15.3098 46.272 15.3098C44.8927 15.3098 43.243 14.5538 42.4047 13.7708L41.1336 15.9038C42.3235 16.9568 44.1896 17.6318 46.1097 17.6048ZM54.7367 4.45577C55.2506 4.45577 55.6562 4.05077 55.6562 3.53777C55.6562 3.02477 55.2506 2.64677 54.7367 2.64677C54.2229 2.64677 53.8172 3.05177 53.8172 3.53777C53.8172 4.02377 54.2229 4.42877 54.7367 4.45577ZM52.3028 21.8438C54.2229 21.8438 55.3317 20.8178 55.3317 18.7388V6.21077H54.1147V18.7388C54.1147 20.1698 53.2493 20.7638 52.1676 20.7638C51.4374 20.7638 50.9235 20.3858 50.5179 20.0078L49.977 21.0068C50.6801 21.5738 51.3021 21.8438 52.3028 21.8438ZM64.3915 17.6048C67.6908 17.6048 69.7732 15.0128 69.7732 11.7458C69.7732 8.47877 67.6908 5.94077 64.3915 5.94077C61.1462 5.94077 59.0638 8.53277 59.0638 11.7728C59.0638 15.0128 61.1462 17.6048 64.3915 17.6048ZM64.3915 16.5248C61.7952 16.5248 60.3349 14.2298 60.3349 11.7458C60.3349 9.28877 61.8223 6.99377 64.3915 6.99377C67.0147 6.99377 68.4751 9.28877 68.4751 11.7458C68.4751 14.2568 67.0418 16.5248 64.3915 16.5248ZM74.6952 14.5538V9.04577C75.3443 7.99277 76.8317 7.02077 78.3732 7.02077C80.8613 7.02077 82.2946 9.09977 82.2946 11.7998C82.2946 14.4998 80.8883 16.5518 78.3732 16.5518C76.8047 16.5248 75.3172 15.6068 74.6952 14.5538ZM74.6952 17.3348V15.5528C75.5877 16.8218 77.021 17.6048 78.5896 17.6048C81.5374 17.6048 83.5927 15.3368 83.5927 11.7728C83.5927 8.23576 81.5915 5.91377 78.5896 5.91377C77.021 5.91377 75.6147 6.72377 74.6952 7.99277V1.97177H73.4782V17.3348H74.6952ZM2.43359 1.13477H8.7619C9.46504 1.13477 10.1141 1.24277 10.7091 1.45877C11.304 1.67477 11.8449 1.97177 12.2776 2.34977C12.7103 2.72777 13.0619 3.18677 13.3323 3.69977C13.5757 4.21277 13.711 4.75277 13.711 5.34677C13.711 6.21077 13.4946 6.91277 13.0889 7.50677C12.6833 8.07377 12.1694 8.53277 11.5474 8.82977V9.01877C12.3858 9.31577 13.0349 9.80177 13.5487 10.4228C14.0625 11.0708 14.3059 11.8538 14.3059 12.7988C14.3059 13.5008 14.1707 14.1218 13.9003 14.6618C13.6298 15.2018 13.2512 15.6878 12.7644 16.0658C12.2776 16.4708 11.7097 16.7678 11.0877 16.9568C10.4386 17.1728 9.76252 17.2808 9.00529 17.2808H2.43359V1.13477ZM8.54554 7.74977C9.24869 7.74977 9.78957 7.56077 10.1952 7.18277C10.5738 6.80477 10.7632 6.34577 10.7632 5.80577C10.7632 5.26577 10.5738 4.83377 10.1952 4.45577C9.81661 4.07777 9.30278 3.88877 8.62668 3.88877H5.48957V7.74977H8.54554ZM8.87007 14.5268C9.6273 14.5268 10.2223 14.3378 10.6279 13.9598C11.0336 13.5818 11.2499 13.0958 11.2499 12.4748C11.2499 11.8808 11.0336 11.3678 10.6279 10.9628C10.2223 10.5578 9.60026 10.3688 8.78894 10.3688H5.48957V14.5268H8.87007Z" fill="#1D66FF"/>
</svg>
