<svg xmlns="http://www.w3.org/2000/svg" width="17" height="17" viewBox="0 0 17 17" fill="none">
  <path d="M7.80027 1.18535C8.18905 0.804564 8.81095 0.804565 9.19973 1.18536L10.5701 2.52754C10.7544 2.70809 11.0014 2.8104 11.2594 2.81308L13.1775 2.83298C13.7216 2.83863 14.1614 3.27838 14.167 3.82255L14.1869 5.74059C14.1896 5.9986 14.2919 6.2456 14.4725 6.42994L15.8146 7.80027C16.1954 8.18905 16.1954 8.81095 15.8146 9.19973L14.4725 10.5701C14.2919 10.7544 14.1896 11.0014 14.1869 11.2594L14.167 13.1775C14.1614 13.7216 13.7216 14.1614 13.1775 14.167L11.2594 14.1869C11.0014 14.1896 10.7544 14.2919 10.5701 14.4725L9.19973 15.8146C8.81095 16.1954 8.18905 16.1954 7.80027 15.8146L6.42994 14.4725C6.2456 14.2919 5.9986 14.1896 5.74058 14.1869L3.82255 14.167C3.27838 14.1614 2.83863 13.7216 2.83298 13.1775L2.81308 11.2594C2.8104 11.0014 2.70809 10.7544 2.52754 10.5701L1.18535 9.19973C0.804564 8.81095 0.804565 8.18905 1.18536 7.80027L2.52754 6.42994C2.70809 6.2456 2.8104 5.9986 2.81308 5.74059L2.83298 3.82255C2.83863 3.27838 3.27838 2.83863 3.82255 2.83298L5.74059 2.81308C5.9986 2.8104 6.2456 2.70809 6.42994 2.52754L7.80027 1.18535Z" fill="white"/>
  <path d="M5.73438 8.18991L7.76933 10.2359L11.2649 6.76367" stroke="#2378E5" stroke-width="1.5" stroke-linecap="round" stroke-linejoin="round"/>
</svg>