<svg width="16" height="16" viewBox="0 0 16 16" fill="none" xmlns="http://www.w3.org/2000/svg">
<path d="M7.30027 0.685355C7.68905 0.304564 8.31095 0.304565 8.69973 0.685356L10.0701 2.02754C10.2544 2.20809 10.5014 2.3104 10.7594 2.31308L12.6775 2.33298C13.2216 2.33863 13.6614 2.77838 13.667 3.32255L13.6869 5.24059C13.6896 5.4986 13.7919 5.7456 13.9725 5.92994L15.3146 7.30027C15.6954 7.68905 15.6954 8.31095 15.3146 8.69973L13.9725 10.0701C13.7919 10.2544 13.6896 10.5014 13.6869 10.7594L13.667 12.6775C13.6614 13.2216 13.2216 13.6614 12.6775 13.667L10.7594 13.6869C10.5014 13.6896 10.2544 13.7919 10.0701 13.9725L8.69973 15.3146C8.31095 15.6954 7.68905 15.6954 7.30027 15.3146L5.92994 13.9725C5.7456 13.7919 5.4986 13.6896 5.24058 13.6869L3.32255 13.667C2.77838 13.6614 2.33863 13.2216 2.33298 12.6775L2.31308 10.7594C2.3104 10.5014 2.20809 10.2544 2.02754 10.0701L0.685355 8.69973C0.304564 8.31095 0.304565 7.68905 0.685356 7.30027L2.02754 5.92994C2.20809 5.7456 2.3104 5.4986 2.31308 5.24059L2.33298 3.32255C2.33863 2.77838 2.77838 2.33863 3.32255 2.33298L5.24059 2.31308C5.4986 2.3104 5.7456 2.20809 5.92994 2.02754L7.30027 0.685355Z" fill="#2378E5"/>
<path d="M5.23438 7.68991L7.26933 9.73588L10.7649 6.26367" stroke="white" stroke-width="1.5" stroke-linecap="round" stroke-linejoin="round"/>
</svg>
