<svg width="106" height="103" viewBox="0 0 106 103" fill="none" xmlns="http://www.w3.org/2000/svg">
<g clip-path="url(#clip0_2653_92062)">
<path d="M15.1995 51.8555C13.0015 60.7302 13.1851 62.3786 12.7394 70.9452C12.2938 79.5118 12.4572 81.9459 14.2519 88.8058C19.9943 95.1786 29.4216 94.9611 39.5829 97.3187C48.1495 97.7644 47.6483 99.6331 58.5026 99.9116L36.8512 75.8836L15.1995 51.8555Z" fill="#3A90FF"/>
<path d="M93.8413 42.2181C98.1866 44.2808 97.1021 51.4497 94.5563 54.5811C94.1443 55.0859 93.6825 55.5586 93.1299 55.8931C93.7438 54.7674 94.1441 53.6339 94.474 52.4759C95.2965 49.1933 96.132 45.1177 93.8413 42.2181Z" fill="white"/>
<path d="M29.4054 48.5023C25.0264 46.5121 25.9918 39.3261 28.4854 36.1529C28.8891 35.6413 29.3429 35.161 29.8899 34.8175C29.2949 35.9532 28.9133 37.0931 28.6028 38.2564C27.8348 41.5523 27.0668 45.6411 29.4054 48.5023Z" fill="white"/>
<path d="M74.3018 27.9701C74.8526 24.3951 73.9606 20.7476 71.822 17.8303C69.6837 14.913 66.4737 12.9646 62.8989 12.4139C59.3239 11.8632 55.6764 12.7552 52.759 14.8937C49.8417 17.0322 47.8935 20.2419 47.3428 23.8169L60.8222 25.8934L74.3018 27.9701Z" fill="#3A90FF"/>
<path d="M72.6843 29.2747C67.6394 28.3339 62.4878 27.6424 57.3589 26.86C52.2297 26.0776 47.0856 25.507 41.9356 25.0297C38.1721 24.6698 34.4105 24.4641 30.6555 24.328C27.3621 24.1855 24.0628 24.2542 20.7781 24.5337C19.1854 24.6499 17.6093 24.9347 16.0765 25.3835C15.3907 25.5738 14.7389 25.87 14.1446 26.2618L13.8233 26.5723C13.7419 26.6709 13.6711 26.7779 13.612 26.8911L13.399 27.3895L13.195 27.9407C12.6849 29.4958 12.2552 31.0764 11.9077 32.6758C11.5269 34.3301 11.1995 35.9154 10.8824 37.5451C10.247 40.813 9.70359 44.0948 9.20912 47.3928C8.31575 53.2498 7.70686 59.1502 7.32701 65.0084C7.07916 68.7664 6.95936 72.5267 6.96763 76.2894C6.93438 80.0244 7.14576 83.7576 7.6004 87.4649C7.98616 89.707 7.39593 89.5912 6.45014 87.7088C5.50436 85.8267 4.65145 82.1007 4.55566 77.6767C4.56448 69.8955 5.07229 62.1228 6.07594 54.4065C6.97935 46.6554 8.32712 38.9626 10.1126 31.366C10.4155 30.2221 10.7017 29.0756 11.0753 27.9168C11.2664 27.3082 11.4919 26.7109 11.7506 26.1278C11.9158 25.7612 12.1465 25.4279 12.4315 25.1442L12.8531 24.7377L13.2928 24.4366C14.4189 23.7655 15.6494 23.2875 16.9332 23.0227C18.1571 22.7623 19.395 22.5738 20.6409 22.458C25.4586 22.0673 30.2989 22.0473 35.1196 22.3976C45.6268 23.0585 56.036 24.475 66.3958 26.0466C69.5919 26.5341 72.7793 27.0801 75.9499 27.7351C79.1477 28.3574 82.2971 29.2068 85.374 30.277C86.5682 30.7004 87.7224 31.2288 88.8233 31.8561C89.4007 32.1892 89.9344 32.5929 90.4123 33.0575C90.8828 33.5339 91.2675 34.0878 91.5495 34.6949C92.1105 35.8449 92.5291 37.0587 92.7962 38.3099C93.0759 39.5226 93.2888 40.7499 93.4341 41.986C93.9226 46.8699 94.0318 51.7842 93.7606 56.685C93.4137 64.2349 92.7431 71.6071 91.8014 79.0149C91.5539 80.6381 91.3951 82.2407 91.1449 83.8806C90.2185 89.9551 89.6725 91.8497 88.8916 93.0405C88.7329 93.3138 88.55 93.5725 88.3456 93.8134C87.7915 94.3025 87.9266 91.7888 88.5419 87.3621C89.4492 80.7965 90.2925 74.0329 90.9273 67.1776C91.6449 60.284 91.9046 53.3505 91.7043 46.4227C91.6226 43.8963 91.3156 41.3824 90.7867 38.911C90.5355 37.7459 90.1316 36.6191 89.5854 35.5598C89.4638 35.3344 89.3249 35.1185 89.1702 34.9143L88.9666 34.6777L88.7126 34.4336C88.2894 34.0816 87.8316 33.7737 87.346 33.5144C85.099 32.4042 82.7322 31.5548 80.2919 30.9829C77.8214 30.3408 75.2564 29.8126 72.6991 29.3455L72.6843 29.2747Z" fill="white"/>
<path d="M49.8484 97.1183C46.3748 96.7084 42.9079 96.2566 39.4432 95.7882C38.1797 95.5954 36.9204 95.489 35.6473 95.3033C31.1961 94.6243 26.7607 93.8964 22.3318 93.1267C20.3571 92.8256 18.3741 92.523 16.4246 92.2257L12.6594 91.6515C11.4211 91.4624 10.1493 91.2684 9.01135 91.0949C8.90863 91.1125 8.80295 91.0964 8.71014 91.0491C8.64916 90.9931 8.60118 90.9244 8.5696 90.8477C8.48252 90.6889 8.57995 90.3871 8.96765 90.1465C10.0449 89.5846 11.2782 89.3963 12.474 89.6111C17.6365 90.3986 22.6885 91.3489 27.8205 92.3372C30.8887 92.9337 34.121 93.2982 37.283 93.7291C40.7602 94.2081 44.2449 94.6568 47.7371 95.0755C49.8807 95.334 52.0343 95.5853 54.1846 95.802C57.4371 96.144 60.7104 96.4635 63.9533 96.7014C66.4954 96.8749 68.9523 96.933 71.4606 96.9902L73.0966 97.0428C75.1534 97.1425 75.797 97.3005 76.2075 97.8085C76.3095 97.9158 76.4006 98.0329 76.4797 98.158C76.6602 98.5453 75.7997 98.7992 74.2913 98.8089C69.7984 98.8515 65.0896 98.5699 60.3639 98.1743C56.8557 97.8789 53.3327 97.5129 49.8194 97.1397L49.8484 97.1183Z" fill="white"/>
<path d="M48.2963 98.0064C45.2968 97.6515 42.2973 97.2768 39.2982 96.8822L36.0222 96.4681C32.1754 95.9242 28.3412 95.2964 24.5008 94.7107L19.3968 93.9321C17.2297 93.6017 15.0459 93.2686 12.9045 92.8819C11.5567 92.6251 13.4211 91.7964 15.9371 92.1972C20.3717 92.8736 24.7607 93.6802 29.2134 94.462C31.8709 94.9444 34.6604 95.2928 37.3996 95.6337C40.4038 96.0319 43.4179 96.4233 46.4382 96.7726C48.2963 96.9961 50.1512 97.1848 52.0131 97.3832C54.828 97.6756 57.6612 97.9621 60.4542 98.174C62.6314 98.3264 64.7718 98.4388 66.9327 98.5287L68.3446 98.59C70.126 98.699 70.6828 98.8096 71.0462 99.1218C71.1325 99.1869 71.2131 99.2594 71.2871 99.3383C71.4393 99.5757 70.7006 99.7028 69.4021 99.6845C65.5254 99.6154 61.4595 99.3293 57.3773 98.9805C54.3513 98.7244 51.309 98.4059 48.2753 98.0887L48.2963 98.0064Z" fill="white"/>
<path d="M90.9194 23.0904C90.8798 23.3498 90.7135 23.5985 90.6251 23.8417C90.6098 23.9422 90.5956 24.0342 90.5816 24.1263C90.4468 24.4483 90.2799 24.7566 90.155 25.0715C90.1037 25.2106 90.0812 25.3586 90.0886 25.5066C90.0605 25.6907 90.1747 25.8964 90.0043 26.0588C89.834 26.2212 88.331 25.8035 88.3679 25.5609C88.3663 25.1705 88.4998 24.7916 88.7456 24.4884C88.9055 24.2815 88.8145 24.0364 88.9074 23.8196L89.1145 23.0805C89.1657 22.9297 89.2093 22.7764 89.2445 22.6208C89.3088 22.3949 89.3444 22.1615 89.3503 21.9264C89.3213 21.7398 89.2717 21.5572 89.2023 21.3816C89.2023 21.3816 89.1635 21.2987 89.2201 21.2644C89.2767 21.2302 89.2394 21.139 89.4046 21.1214C89.5393 21.092 89.6765 21.0756 89.8145 21.0725L90.0481 21.0568C90.2956 21.0644 90.5378 21.1308 90.7549 21.2502C90.9114 21.3786 91.0326 21.5447 91.1073 21.7328C91.1819 21.921 91.2074 22.125 91.1817 22.3256C91.1421 22.5851 91.1012 22.8528 91.0617 23.1121L90.9194 23.0904Z" fill="white"/>
<path d="M101.932 31.2961L100.457 31.5934C100.28 31.6348 100.114 31.7122 99.9291 31.744L97.9919 32.0393C97.7071 32.087 97.4268 32.1587 97.1543 32.2541C96.8149 32.4074 96.443 32.4742 96.0715 32.4484C95.8372 32.4127 95.8738 31.2196 96.2809 31.0762C96.9465 30.8057 97.6448 30.6244 98.3579 30.537C98.7943 30.4463 99.2185 30.304 99.6212 30.113C100.091 29.9535 100.571 29.8384 101.054 29.6982L101.949 29.4493C102.398 29.3123 102.843 29.2003 103.297 29.0299C103.751 28.8594 103.928 28.6552 104.23 28.5216C104.302 28.4872 104.378 28.4614 104.456 28.4448C104.754 28.4045 104.883 28.5099 105.044 28.8596C105.032 28.9349 105.122 29.0173 105.153 29.099C105.199 29.2224 105.213 29.3556 105.193 29.486C105.173 29.6164 105.12 29.7396 105.039 29.8435C104.627 30.3822 104.043 30.7641 103.384 30.9268C102.917 31.0697 102.437 31.1848 101.955 31.3167L101.932 31.2961Z" fill="white"/>
<path d="M35.6738 51.3038C40.0431 52.03 44.4664 52.6835 48.8724 53.3379C53.2783 53.9926 57.6905 54.6058 62.093 55.1718C65.3074 55.5814 68.5204 55.9449 71.7109 56.2875C74.5171 56.5929 77.313 56.8212 80.0808 56.9703C81.4243 57.0481 82.7408 57.0628 84.008 57.0142C84.5777 56.9892 85.1087 56.9232 85.5826 56.8187L85.8355 56.7273C85.8985 56.6968 85.9522 56.6628 85.9961 56.6253C86.0981 56.5066 86.1824 56.3834 86.2486 56.2562C86.8236 55.1798 87.2352 54.0692 87.4812 52.9307C87.7672 51.783 87.9865 50.6254 88.1557 49.4601C88.4699 47.3999 88.5388 45.2706 88.4229 43.1763C88.3478 41.8226 88.1726 40.4537 87.8785 39.0807C87.6256 37.7182 87.1635 36.3378 86.4948 34.9483C85.9929 34.0987 86.4918 34.1854 87.4174 34.9415C88.7307 36.1966 89.5312 37.4832 89.7752 38.7305C90.3439 41.5714 90.4868 44.3713 90.2034 47.1126C90.0256 49.8776 89.464 52.5877 88.5215 55.2292C88.3592 55.6224 88.2047 56.0204 87.9735 56.4175C87.8576 56.6249 87.7102 56.8253 87.5319 57.0176C87.4241 57.1397 87.2545 57.244 87.0329 57.3246L86.7164 57.4414L86.3635 57.5176C85.4626 57.6827 84.4537 57.7665 83.3814 57.7655C82.3793 57.7693 81.3598 57.7464 80.3284 57.6968C76.2707 57.476 72.1658 57.1177 68.0497 56.6251C59.1016 55.594 50.1686 54.2946 41.2614 52.9396C38.5176 52.5211 35.7686 52.0807 33.0254 51.6025C30.2903 51.136 27.5787 50.5921 24.9107 49.9747C23.8691 49.7291 22.8524 49.4495 21.8723 49.139C21.3596 48.969 20.8789 48.7777 20.4402 48.5691C19.9708 48.3613 19.5698 48.1274 19.2568 47.8791C18.688 47.4185 18.2412 46.944 17.9275 46.4676C17.5929 46.0038 17.3189 45.5397 17.1069 45.0776C16.3423 43.2547 15.9042 41.4501 15.7966 39.681C15.514 36.9465 15.5331 34.3035 15.781 31.671C15.869 31.0941 15.8793 30.523 15.9678 29.9427C16.2957 27.7932 16.6167 27.1429 17.1868 26.7625C17.3027 26.6751 17.435 26.5931 17.5826 26.5172C18.0044 26.3813 18.07 27.2943 17.8744 28.8562C17.5954 31.1888 17.3904 33.5961 17.3652 36.0553C17.2808 38.5176 17.582 41.0285 18.2668 43.5715C18.5315 44.5032 18.9843 45.447 19.6201 46.3921C19.9101 46.8346 20.328 47.2754 20.8624 47.7023C20.9784 47.7964 21.1132 47.8874 21.2648 47.9745L21.4538 48.0772L21.693 48.1874C22.0816 48.349 22.4966 48.4972 22.9313 48.6293C24.9227 49.2043 26.9952 49.6937 29.109 50.0881C31.2716 50.5128 33.466 50.8968 35.6723 51.2579L35.6738 51.3038Z" fill="white"/>
<path d="M49.5384 92.3401L40.753 91L37.5323 90.5602C33.7671 89.9858 30.0158 89.3194 26.2501 88.6938C24.5767 88.4385 22.9031 88.1832 21.2297 87.928C19.0804 87.6542 16.9543 87.221 14.869 86.6324C13.5726 86.2634 15.4432 85.7868 17.8812 86.0815C22.1987 86.7401 26.5411 87.4025 30.9017 88.1703C33.5131 88.62 36.2586 88.919 38.9413 89.2939L47.8031 90.5257L53.2642 91.2646C56.0188 91.6162 58.7863 91.9955 61.5318 92.2945C63.6615 92.5337 65.755 92.6732 67.8839 92.8609C68.344 92.9312 68.8086 92.9164 69.2689 92.9866C71.0009 93.2506 71.5314 93.4772 71.8581 93.861C71.9387 93.9444 72.0108 94.0358 72.0734 94.1335C72.2121 94.403 71.4697 94.5552 70.1828 94.5729C66.2467 94.4405 62.3202 94.1017 58.4195 93.5578L49.5332 92.3736L49.5384 92.3401Z" fill="white"/>
<path d="M10.7238 62.5513C10.9488 59.8972 11.2324 57.2522 11.5244 54.6084C11.628 53.6481 11.6744 52.6706 11.8032 51.7141C12.2384 48.3558 12.7854 44.9375 13.4014 41.5725C13.6897 40.0753 13.9124 38.5596 14.1827 37.0683C14.5515 35.1553 14.7748 33.1859 15.8374 31.3274C16.1913 30.7479 16.6351 31.1495 16.959 31.8324C17.3581 32.6441 17.4737 33.5659 17.2874 34.4511C16.4112 38.1188 15.837 41.9953 14.9758 45.8453C14.4775 48.158 14.3095 50.6068 14.0281 53.0124C13.7207 55.6455 13.4287 58.2892 13.187 60.9408C13.0327 62.5697 12.8952 64.2011 12.7924 65.8292C12.6372 68.3056 12.4474 70.7852 12.4409 73.2416C12.4555 75.1235 12.566 77.0036 12.7718 78.8743C12.8122 79.2829 12.8803 79.6785 12.9304 80.0801C13.0098 80.5933 13.0509 81.1119 13.0533 81.6314C13.0276 81.9247 12.9195 82.205 12.7416 82.4399C12.6736 82.5495 12.628 82.6795 12.5818 82.758C12.5356 82.8366 12.338 82.8407 12.0398 82.6068C11.8627 82.4713 11.7221 82.294 11.6305 82.0907C11.4922 81.849 11.3906 81.5884 11.329 81.3169C10.9038 79.5903 10.6309 77.8298 10.5134 76.0554C10.3843 74.2635 10.3273 72.4482 10.3288 70.642C10.3028 67.9496 10.4731 65.2615 10.702 62.5824L10.7238 62.5513Z" fill="white"/>
<path d="M46.8428 4.67079C50.3385 3.66466 54.0343 3.57495 57.5749 4.41032C58.2303 4.50849 58.8417 4.75688 59.4786 4.93069C60.1018 5.13749 60.7131 5.37896 61.3092 5.65397C65.4463 7.64074 68.9343 10.7612 71.3675 14.6525C72.4457 16.3516 73.3119 18.1763 73.9471 20.0859C74.1403 20.6993 74.3256 21.3187 74.4819 21.941C74.6382 22.5633 74.7785 23.1973 74.8388 23.8407C74.9234 24.4804 74.9507 25.1261 74.9206 25.7706C74.8735 26.0843 74.9032 26.4097 74.8621 26.7314L74.7202 27.6796C74.6023 28.4674 74.4694 28.3548 74.2646 27.6756C74.1501 27.3448 74.0496 26.8735 73.868 26.3258C73.6732 25.7198 73.5133 25.1032 73.3888 24.4791C73.0441 22.0578 72.2996 19.7108 71.1855 17.5337C70.0738 15.3314 68.6368 13.309 66.9227 11.5346C65.8746 10.4431 64.6931 9.48774 63.4066 8.69117C62.1264 7.86691 60.7523 7.19919 59.3132 6.70232C56.1562 5.5776 52.7627 5.28543 49.46 5.85403C47.4089 6.19847 45.4208 6.8474 43.5615 7.77933C40.7136 9.1687 38.1922 11.1453 36.163 13.579C35.3907 14.5082 34.7086 15.5088 34.1259 16.5673C33.5388 17.611 33.0415 18.7027 32.6391 19.8306C32.4654 20.3249 32.3064 20.8144 32.1665 21.321C31.6423 23.2028 31.4328 23.7917 30.923 24.1502C30.8245 24.2372 30.7197 24.3167 30.6094 24.3882C30.4483 24.4639 30.3527 24.2929 30.2697 23.8954C30.1654 23.3089 30.1803 22.7075 30.3136 22.127C31.2526 17.3935 33.7298 13.1031 37.3593 9.92292C40.0774 7.47022 43.3136 5.66201 46.8271 4.63281L46.8428 4.67079Z" fill="white"/>
<path d="M49.2606 11.5718C51.5432 10.9149 53.9564 10.8563 56.2681 11.4018C56.696 11.4659 57.0954 11.628 57.5111 11.7415C57.918 11.8766 58.3172 12.0342 58.7065 12.2138C61.4077 13.5111 63.6852 15.5486 65.274 18.0893C65.978 19.1987 66.5435 20.3903 66.9581 21.6371C67.0844 22.0375 67.2053 22.4422 67.3075 22.8483C67.4095 23.2546 67.5011 23.6687 67.5407 24.0889C67.5957 24.5064 67.6135 24.928 67.5938 25.3489C67.5632 25.5537 67.5827 25.766 67.5558 25.9763L67.4631 26.5953C67.386 27.1097 67.2994 27.0363 67.1656 26.5927C67.0908 26.3768 67.0253 26.069 66.9067 25.7113C66.7795 25.3158 66.675 24.9131 66.5938 24.5056C66.3688 22.9246 65.8826 21.3922 65.1551 19.9707C64.4291 18.5326 63.491 17.2121 62.3718 16.0535C61.6874 15.3408 60.916 14.7171 60.0759 14.1969C59.2402 13.6587 58.3427 13.2227 57.4031 12.8983C55.3417 12.1639 53.1261 11.9732 50.9696 12.3444C49.6304 12.5693 48.3321 12.993 47.1181 13.6016C45.2586 14.5087 43.6123 15.7993 42.2874 17.3884C41.783 17.9951 41.3377 18.6485 40.9573 19.3395C40.5738 20.021 40.2491 20.734 39.9864 21.4703C39.873 21.7932 39.7693 22.1127 39.6777 22.4435C39.3356 23.6723 39.1989 24.0567 38.8658 24.2908C38.8015 24.3476 38.7332 24.3996 38.6611 24.4464C38.5558 24.4958 38.4936 24.3839 38.4392 24.1244C38.3711 23.7416 38.381 23.3489 38.468 22.9698C39.0812 19.8791 40.6986 17.0777 43.0684 15.0012C44.8432 13.3997 46.9562 12.2191 49.2504 11.547L49.2606 11.5718Z" fill="white"/>
</g>
<defs>
<clipPath id="clip0_2653_92062">
<rect width="105.982" height="102.197" fill="white"/>
</clipPath>
</defs>
</svg>
