<svg width="18" height="20" viewBox="0 0 18 20" fill="none" xmlns="http://www.w3.org/2000/svg">
<path id="Union" fill-rule="evenodd" clip-rule="evenodd" d="M4.91305 0.557007L8.51375 1.39382L6.28347 4.31325L5.83409 3.08153C4.41024 3.71645 3.20655 4.76682 2.38433 6.0999C1.47946 7.56698 1.08794 9.29324 1.27136 11.0071C1.45478 12.7211 2.20272 14.3254 3.39755 15.5678C4.59238 16.8101 6.1663 17.6201 7.87175 17.8702C8.20705 17.9194 8.439 18.2311 8.38982 18.5664C8.34065 18.9017 8.02897 19.1336 7.69367 19.0844C5.71894 18.7948 3.8965 17.857 2.51302 16.4184C1.12953 14.9799 0.263487 13.1223 0.0511083 11.1377C-0.16127 9.15321 0.292065 7.15439 1.33981 5.45566C2.30689 3.8877 3.72974 2.65754 5.41259 1.92622L4.91305 0.557007ZM14.7817 4.98551C15.9336 6.26775 16.6267 7.89653 16.7518 9.61568C16.8769 11.3348 16.427 13.0468 15.4728 14.4823C14.669 15.6917 13.5457 16.647 12.235 17.247L11.563 15.8303L9.63167 18.9823L13.2765 19.4429L12.7609 18.3559C14.2721 17.6608 15.5672 16.5573 16.4949 15.1616C17.5997 13.4995 18.1206 11.5172 17.9758 9.5266C17.8309 7.53601 17.0284 5.65005 15.6946 4.16536C14.3607 2.68066 12.5712 1.68148 10.6074 1.32498C10.274 1.26444 9.95463 1.48567 9.8941 1.81911C9.83356 2.15255 10.0548 2.47193 10.3882 2.53246C12.0842 2.84035 13.6297 3.70328 14.7817 4.98551Z" fill="#86909C"/>
</svg>
