<svg width="40" height="40" viewBox="0 0 40 40" fill="none" xmlns="http://www.w3.org/2000/svg">
<path d="M18.8337 1.14225C19.4816 0.507604 20.5181 0.507605 21.1661 1.14225L25.4144 5.30328C25.7216 5.6042 26.1333 5.77471 26.5633 5.77917L32.5096 5.84089C33.4165 5.8503 34.1494 6.58322 34.1589 7.49015L34.2206 13.4364C34.225 13.8665 34.3955 14.2781 34.6965 14.5854L38.8575 18.8337C39.4921 19.4816 39.4921 20.5181 38.8575 21.1661L34.6965 25.4144C34.3955 25.7216 34.225 26.1333 34.2206 26.5633L34.1589 32.5096C34.1494 33.4165 33.4165 34.1494 32.5096 34.1589L26.5633 34.2206C26.1333 34.225 25.7216 34.3955 25.4144 34.6965L21.1661 38.8575C20.5181 39.4921 19.4816 39.4921 18.8337 38.8575L14.5854 34.6965C14.2781 34.3955 13.8665 34.225 13.4364 34.2206L7.49015 34.1589C6.58321 34.1494 5.8503 33.4165 5.84089 32.5096L5.77917 26.5633C5.77471 26.1333 5.6042 25.7216 5.30328 25.4144L1.14225 21.1661C0.507604 20.5181 0.507605 19.4816 1.14225 18.8337L5.30328 14.5854C5.6042 14.2781 5.77471 13.8665 5.77917 13.4364L5.84089 7.49015C5.8503 6.58322 6.58322 5.8503 7.49016 5.84089L13.4364 5.77917C13.8665 5.77471 14.2781 5.6042 14.5854 5.30328L18.8337 1.14225Z" fill="url(#paint0_linear_2662_1308)"/>
<path d="M13.0859 19.2247L18.1733 24.3396L26.9123 15.6591" stroke="white" stroke-width="2.49998" stroke-linecap="round" stroke-linejoin="round"/>
<defs>
<linearGradient id="paint0_linear_2662_1308" x1="11.2021" y1="39.9997" x2="24.2107" y2="5.28336" gradientUnits="userSpaceOnUse">
<stop stop-color="#2978DE"/>
<stop offset="1" stop-color="#3395FF"/>
</linearGradient>
</defs>
</svg>
