<svg xmlns="http://www.w3.org/2000/svg" width="2000" height="6000"><g filter="url(#a)"><g filter="url(#b)"><path d="M-1000-3000h4000V9000h-4000z"/><path d="M705-758-228 398-8 2043 2271 49"/><path d="m1357.991-1493.7-360 205 424 1744 1686-739" fill="#fed766"/><path d="M2666 1878 1135 3863l3064 1350 476-551"/><path d="m-33 2191-623 1488L516 5092l2054-664"/><path d="m-127.718 4907.53-607 2261 2456 2272 1753-723" fill="#fed766"/><path d="m2953.744 5340.932-3577 3858 887 417 3407-2538" fill="#fed766"/></g></g><path fill="#fff" filter="url(#c)" d="M0 0h2000v6000H0z"/><defs><filter id="a"><feComponentTransfer><feFuncR type="linear" slope="1.34"/><feFuncG type="linear" slope="1.34"/><feFuncB type="linear" slope="1.34"/></feComponentTransfer></filter><filter id="c" x="-800" y="-2400" width="2800" height="8400" filterUnits="userSpaceOnUse" primitiveUnits="userSpaceOnUse" color-interpolation-filters="linearRGB"><feTurbulence type="fractalNoise" baseFrequency=".11" numOctaves="4" seed="15" stitchTiles="no-stitch" x="0" y="0" width="2000" height="6000" result="turbulence"/><feSpecularLighting surfaceScale="10" specularConstant=".13" specularExponent="20" lighting-color="#fff" x="0" y="0" width="2000" height="6000" in="turbulence" result="specularLighting"><feDistantLight azimuth="3" elevation="100"/></feSpecularLighting></filter><filter id="b" x="-200" y="-200" width="2400" height="6400" filterUnits="userSpaceOnUse" color-interpolation-filters="sRGB"><feFlood flood-opacity="0" result="BackgroundImageFix"/><feBlend in="SourceGraphic" in2="BackgroundImageFix" result="shape"/><feGaussianBlur stdDeviation="200" result="effect1_foregroundBlur_1_2"/></filter></defs></svg>